SplineFontDB: 3.0
FontName: Boon-700i
FullName: Boon 700 Oblique
FamilyName: Boon
Weight: 700
Copyright: Copyright 2013-2015, Sungsit Sawaiwan (https://fontuni.com | uni@fontuni.com). This Font Software is licensed under the SIL Open Font License, Version 1.1 (http://scripts.sil.org/OFL).
Version: 1.0
ItalicAngle: -9
UnderlinePosition: -120
UnderlineWidth: 60
Ascent: 960
Descent: 240
InvalidEm: 0
sfntRevision: 0x00010000
LayerCount: 2
Layer: 0 0 "Back" 1
Layer: 1 0 "Fore" 0
XUID: [1021 556 -266790205 13023192]
StyleMap: 0x0000
FSType: 0
OS2Version: 3
OS2_WeightWidthSlopeOnly: 0
OS2_UseTypoMetrics: 0
CreationTime: 1369324892
ModificationTime: 1445624907
PfmFamily: 17
TTFWeight: 700
TTFWidth: 5
LineGap: 90
VLineGap: 0
Panose: 2 0 5 3 0 0 0 0 0 0
OS2TypoAscent: 960
OS2TypoAOffset: 0
OS2TypoDescent: -240
OS2TypoDOffset: 0
OS2TypoLinegap: 90
OS2WinAscent: 1320
OS2WinAOffset: 0
OS2WinDescent: 480
OS2WinDOffset: 0
HheadAscent: 1320
HheadAOffset: 0
HheadDescent: -480
HheadDOffset: 0
OS2SubXSize: 780
OS2SubYSize: 840
OS2SubXOff: 26
OS2SubYOff: 168
OS2SupXSize: 780
OS2SupYSize: 840
OS2SupXOff: -90
OS2SupYOff: 576
OS2StrikeYSize: 59
OS2StrikeYPos: 310
OS2CapHeight: 780
OS2XHeight: 600
OS2Vendor: 'FUni'
OS2CodePages: 20010193.00000000
OS2UnicodeRanges: a30000ff.5000207b.00000000.00000000
Lookup: 1 0 0 "ThaiRC.rd" { "ThaiRC.rd subtable"  } ['ccmp' ('thai' <'PAL ' 'SAN ' > ) 'locl' ('thai' <'PAL ' 'SAN ' > ) 'ss01' ('thai' <'dflt' > ) ]
Lookup: 6 0 0 "ThaiContextRC.rd" { "ThaiContextRC.rd subtable"  } ['ccmp' ('thai' <'dflt' > ) ]
Lookup: 2 0 0 "ThaiDecomp" { "ThaiDecomp subtable"  } ['ccmp' ('thai' <'dflt' > ) ]
Lookup: 1 0 0 "ThaiT.0E4D" { "ThaiT.0E4D subtable"  } []
Lookup: 1 0 0 "Thai0E4D.0E48" { "Thai0E4D.0E48 subtable"  } []
Lookup: 1 0 0 "Thai0E4D.0E49" { "Thai0E4D.0E49 subtable"  } []
Lookup: 1 0 0 "Thai0E4D.0E4A" { "Thai0E4D.0E4A subtable"  } []
Lookup: 1 0 0 "Thai0E4D.0E4B" { "Thai0E4D.0E4B subtable"  } []

StartChar: .notdef
Encoding: 65536 -1 0
Width: 660
Flags: W
LayerCount: 2
Fore
SplineSet
20 0 m 1
 115 600 l 1
 365 600 l 1
 615 600 l 1
 520 0 l 1
 270 0 l 1
 20 0 l 1
289 120 m 1
 389 120 l 1
 446 480 l 1
 346 480 l 1
 246 480 l 1
 189 120 l 1
 289 120 l 1
EndSplineSet
EndChar

StartChar: exclam
Encoding: 33 33 5
Width: 330
GlyphClass: 2
Flags: W
LayerCount: 2
Fore
SplineSet
23 82 m 0
 32 136 78 170 132 170 c 0
 180 170 214 143 214 98 c 0
 214 93 214 88 213 82 c 0
 204 28 158 -6 104 -6 c 0
 56 -6 22 21 22 66 c 0
 22 71 22 76 23 82 c 0
93 270 m 1
 138 810 l 1
 328 810 l 1
 203 270 l 1
 93 270 l 1
EndSplineSet
EndChar

StartChar: quotedbl
Encoding: 34 34 6
Width: 540
GlyphClass: 2
Flags: W
LayerCount: 2
Fore
SplineSet
318 900 m 1
 236 540 l 1
 136 540 l 1
 168 900 l 1
 318 900 l 1
538 900 m 1
 456 540 l 1
 356 540 l 1
 388 900 l 1
 538 900 l 1
EndSplineSet
EndChar

StartChar: numbersign
Encoding: 35 35 7
Width: 810
GlyphClass: 2
Flags: W
LayerCount: 2
Fore
SplineSet
0 190 m 1
 18 300 l 1
 164 300 l 1
 240 480 l 1
 106 480 l 1
 123 590 l 1
 287 590 l 1
 369 780 l 1
 499 780 l 1
 417 590 l 1
 567 590 l 1
 649 780 l 1
 779 780 l 1
 697 590 l 1
 813 590 l 1
 796 480 l 1
 650 480 l 1
 574 300 l 1
 708 300 l 1
 690 190 l 1
 526 190 l 1
 445 0 l 1
 315 0 l 1
 396 190 l 1
 246 190 l 1
 165 0 l 1
 35 0 l 1
 116 190 l 1
 0 190 l 1
370 480 m 1
 294 300 l 1
 444 300 l 1
 520 480 l 1
 370 480 l 1
EndSplineSet
EndChar

StartChar: dollar
Encoding: 36 36 8
Width: 660
GlyphClass: 2
Flags: W
LayerCount: 2
Fore
SplineSet
15 191 m 1
 182 201 l 1
 182 142 227 105 288 105 c 0
 358 105 411 132 423 210 c 0
 424 216 425 222 425 228 c 0
 425 282 380 300 363 306 c 0
 315 322 251 351 206 370 c 0
 148 396 90 450 90 539 c 0
 90 550 91 562 93 574 c 0
 109 675 195 772 340 792 c 1
 358 900 l 1
 478 900 l 1
 460 791 l 1
 598 766 633 656 633 594 c 1
 466 582 l 1
 466 585 l 2
 466 644 431 675 378 675 c 0
 331 675 270 650 258 574 c 0
 257 569 257 564 257 560 c 0
 257 515 298 498 324 486 c 0
 369 467 431 441 469 428 c 0
 538 405 592 353 592 257 c 0
 592 242 591 227 588 210 c 0
 572 109 485 10 333 -12 c 1
 316 -120 l 1
 196 -120 l 1
 213 -12 l 1
 59 10 15 121 15 189 c 2
 15 191 l 1
EndSplineSet
EndChar

StartChar: percent
Encoding: 37 37 9
Width: 780
GlyphClass: 2
Flags: W
LayerCount: 2
Fore
SplineSet
0 0 m 1
 1 8 l 1
 684 780 l 1
 784 780 l 1
 782 772 l 1
 100 0 l 1
 0 0 l 1
178 458 m 0
 199 458 227 486 241 576 c 2
 244 595 l 2
 247 617 249 634 249 649 c 0
 249 696 234 712 218 712 c 0
 197 712 168 685 154 595 c 2
 151 576 l 2
 148 555 146 538 146 523 c 0
 146 475 162 458 178 458 c 0
230 791 m 0
 327 791 351 720 351 652 c 0
 351 632 349 612 346 595 c 2
 343 576 l 2
 331 499 291 379 165 379 c 0
 68 379 44 451 44 519 c 0
 44 539 46 559 49 576 c 2
 52 595 l 2
 64 672 104 791 230 791 c 0
566 68 m 0
 587 68 615 96 629 186 c 2
 632 205 l 2
 635 227 637 244 637 259 c 0
 637 306 622 322 606 322 c 0
 585 322 556 295 542 205 c 2
 539 186 l 2
 536 165 534 148 534 133 c 0
 534 85 550 68 566 68 c 0
619 401 m 0
 716 401 739 331 739 263 c 0
 739 243 737 223 734 205 c 2
 731 186 l 2
 719 109 679 -11 553 -11 c 0
 456 -11 432 61 432 129 c 0
 432 149 434 169 437 186 c 2
 440 205 l 2
 452 282 493 401 619 401 c 0
EndSplineSet
EndChar

StartChar: ampersand
Encoding: 38 38 10
Width: 810
GlyphClass: 2
Flags: W
LayerCount: 2
Fore
SplineSet
746 8 m 1
 745 0 l 1
 560 0 l 1
 560 0 540 26 511 64 c 1
 433 12 342 -21 247 -21 c 0
 86 -21 16 57 16 149 c 0
 16 159 17 169 19 180 c 0
 36 289 137 366 244 428 c 1
 218 476 195 532 195 587 c 0
 195 597 196 606 197 615 c 0
 216 736 316 801 427 801 c 0
 549 801 598 732 598 662 c 0
 598 654 597 646 596 638 c 0
 583 554 521 472 426 412 c 1
 457 373 502 315 549 256 c 1
 581 304 603 360 617 420 c 1
 753 400 l 1
 734 316 687 232 624 161 c 1
 692 77 746 8 746 8 c 1
304 338 m 1
 221 279 191 225 184 180 c 0
 183 174 183 168 183 163 c 0
 183 118 216 101 266 101 c 0
 336 101 395 119 444 151 c 1
 395 215 342 287 304 338 c 1
410 695 m 0
 369 695 349 655 342 611 c 0
 341 605 341 599 341 592 c 0
 341 563 349 531 365 501 c 1
 421 547 450 602 456 638 c 0
 457 642 457 646 457 650 c 0
 457 682 436 695 410 695 c 0
EndSplineSet
EndChar

StartChar: quotesingle
Encoding: 39 39 11
Width: 330
GlyphClass: 2
Flags: W
LayerCount: 2
Fore
SplineSet
323 900 m 1
 241 540 l 1
 141 540 l 1
 173 900 l 1
 323 900 l 1
EndSplineSet
EndChar

StartChar: parenleft
Encoding: 40 40 12
Width: 390
GlyphClass: 2
Flags: W
LayerCount: 2
Fore
SplineSet
52 390 m 0
 87 612 194 786 320 915 c 1
 414 875 l 1
 305 756 230 598 197 390 c 0
 187 329 183 273 183 220 c 0
 183 93 210 -11 260 -95 c 1
 154 -135 l 1
 87 -34 41 95 41 252 c 0
 41 296 44 342 52 390 c 0
EndSplineSet
Substitution2: "Latin.subs subtable" parenleft.subs
Substitution2: "Latin.sups subtable" parenleft.sups
EndChar

StartChar: parenright
Encoding: 41 41 13
Width: 390
GlyphClass: 2
Flags: W
LayerCount: 2
Fore
SplineSet
342 390 m 0
 307 168 200 -6 74 -135 c 1
 -20 -95 l 1
 89 24 164 182 197 390 c 0
 207 451 211 507 211 560 c 0
 211 687 184 791 134 875 c 1
 240 915 l 1
 307 814 353 685 353 528 c 0
 353 484 350 438 342 390 c 0
EndSplineSet
Substitution2: "Latin.subs subtable" parenright.subs
Substitution2: "Latin.sups subtable" parenright.sups
EndChar

StartChar: asterisk
Encoding: 42 42 14
Width: 570
GlyphClass: 2
Flags: W
LayerCount: 2
Fore
SplineSet
81 668 m 1
 145 801 l 1
 298 715 l 1
 298 900 l 1
 438 900 l 1
 378 715 l 1
 559 801 l 1
 581 668 l 1
 391 639 l 1
 503 507 l 1
 377 425 l 1
 319 592 l 1
 207 425 l 1
 107 507 l 1
 261 639 l 1
 81 668 l 1
EndSplineSet
EndChar

StartChar: plus
Encoding: 43 43 15
Width: 600
GlyphClass: 2
Flags: W
LayerCount: 2
Fore
SplineSet
81 415 m 1
 231 415 l 1
 255 570 l 1
 405 570 l 1
 381 415 l 1
 531 415 l 1
 513 305 l 1
 363 305 l 1
 339 150 l 1
 189 150 l 1
 213 305 l 1
 63 305 l 1
 81 415 l 1
EndSplineSet
EndChar

StartChar: comma
Encoding: 44 44 16
Width: 330
GlyphClass: 2
Flags: W
LayerCount: 2
Fore
SplineSet
22 78 m 0
 30 131 72 170 132 170 c 0
 199 170 224 123 224 72 c 0
 224 63 224 54 222 45 c 0
 203 -78 105 -166 25 -210 c 1
 -13 -146 l 1
 35 -119 80 -74 104 -6 c 1
 99 -6 l 2
 53 -6 21 20 21 63 c 0
 21 68 21 73 22 78 c 0
EndSplineSet
EndChar

StartChar: hyphen
Encoding: 45 45 17
Width: 600
GlyphClass: 2
Flags: W
LayerCount: 2
Fore
SplineSet
82 420 m 1
 532 420 l 1
 513 300 l 1
 63 300 l 1
 82 420 l 1
EndSplineSet
EndChar

StartChar: period
Encoding: 46 46 18
Width: 330
GlyphClass: 2
Flags: W
LayerCount: 2
Fore
SplineSet
23 82 m 0
 32 136 78 170 132 170 c 0
 180 170 214 143 214 98 c 0
 214 93 214 88 213 82 c 0
 204 28 158 -6 104 -6 c 0
 56 -6 22 21 22 66 c 0
 22 71 22 76 23 82 c 0
EndSplineSet
EndChar

StartChar: slash
Encoding: 47 47 19
Width: 510
GlyphClass: 2
Flags: W
LayerCount: 2
Fore
SplineSet
105 0 m 1
 -40 0 l 1
 -39 8 l 1
 409 780 l 1
 554 780 l 1
 552 772 l 1
 105 0 l 1
EndSplineSet
Substitution2: "LatinSlash.frac subtable" fraction
EndChar

StartChar: zero
Encoding: 48 48 20
Width: 660
GlyphClass: 2
Flags: W
LayerCount: 2
Fore
SplineSet
44 370 m 2
 50 410 l 2
 75 570 154 801 397 801 c 0
 584 801 630 665 630 529 c 0
 630 488 626 447 620 410 c 2
 614 370 l 2
 589 210 510 -21 267 -21 c 0
 80 -21 34 115 34 251 c 0
 34 292 38 333 44 370 c 2
286 101 m 0
 346 101 418 182 448 370 c 2
 454 410 l 2
 460 451 463 486 463 517 c 0
 463 629 425 679 378 679 c 0
 318 679 246 598 216 410 c 2
 210 370 l 2
 204 329 201 294 201 263 c 0
 201 151 239 101 286 101 c 0
EndSplineSet
Substitution2: "Latin.dnom subtable" zero.dnom
Substitution2: "Latin.numr subtable" zero.numr
Substitution2: "Latin.subs subtable" zero.subs
Substitution2: "Latin.sups subtable" zero.sups
Substitution2: "Latin.pnum subtable" zero.pnum
EndChar

StartChar: one
Encoding: 49 49 21
Width: 660
GlyphClass: 2
Flags: W
LayerCount: 2
Fore
SplineSet
120 630 m 1
 409 786 l 1
 527 774 l 1
 425 130 l 1
 566 130 l 1
 545 0 l 1
 60 0 l 1
 81 130 l 1
 261 130 l 1
 336 605 l 1
 171 512 l 1
 120 630 l 1
EndSplineSet
Substitution2: "Latin.dnom subtable" one.dnom
Substitution2: "Latin.numr subtable" one.numr
Substitution2: "Latin.subs subtable" one.subs
Substitution2: "Latin.sups subtable" one.sups
Substitution2: "Latin.pnum subtable" one.pnum
EndChar

StartChar: two
Encoding: 50 50 22
Width: 660
GlyphClass: 2
Flags: W
LayerCount: 2
Fore
SplineSet
5 60 m 0
 33 237 198 343 317 412 c 0
 400 460 458 504 468 570 c 0
 470 580 470 589 470 598 c 0
 470 645 447 679 381 679 c 0
 330 679 282 637 264 587 c 1
 96 603 l 1
 121 674 215 801 397 801 c 0
 597 801 633 681 633 605 c 0
 633 592 632 580 630 570 c 0
 609 440 485 356 404 308 c 0
 305 249 234 198 201 130 c 1
 566 130 l 1
 545 0 l 1
 4 0 l 1
 4 0 2 10 2 26 c 0
 2 36 3 47 5 60 c 0
EndSplineSet
Substitution2: "Latin.dnom subtable" two.dnom
Substitution2: "Latin.numr subtable" two.numr
Substitution2: "Latin.subs subtable" two.subs
Substitution2: "Latin.sups subtable" two.sups
Substitution2: "Latin.pnum subtable" two.pnum
EndChar

StartChar: three
Encoding: 51 51 23
Width: 660
GlyphClass: 2
Flags: W
LayerCount: 2
Fore
SplineSet
71 603 m 1
 96 674 190 801 372 801 c 0
 572 801 608 681 608 605 c 0
 608 592 607 580 605 570 c 0
 592 489 542 437 486 402 c 1
 557 370 578 311 578 260 c 0
 578 250 578 239 576 230 c 0
 563 149 494 -21 240 -21 c 0
 50 -21 -4 92 -13 137 c 1
 155 167 l 1
 161 140 181 99 259 99 c 0
 357 99 396 158 406 220 c 0
 407 229 408 237 408 245 c 0
 408 296 377 325 302 325 c 2
 186 325 l 1
 205 445 l 1
 305 445 l 2
 380 445 432 498 443 570 c 0
 445 580 445 589 445 598 c 0
 445 645 422 679 356 679 c 0
 305 679 257 637 239 587 c 1
 71 603 l 1
EndSplineSet
Substitution2: "Latin.dnom subtable" three.dnom
Substitution2: "Latin.numr subtable" three.numr
Substitution2: "Latin.subs subtable" three.subs
Substitution2: "Latin.sups subtable" three.sups
Substitution2: "Latin.pnum subtable" three.pnum
EndChar

StartChar: four
Encoding: 52 52 24
Width: 660
GlyphClass: 2
Flags: W
LayerCount: 2
Fore
SplineSet
329 180 m 1
 -4 180 l 1
 -4 260 l 1
 444 786 l 1
 583 774 l 1
 508 300 l 1
 633 300 l 1
 614 180 l 1
 489 180 l 1
 460 0 l 1
 300 0 l 1
 329 180 l 1
353 300 m 1
 394 560 l 1
 178 300 l 1
 353 300 l 1
EndSplineSet
Substitution2: "Latin.dnom subtable" four.dnom
Substitution2: "Latin.numr subtable" four.numr
Substitution2: "Latin.subs subtable" four.subs
Substitution2: "Latin.sups subtable" four.sups
Substitution2: "Latin.pnum subtable" four.pnum
EndChar

StartChar: five
Encoding: 53 53 25
Width: 660
GlyphClass: 2
Flags: W
LayerCount: 2
Fore
SplineSet
7 137 m 1
 175 167 l 1
 181 140 201 99 279 99 c 0
 377 99 418 168 429 240 c 0
 431 254 432 268 432 281 c 0
 432 339 408 381 338 381 c 0
 280 381 227 336 188 290 c 1
 187 291 l 1
 187 290 l 1
 77 354 l 1
 160 780 l 1
 637 780 l 1
 618 660 l 1
 296 660 l 1
 257 464 l 1
 292 482 336 496 390 496 c 0
 567 496 603 368 603 287 c 0
 603 273 602 260 600 250 c 0
 587 166 514 -21 260 -21 c 0
 70 -21 16 92 7 137 c 1
EndSplineSet
Substitution2: "Latin.dnom subtable" five.dnom
Substitution2: "Latin.numr subtable" five.numr
Substitution2: "Latin.subs subtable" five.subs
Substitution2: "Latin.sups subtable" five.sups
Substitution2: "Latin.pnum subtable" five.pnum
EndChar

StartChar: six
Encoding: 54 54 26
Width: 660
GlyphClass: 2
Flags: W
LayerCount: 2
Fore
SplineSet
53 301 m 2
 74 434 l 2
 92 549 151 801 411 801 c 0
 599 801 635 674 641 632 c 1
 475 606 l 1
 470 642 452 679 392 679 c 0
 318 679 270 599 244 459 c 1
 284 482 331 495 386 495 c 0
 532 495 602 402 602 287 c 0
 602 272 600 256 598 240 c 0
 577 107 467 -21 281 -21 c 0
 117 -21 46 75 46 218 c 0
 46 244 48 272 53 301 c 2
433 240 m 0
 435 254 436 267 436 279 c 0
 436 354 392 381 338 381 c 0
 289 381 240 352 215 280 c 1
 212 259 211 240 211 223 c 0
 211 116 262 101 300 101 c 0
 354 101 416 133 433 240 c 0
EndSplineSet
Substitution2: "Latin.dnom subtable" six.dnom
Substitution2: "Latin.numr subtable" six.numr
Substitution2: "Latin.subs subtable" six.subs
Substitution2: "Latin.sups subtable" six.sups
Substitution2: "Latin.pnum subtable" six.pnum
EndChar

StartChar: seven
Encoding: 55 55 27
Width: 660
GlyphClass: 2
Flags: W
LayerCount: 2
Fore
SplineSet
93 650 m 1
 114 780 l 1
 652 780 l 1
 649 689 l 1
 526 554 355 291 318 60 c 2
 308 0 l 1
 133 0 l 1
 143 60 l 2
 175 261 321 485 448 650 c 1
 93 650 l 1
EndSplineSet
Substitution2: "Latin.dnom subtable" seven.dnom
Substitution2: "Latin.numr subtable" seven.numr
Substitution2: "Latin.subs subtable" seven.subs
Substitution2: "Latin.sups subtable" seven.sups
Substitution2: "Latin.pnum subtable" seven.pnum
EndChar

StartChar: eight
Encoding: 56 56 28
Width: 660
GlyphClass: 2
Flags: W
LayerCount: 2
Fore
SplineSet
267 -21 m 0
 101 -21 5 68 5 178 c 0
 5 188 6 199 8 210 c 0
 26 323 124 374 188 401 c 1
 141 428 99 472 99 543 c 0
 99 553 99 563 101 574 c 0
 120 693 233 801 397 801 c 0
 545 801 624 713 624 608 c 0
 624 597 623 586 621 574 c 0
 607 484 544 432 480 401 c 1
 531 377 601 332 601 241 c 0
 601 231 600 221 598 210 c 0
 578 86 449 -21 267 -21 c 0
286 99 m 0
 362 99 416 134 428 210 c 0
 429 219 430 227 430 234 c 0
 430 287 397 310 365 325 c 0
 355 330 340 336 324 343 c 1
 306 336 289 330 277 325 c 0
 234 308 189 281 178 210 c 0
 177 202 176 193 176 186 c 0
 176 126 218 99 286 99 c 0
378 681 m 0
 334 681 279 655 266 574 c 0
 265 566 264 558 264 551 c 0
 264 505 290 480 313 470 c 0
 322 467 332 462 343 458 c 1
 356 462 366 467 375 470 c 0
 406 482 446 513 456 574 c 0
 457 583 458 592 458 600 c 0
 458 661 417 681 378 681 c 0
EndSplineSet
Substitution2: "Latin.dnom subtable" eight.dnom
Substitution2: "Latin.numr subtable" eight.numr
Substitution2: "Latin.subs subtable" eight.subs
Substitution2: "Latin.sups subtable" eight.sups
Substitution2: "Latin.pnum subtable" eight.pnum
EndChar

StartChar: nine
Encoding: 57 57 29
Width: 660
GlyphClass: 2
Flags: W
LayerCount: 2
Fore
SplineSet
611 479 m 2
 590 346 l 2
 572 231 513 -21 253 -21 c 0
 65 -21 28 106 22 148 c 1
 189 174 l 1
 194 138 212 101 272 101 c 0
 346 101 394 181 420 321 c 1
 380 298 332 285 277 285 c 0
 132 285 62 378 62 493 c 0
 62 508 64 524 66 540 c 0
 87 673 197 801 383 801 c 0
 547 801 618 705 618 562 c 0
 618 536 616 508 611 479 c 2
231 540 m 0
 229 526 228 513 228 501 c 0
 228 426 271 399 325 399 c 0
 374 399 423 428 448 500 c 1
 451 522 452 541 452 558 c 0
 452 665 402 679 364 679 c 0
 310 679 248 647 231 540 c 0
EndSplineSet
Substitution2: "Latin.dnom subtable" nine.dnom
Substitution2: "Latin.numr subtable" nine.numr
Substitution2: "Latin.subs subtable" nine.subs
Substitution2: "Latin.sups subtable" nine.sups
Substitution2: "Latin.pnum subtable" nine.pnum
EndChar

StartChar: colon
Encoding: 58 58 30
Width: 330
GlyphClass: 2
Flags: W
LayerCount: 2
Fore
SplineSet
23 82 m 0
 32 136 78 170 132 170 c 0
 180 170 214 143 214 98 c 0
 214 93 214 88 213 82 c 0
 204 28 158 -6 104 -6 c 0
 56 -6 22 21 22 66 c 0
 22 71 22 76 23 82 c 0
90 502 m 0
 99 556 144 590 198 590 c 0
 247 590 281 563 281 518 c 0
 281 513 281 507 280 502 c 0
 271 448 225 414 171 414 c 0
 123 414 89 441 89 486 c 0
 89 491 89 496 90 502 c 0
EndSplineSet
EndChar

StartChar: semicolon
Encoding: 59 59 31
Width: 330
GlyphClass: 2
Flags: W
LayerCount: 2
Fore
SplineSet
22 78 m 0
 30 131 72 170 132 170 c 0
 199 170 224 123 224 72 c 0
 224 63 224 54 222 45 c 0
 203 -78 105 -166 25 -210 c 1
 -13 -146 l 1
 35 -119 80 -74 104 -6 c 1
 99 -6 l 2
 53 -6 21 20 21 63 c 0
 21 68 21 73 22 78 c 0
90 502 m 0
 99 556 144 590 198 590 c 0
 247 590 281 563 281 518 c 0
 281 513 281 507 280 502 c 0
 271 448 225 414 171 414 c 0
 123 414 89 441 89 486 c 0
 89 491 89 496 90 502 c 0
EndSplineSet
EndChar

StartChar: less
Encoding: 60 60 32
Width: 600
GlyphClass: 2
Flags: W
LayerCount: 2
Fore
SplineSet
65 315 m 1
 72 360 l 1
 79 405 l 1
 540 660 l 1
 550 535 l 1
 222 360 l 1
 494 185 l 1
 445 60 l 1
 65 315 l 1
EndSplineSet
EndChar

StartChar: equal
Encoding: 61 61 33
Width: 600
GlyphClass: 2
Flags: W
LayerCount: 2
Fore
SplineSet
63 300 m 1
 513 300 l 1
 494 185 l 1
 44 185 l 1
 63 300 l 1
100 535 m 1
 550 535 l 1
 532 420 l 1
 82 420 l 1
 100 535 l 1
EndSplineSet
EndChar

StartChar: greater
Encoding: 62 62 34
Width: 600
GlyphClass: 2
Flags: W
LayerCount: 2
Fore
SplineSet
529 405 m 1
 522 360 l 1
 515 315 l 1
 55 60 l 1
 44 185 l 1
 372 360 l 1
 100 535 l 1
 150 660 l 1
 529 405 l 1
EndSplineSet
EndChar

StartChar: question
Encoding: 63 63 35
Width: 570
GlyphClass: 2
Flags: W
LayerCount: 2
Fore
SplineSet
143 82 m 0
 152 136 198 170 252 170 c 0
 300 170 334 143 334 98 c 0
 334 93 334 88 333 82 c 0
 324 28 278 -6 224 -6 c 0
 176 -6 142 21 142 66 c 0
 142 71 142 76 143 82 c 0
81 640 m 0
 97 744 204 831 357 831 c 0
 489 831 563 765 563 665 c 0
 563 654 562 642 560 630 c 0
 534 467 338 431 322 330 c 0
 321 324 321 318 321 313 c 0
 321 303 322 294 325 285 c 1
 193 270 l 1
 186 286 182 302 182 319 c 0
 182 326 183 333 184 340 c 0
 208 494 371 510 389 625 c 0
 390 633 391 641 391 648 c 0
 391 698 358 708 332 708 c 0
 293 708 259 689 251 640 c 0
 250 633 249 625 249 618 c 0
 249 608 250 598 253 590 c 1
 87 550 l 1
 82 569 79 590 79 610 c 0
 79 620 79 630 81 640 c 0
EndSplineSet
EndChar

StartChar: at
Encoding: 64 64 36
Width: 1020
GlyphClass: 2
Flags: W
LayerCount: 2
Fore
SplineSet
48 238 m 0
 88 489 307 780 622 780 c 0
 854 780 959 637 959 466 c 0
 959 443 957 419 953 395 c 0
 927 234 802 31 643 31 c 0
 586 31 561 57 552 88 c 1
 513 51 466 25 414 25 c 0
 287 25 248 110 248 190 c 0
 248 204 249 217 251 230 c 0
 272 363 397 567 608 567 c 0
 698 567 727 507 727 454 c 0
 727 446 726 438 725 431 c 0
 718 386 680 294 680 292 c 0
 660 232 648 187 643 157 c 0
 642 149 641 142 641 136 c 0
 641 120 646 111 656 111 c 0
 719 111 838 240 863 395 c 0
 866 417 868 438 868 458 c 0
 868 598 786 700 609 700 c 0
 368 700 174 467 138 238 c 0
 134 213 132 188 132 164 c 0
 132 9 219 -110 425 -110 c 0
 489 -110 575 -76 601 -62 c 1
 641 -128 l 1
 602 -150 506 -190 412 -190 c 0
 148 -190 41 -28 41 157 c 0
 41 184 44 211 48 238 c 0
428 115 m 0
 489 115 535 180 575 308 c 0
 575 309 611 405 615 431 c 0
 616 437 616 442 616 447 c 0
 616 473 603 477 594 477 c 0
 507 477 391 357 371 230 c 0
 369 218 368 207 368 197 c 0
 368 139 398 115 428 115 c 0
EndSplineSet
EndChar

StartChar: A
Encoding: 65 65 37
Width: 750
GlyphClass: 2
Flags: W
AnchorPoint: "LatinOgonek.mark" 610 0 basechar 0
AnchorPoint: "LatinBelow.mark" 315 0 basechar 0
AnchorPoint: "LatinAbove.mark" 339 150 basechar 0
LayerCount: 2
Fore
SplineSet
690 0 m 1
 500 0 l 1
 475 150 l 1
 203 150 l 1
 130 0 l 1
 -60 0 l 1
 -58 11 l 1
 369 780 l 1
 509 780 l 1
 692 11 l 1
 690 0 l 1
455 270 m 1
 405 566 l 1
 261 270 l 1
 455 270 l 1
EndSplineSet
EndChar

StartChar: B
Encoding: 66 66 38
Width: 745
GlyphClass: 2
Flags: W
AnchorPoint: "LatinBelow.mark" 260 0 basechar 0
AnchorPoint: "LatinAbove.mark" 284 150 basechar 0
LayerCount: 2
Fore
SplineSet
551 440 m 1
 636 410 685 353 685 271 c 0
 685 259 684 248 682 235 c 0
 658 85 509 -9 309 -9 c 0
 171 -9 15 0 15 0 c 1
 139 780 l 1
 139 780 286 789 410 789 c 0
 554 789 665 728 665 618 c 0
 665 609 665 600 663 590 c 0
 652 519 608 471 551 440 c 1
383 464 m 1
 429 470 484 502 496 575 c 0
 497 581 498 587 498 593 c 0
 498 648 451 670 371 670 c 0
 332 670 294 668 281 667 c 1
 248 462 l 1
 289 463 336 464 383 464 c 1
193 115 m 1
 224 113 269 111 308 111 c 0
 410 111 500 136 516 235 c 0
 517 243 518 251 518 258 c 0
 518 337 440 354 346 354 c 0
 307 354 261 352 230 350 c 1
 193 115 l 1
EndSplineSet
EndChar

StartChar: C
Encoding: 67 67 39
Width: 755
GlyphClass: 2
Flags: W
AnchorPoint: "LatinCedilla.mark" 352 0 basechar 0
AnchorPoint: "LatinBelow.mark" 350 0 basechar 0
AnchorPoint: "LatinAbove.mark" 374 150 basechar 0
LayerCount: 2
Fore
SplineSet
44 375 m 2
 49 405 l 2
 77 580 190 801 479 801 c 0
 691 801 760 664 762 582 c 1
 586 566 l 1
 585 616 545 673 459 673 c 0
 342 673 255 582 227 405 c 2
 222 375 l 2
 217 345 215 318 215 293 c 0
 215 170 272 107 369 107 c 0
 455 107 513 164 530 214 c 1
 701 198 l 1
 673 116 561 -21 349 -21 c 0
 107 -21 37 134 37 287 c 0
 37 317 39 347 44 375 c 2
EndSplineSet
EndChar

StartChar: D
Encoding: 68 68 40
Width: 770
GlyphClass: 2
Flags: W
AnchorPoint: "LatinBelow.mark" 260 0 basechar 0
AnchorPoint: "LatinAbove.mark" 284 150 basechar 0
LayerCount: 2
Fore
SplineSet
203 114 m 1
 222 114 242 113 258 113 c 0
 443 113 529 215 555 380 c 2
 558 400 l 2
 562 426 564 450 564 473 c 0
 564 595 502 667 346 667 c 0
 330 667 309 666 290 666 c 1
 203 114 l 1
139 780 m 1
 139 780 252 789 365 789 c 0
 644 789 734 634 734 473 c 0
 734 449 732 424 728 400 c 2
 725 380 l 2
 696 197 560 -9 239 -9 c 0
 126 -9 15 0 15 0 c 1
 139 780 l 1
EndSplineSet
EndChar

StartChar: E
Encoding: 69 69 41
Width: 675
GlyphClass: 2
Flags: W
AnchorPoint: "LatinOgonek.mark" 485 0 basechar 0
AnchorPoint: "LatinBelow.mark" 290 0 basechar 0
AnchorPoint: "LatinAbove.mark" 314 150 basechar 0
LayerCount: 2
Fore
SplineSet
15 0 m 1
 139 780 l 1
 684 780 l 1
 663 650 l 1
 288 650 l 1
 255 445 l 1
 590 445 l 1
 571 325 l 1
 236 325 l 1
 206 130 l 1
 596 130 l 1
 575 0 l 1
 15 0 l 1
EndSplineSet
EndChar

StartChar: F
Encoding: 70 70 42
Width: 640
GlyphClass: 2
Flags: W
AnchorPoint: "LatinBelow.mark" 100 0 basechar 0
AnchorPoint: "LatinAbove.mark" 304 150 basechar 0
LayerCount: 2
Fore
SplineSet
15 0 m 1
 139 780 l 1
 674 780 l 1
 653 650 l 1
 290 650 l 1
 258 450 l 1
 581 450 l 1
 561 320 l 1
 238 320 l 1
 187 0 l 1
 15 0 l 1
EndSplineSet
EndChar

StartChar: G
Encoding: 71 71 43
Width: 770
GlyphClass: 2
Flags: W
AnchorPoint: "LatinBelow.mark" 350 0 basechar 0
AnchorPoint: "LatinAbove.mark" 374 150 basechar 0
LayerCount: 2
Fore
SplineSet
400 285 m 1
 419 405 l 1
 729 405 l 1
 686 135 l 1
 634 66 523 -21 349 -21 c 0
 107 -21 37 134 37 287 c 0
 37 317 39 347 44 375 c 2
 49 405 l 2
 77 580 190 801 479 801 c 0
 691 801 760 664 762 582 c 1
 588 566 l 1
 587 616 547 675 459 675 c 0
 338 675 252 586 223 405 c 2
 218 375 l 2
 213 344 211 316 211 291 c 0
 211 166 268 105 369 105 c 0
 455 105 504 131 535 160 c 1
 555 285 l 1
 400 285 l 1
EndSplineSet
EndChar

StartChar: H
Encoding: 72 72 44
Width: 790
GlyphClass: 2
Flags: W
AnchorPoint: "LatinBelow.mark" 335 0 basechar 0
AnchorPoint: "LatinAbove.mark" 359 150 basechar 0
LayerCount: 2
Fore
SplineSet
15 0 m 1
 139 780 l 1
 309 780 l 1
 257 455 l 1
 557 455 l 1
 609 780 l 1
 779 780 l 1
 655 0 l 1
 485 0 l 1
 536 325 l 1
 236 325 l 1
 185 0 l 1
 15 0 l 1
EndSplineSet
EndChar

StartChar: I
Encoding: 73 73 45
Width: 320
GlyphClass: 2
Flags: W
AnchorPoint: "LatinOgonek.mark" 105 0 basechar 0
AnchorPoint: "LatinBelow.mark" 100 0 basechar 0
AnchorPoint: "LatinAbove.mark" 124 150 basechar 0
LayerCount: 2
Fore
SplineSet
15 0 m 1
 139 780 l 1
 309 780 l 1
 185 0 l 1
 15 0 l 1
EndSplineSet
EndChar

StartChar: J
Encoding: 74 74 46
Width: 520
GlyphClass: 2
Flags: W
AnchorPoint: "LatinBelow.mark" 170 0 basechar 0
AnchorPoint: "LatinAbove.mark" 324 150 basechar 0
LayerCount: 2
Fore
SplineSet
-32 143 m 1
 140 155 l 1
 140 109 160 99 181 99 c 0
 201 99 232 106 242 169 c 2
 339 780 l 1
 509 780 l 1
 412 169 l 2
 397 72 306 -21 162 -21 c 0
 20 -21 -32 67 -32 141 c 2
 -32 143 l 1
EndSplineSet
EndChar

StartChar: K
Encoding: 75 75 47
Width: 715
GlyphClass: 2
Flags: W
AnchorPoint: "LatinBelow.mark" 300 0 basechar 0
AnchorPoint: "LatinAbove.mark" 324 150 basechar 0
LayerCount: 2
Fore
SplineSet
15 0 m 1
 139 780 l 1
 303 780 l 1
 253 467 l 1
 569 780 l 1
 756 767 l 1
 755 759 l 1
 402 445 l 1
 666 8 l 1
 665 0 l 1
 466 0 l 1
 276 332 l 1
 224 287 l 1
 179 0 l 1
 15 0 l 1
EndSplineSet
EndChar

StartChar: L
Encoding: 76 76 48
Width: 570
GlyphClass: 2
Flags: W
AnchorPoint: "LatinBelow.mark" 260 0 basechar 0
AnchorPoint: "LatinAbove.mark" 124 150 basechar 0
LayerCount: 2
Fore
SplineSet
15 0 m 1
 139 780 l 1
 311 780 l 1
 208 130 l 1
 521 130 l 1
 500 0 l 1
 15 0 l 1
EndSplineSet
EndChar

StartChar: M
Encoding: 77 77 49
Width: 880
GlyphClass: 2
Flags: W
AnchorPoint: "LatinBelow.mark" 380 0 basechar 0
AnchorPoint: "LatinAbove.mark" 404 150 basechar 0
LayerCount: 2
Fore
SplineSet
745 0 m 1
 577 0 l 1
 651 466 l 1
 451 195 l 1
 371 195 l 1
 257 466 l 1
 183 0 l 1
 15 0 l 1
 136 765 l 1
 279 780 l 1
 438 368 l 1
 729 780 l 1
 866 765 l 1
 745 0 l 1
EndSplineSet
EndChar

StartChar: N
Encoding: 78 78 50
Width: 790
GlyphClass: 2
Flags: W
AnchorPoint: "LatinBelow.mark" 335 0 basechar 0
AnchorPoint: "LatinAbove.mark" 359 150 basechar 0
LayerCount: 2
Fore
SplineSet
15 0 m 1
 136 765 l 1
 284 780 l 1
 532 273 l 1
 613 780 l 1
 779 780 l 1
 655 0 l 1
 510 0 l 1
 261 507 l 1
 181 0 l 1
 15 0 l 1
EndSplineSet
EndChar

StartChar: O
Encoding: 79 79 51
Width: 820
GlyphClass: 2
Flags: W
AnchorPoint: "LatinOgonek.mark" 420 0 basechar 0
AnchorPoint: "LatinBelow.mark" 350 0 basechar 0
AnchorPoint: "LatinAbove.mark" 374 150 basechar 0
LayerCount: 2
Fore
SplineSet
44 373 m 2
 49 407 l 2
 77 581 188 801 477 801 c 0
 718 801 786 649 786 497 c 0
 786 467 784 436 779 407 c 2
 774 373 l 2
 746 199 636 -21 347 -21 c 0
 106 -21 37 132 37 284 c 0
 37 314 39 344 44 373 c 2
366 104 m 0
 487 104 572 197 600 373 c 2
 605 407 l 2
 610 437 612 465 612 490 c 0
 612 612 557 676 457 676 c 0
 336 676 251 583 223 407 c 2
 218 373 l 2
 213 343 211 315 211 290 c 0
 211 168 266 104 366 104 c 0
EndSplineSet
EndChar

StartChar: P
Encoding: 80 80 52
Width: 710
GlyphClass: 2
Flags: W
AnchorPoint: "LatinBelow.mark" 100 0 basechar 0
AnchorPoint: "LatinAbove.mark" 324 150 basechar 0
LayerCount: 2
Fore
SplineSet
250 424 m 1
 274 423 305 421 337 421 c 0
 439 421 527 446 543 545 c 0
 544 553 545 562 545 569 c 0
 545 648 469 669 376 669 c 0
 344 669 312 667 288 666 c 1
 250 424 l 1
231 303 m 1
 183 0 l 1
 15 0 l 1
 64 310 l 1
 139 780 l 1
 139 780 277 789 415 789 c 0
 598 789 714 710 714 582 c 0
 714 570 713 558 711 545 c 0
 687 395 538 301 338 301 c 0
 301 301 265 302 231 303 c 1
EndSplineSet
EndChar

StartChar: Q
Encoding: 81 81 53
Width: 820
GlyphClass: 2
Flags: W
AnchorPoint: "LatinBelow.mark" 350 0 basechar 0
AnchorPoint: "LatinAbove.mark" 374 150 basechar 0
LayerCount: 2
Fore
SplineSet
355 250 m 1
 433 335 l 1
 555 227 l 1
 575 266 591 315 600 373 c 2
 605 407 l 2
 610 437 612 465 612 490 c 0
 612 612 557 676 457 676 c 0
 336 676 251 583 223 407 c 2
 218 373 l 2
 213 343 211 315 211 290 c 0
 211 168 266 104 366 104 c 0
 407 104 446 115 478 136 c 1
 355 250 l 1
44 373 m 2
 49 407 l 2
 77 581 188 801 477 801 c 0
 718 801 786 649 786 497 c 0
 786 467 784 436 779 407 c 2
 774 373 l 2
 761 292 730 200 671 126 c 1
 758 49 l 1
 673 -45 l 1
 579 42 l 1
 519 3 443 -21 347 -21 c 0
 106 -21 37 132 37 284 c 0
 37 314 39 344 44 373 c 2
EndSplineSet
EndChar

StartChar: R
Encoding: 82 82 54
Width: 730
GlyphClass: 2
Flags: W
AnchorPoint: "LatinBelow.mark" 300 0 basechar 0
AnchorPoint: "LatinAbove.mark" 324 150 basechar 0
LayerCount: 2
Fore
SplineSet
268 302 m 1
 256 302 243 303 231 303 c 1
 183 0 l 1
 15 0 l 1
 64 310 l 1
 139 780 l 1
 139 780 277 789 415 789 c 0
 598 789 714 710 714 582 c 0
 714 570 713 558 711 545 c 0
 692 425 593 341 451 312 c 1
 656 8 l 1
 655 0 l 1
 463 0 l 1
 268 302 l 1
250 424 m 1
 274 423 305 421 337 421 c 0
 439 421 527 446 543 545 c 0
 544 553 545 562 545 569 c 0
 545 648 469 669 376 669 c 0
 344 669 312 667 288 666 c 1
 250 424 l 1
EndSplineSet
EndChar

StartChar: S
Encoding: 83 83 55
Width: 710
GlyphClass: 2
Flags: W
AnchorPoint: "LatinCedilla.mark" 320 0 basechar 0
AnchorPoint: "LatinBelow.mark" 295 0 basechar 0
AnchorPoint: "LatinAbove.mark" 319 150 basechar 0
LayerCount: 2
Fore
SplineSet
9 184 m 1
 181 208 l 1
 182 156 222 101 311 101 c 0
 410 101 467 139 478 207 c 0
 479 213 479 220 479 225 c 0
 479 274 442 289 415 297 c 0
 361 312 281 340 227 360 c 0
 164 385 84 437 84 537 c 0
 84 547 85 558 87 569 c 0
 108 701 245 801 422 801 c 0
 611 801 682 678 685 600 c 1
 513 576 l 1
 512 628 474 679 403 679 c 0
 322 679 263 639 253 577 c 0
 252 573 252 568 252 564 c 0
 252 524 287 511 323 496 c 0
 372 478 450 452 497 437 c 0
 571 413 647 360 647 254 c 0
 647 242 646 229 644 215 c 0
 623 82 487 -21 292 -21 c 0
 87 -21 11 104 9 184 c 1
EndSplineSet
EndChar

StartChar: T
Encoding: 84 84 56
Width: 620
GlyphClass: 2
Flags: W
AnchorPoint: "LatinCedilla.mark" 260 0 basechar 0
AnchorPoint: "LatinBelow.mark" 250 0 basechar 0
AnchorPoint: "LatinAbove.mark" 274 150 basechar 0
LayerCount: 2
Fore
SplineSet
59 655 m 1
 79 780 l 1
 669 780 l 1
 649 655 l 1
 439 655 l 1
 335 0 l 1
 165 0 l 1
 269 655 l 1
 59 655 l 1
EndSplineSet
EndChar

StartChar: U
Encoding: 85 85 57
Width: 770
GlyphClass: 2
Flags: W
AnchorPoint: "LatinOgonek.mark" 420 0 basechar 0
AnchorPoint: "LatinBelow.mark" 325 0 basechar 0
AnchorPoint: "LatinAbove.mark" 349 150 basechar 0
LayerCount: 2
Fore
SplineSet
44 246 m 2
 129 780 l 1
 301 780 l 1
 216 246 l 2
 214 234 213 224 213 214 c 0
 213 135 267 103 341 103 c 0
 424 103 496 143 512 246 c 2
 597 780 l 1
 769 780 l 1
 684 246 l 2
 661 99 519 -21 322 -21 c 0
 143 -21 41 78 41 206 c 0
 41 219 42 233 44 246 c 2
EndSplineSet
EndChar

StartChar: V
Encoding: 86 86 58
Width: 750
GlyphClass: 2
Flags: W
AnchorPoint: "LatinBelow.mark" 315 0 basechar 0
AnchorPoint: "LatinAbove.mark" 339 150 basechar 0
LayerCount: 2
Fore
SplineSet
64 754 m 1
 66 765 l 1
 269 780 l 1
 351 228 l 1
 609 780 l 1
 806 765 l 1
 804 754 l 1
 385 0 l 1
 245 0 l 1
 64 754 l 1
EndSplineSet
EndChar

StartChar: W
Encoding: 87 87 59
Width: 1060
GlyphClass: 2
Flags: W
AnchorPoint: "LatinBelow.mark" 470 0 basechar 0
AnchorPoint: "LatinAbove.mark" 494 150 basechar 0
LayerCount: 2
Fore
SplineSet
69 754 m 1
 71 764 l 1
 259 780 l 1
 300 247 l 1
 520 760 l 1
 660 760 l 1
 718 247 l 1
 929 780 l 1
 1111 764 l 1
 1109 754 l 1
 765 0 l 1
 620 0 l 1
 552 518 l 1
 320 0 l 1
 175 0 l 1
 69 754 l 1
EndSplineSet
EndChar

StartChar: X
Encoding: 88 88 60
Width: 740
GlyphClass: 2
Flags: W
AnchorPoint: "LatinBelow.mark" 310 0 basechar 0
AnchorPoint: "LatinAbove.mark" 334 150 basechar 0
LayerCount: 2
Fore
SplineSet
99 754 m 1
 101 764 l 1
 292 780 l 1
 393 526 l 1
 576 780 l 1
 761 764 l 1
 759 754 l 1
 471 414 l 1
 691 8 l 1
 690 0 l 1
 493 0 l 1
 353 274 l 1
 127 0 l 1
 -70 0 l 1
 -69 8 l 1
 281 414 l 1
 99 754 l 1
EndSplineSet
EndChar

StartChar: Y
Encoding: 89 89 61
Width: 670
GlyphClass: 2
Flags: W
AnchorPoint: "LatinBelow.mark" 275 0 basechar 0
AnchorPoint: "LatinAbove.mark" 299 150 basechar 0
LayerCount: 2
Fore
SplineSet
54 754 m 1
 56 765 l 1
 249 780 l 1
 346 450 l 1
 549 780 l 1
 736 765 l 1
 734 754 l 1
 406 290 l 1
 360 0 l 1
 190 0 l 1
 236 290 l 1
 54 754 l 1
EndSplineSet
EndChar

StartChar: Z
Encoding: 90 90 62
Width: 670
GlyphClass: 2
Flags: W
AnchorPoint: "LatinBelow.mark" 275 0 basechar 0
AnchorPoint: "LatinAbove.mark" 299 150 basechar 0
LayerCount: 2
Fore
SplineSet
-25 96 m 1
 456 650 l 1
 93 650 l 1
 114 780 l 1
 691 780 l 1
 687 684 l 1
 209 130 l 1
 611 130 l 1
 590 0 l 1
 -28 0 l 1
 -25 96 l 1
EndSplineSet
EndChar

StartChar: bracketleft
Encoding: 91 91 63
Width: 435
GlyphClass: 2
Flags: W
LayerCount: 2
Fore
SplineSet
26 -120 m 1
 188 900 l 1
 443 900 l 1
 427 805 l 1
 307 805 l 1
 176 -25 l 1
 294 -25 l 1
 279 -120 l 1
 26 -120 l 1
EndSplineSet
EndChar

StartChar: backslash
Encoding: 92 92 64
Width: 510
GlyphClass: 2
Flags: W
LayerCount: 2
Fore
SplineSet
295 0 m 1
 92 772 l 1
 94 780 l 1
 219 780 l 1
 421 8 l 1
 420 0 l 1
 295 0 l 1
EndSplineSet
EndChar

StartChar: bracketright
Encoding: 93 93 65
Width: 435
GlyphClass: 2
Flags: W
LayerCount: 2
Fore
SplineSet
413 900 m 1
 251 -120 l 1
 -4 -120 l 1
 11 -25 l 1
 131 -25 l 1
 262 805 l 1
 144 805 l 1
 160 900 l 1
 413 900 l 1
EndSplineSet
EndChar

StartChar: asciicircum
Encoding: 94 94 66
Width: 630
GlyphClass: 2
Flags: W
LayerCount: 2
Fore
SplineSet
49 595 m 1
 368 900 l 1
 428 900 l 1
 649 595 l 1
 561 540 l 1
 371 732 l 1
 121 540 l 1
 49 595 l 1
EndSplineSet
EndChar

StartChar: underscore
Encoding: 95 95 67
Width: 600
GlyphClass: 2
Flags: W
LayerCount: 2
Fore
SplineSet
-60 0 m 1
 540 0 l 1
 521 -120 l 1
 -79 -120 l 1
 -60 0 l 1
EndSplineSet
EndChar

StartChar: grave
Encoding: 96 96 68
Width: 390
GlyphClass: 2
Flags: W
LayerCount: 2
Fore
SplineSet
409 595 m 1
 321 540 l 1
 53 811 l 1
 188 900 l 1
 409 595 l 1
EndSplineSet
EndChar

StartChar: a
Encoding: 97 97 69
Width: 625
GlyphClass: 2
Flags: W
AnchorPoint: "LatinOgonek.mark" 455 0 basechar 0
AnchorPoint: "LatinBelow.mark" 270 0 basechar 0
AnchorPoint: "LatinAbove.mark" 250 0 basechar 0
LayerCount: 2
Fore
SplineSet
8 174 m 0
 20 249 95 330 245 330 c 0
 297 330 348 327 391 323 c 1
 405 412 l 2
 406 420 407 428 407 435 c 0
 407 490 367 507 320 507 c 0
 273 507 230 481 211 415 c 1
 53 427 l 1
 81 519 175 621 338 621 c 0
 481 621 562 544 562 443 c 0
 562 433 562 422 560 412 c 2
 520 155 l 2
 518 144 517 136 517 128 c 0
 517 102 529 92 564 87 c 1
 507 -16 l 1
 472 -11 411 2 390 56 c 1
 348 15 288 -16 207 -16 c 0
 76 -16 5 45 5 140 c 0
 5 151 6 162 8 174 c 0
384 230 m 1
 344 235 291 239 240 239 c 0
 212 239 170 222 162 172 c 0
 161 165 160 158 160 152 c 0
 160 97 203 79 243 79 c 0
 320 79 359 135 380 203 c 1
 384 230 l 1
EndSplineSet
Substitution2: "Latin.ss20 subtable" uni0251
Substitution2: "Latin.ss19 subtable" uni0251
EndChar

StartChar: b
Encoding: 98 98 70
Width: 675
GlyphClass: 2
Flags: W
AnchorPoint: "LatinBelow.mark" 300 0 basechar 0
AnchorPoint: "LatinAbove.mark" 104 180 basechar 0
LayerCount: 2
Fore
SplineSet
146 0 m 1
 10 0 l 1
 138 810 l 1
 293 810 l 1
 250 539 l 1
 294 584 351 616 418 616 c 0
 577 616 629 491 629 374 c 0
 629 352 627 331 624 310 c 2
 621 290 l 2
 600 160 506 -16 317 -16 c 0
 244 -16 198 22 168 73 c 1
 146 0 l 1
223 364 m 1
 202 236 l 1
 207 157 245 100 316 100 c 0
 381 100 439 153 461 290 c 2
 464 310 l 2
 468 335 470 357 470 377 c 0
 470 465 432 500 379 500 c 0
 308 500 254 443 223 364 c 1
EndSplineSet
EndChar

StartChar: c
Encoding: 99 99 71
Width: 605
GlyphClass: 2
Flags: W
AnchorPoint: "LatinCedilla.mark" 270 0 basechar 0
AnchorPoint: "LatinBelow.mark" 270 0 basechar 0
AnchorPoint: "LatinAbove.mark" 270 0 basechar 0
LayerCount: 2
Fore
SplineSet
391 168 m 1
 549 154 l 1
 528 90 440 -21 267 -21 c 0
 72 -21 20 102 20 218 c 0
 20 242 22 266 26 288 c 2
 29 312 l 1
 50 442 132 621 368 621 c 0
 541 621 595 510 596 446 c 1
 432 432 l 1
 431 468 401 505 350 505 c 0
 280 505 214 446 193 312 c 1
 190 288 l 2
 187 266 185 246 185 228 c 0
 185 137 227 95 285 95 c 0
 336 95 378 132 391 168 c 1
EndSplineSet
EndChar

StartChar: d
Encoding: 100 100 72
Width: 680
GlyphClass: 2
Flags: W
AnchorPoint: "LatinBelow.mark" 300 0 basechar 0
AnchorPoint: "LatinAbove.mark" 494 180 basechar 0
LayerCount: 2
Fore
SplineSet
26 290 m 2
 29 310 l 2
 50 440 144 616 333 616 c 0
 400 616 445 584 475 539 c 1
 518 810 l 1
 673 810 l 1
 570 155 l 2
 568 144 567 136 567 128 c 0
 567 102 579 92 614 87 c 1
 557 -16 l 1
 514 -10 433 8 433 98 c 2
 433 100 l 1
 385 36 317 -16 232 -16 c 0
 73 -16 21 109 21 226 c 0
 21 248 23 269 26 290 c 2
448 364 m 1
 443 443 405 500 334 500 c 0
 269 500 211 447 189 310 c 2
 186 290 l 2
 182 265 180 243 180 223 c 0
 180 135 218 100 271 100 c 0
 342 100 396 157 427 236 c 1
 448 364 l 1
EndSplineSet
EndChar

StartChar: e
Encoding: 101 101 73
Width: 640
GlyphClass: 2
Flags: W
AnchorPoint: "LatinOgonek.mark" 350 0 basechar 0
AnchorPoint: "LatinBelow.mark" 270 0 basechar 0
AnchorPoint: "LatinAbove.mark" 270 0 basechar 0
LayerCount: 2
Fore
SplineSet
25 287 m 2
 30 313 l 1
 51 444 138 621 366 621 c 0
 531 621 600 514 600 401 c 0
 600 386 599 372 597 357 c 0
 592 326 583 295 572 265 c 1
 179 265 l 1
 177 251 177 237 177 225 c 0
 177 134 218 91 282 91 c 0
 341 91 385 131 397 167 c 1
 549 153 l 1
 527 87 436 -21 265 -21 c 0
 71 -21 19 101 19 218 c 0
 19 242 21 265 25 287 c 2
197 365 m 1
 448 365 l 1
 450 378 451 390 451 401 c 0
 451 480 406 509 349 509 c 0
 283 509 225 462 197 365 c 1
EndSplineSet
EndChar

StartChar: f
Encoding: 102 102 74
Width: 400
GlyphClass: 2
Flags: W
AnchorPoint: "LatinBelow.mark" 120 0 basechar 0
AnchorPoint: "LatinAbove.mark" 239 180 basechar 0
LayerCount: 2
Fore
SplineSet
39 500 m 1
 55 600 l 1
 135 600 l 1
 146 667 l 2
 155 725 209 831 355 831 c 0
 439 831 487 791 499 780 c 1
 419 695 l 1
 408 703 382 721 349 721 c 0
 325 721 306 701 301 667 c 2
 290 600 l 1
 425 600 l 1
 409 500 l 1
 279 500 l 1
 200 0 l 1
 40 0 l 1
 119 500 l 1
 39 500 l 1
EndSplineSet
EndChar

StartChar: g
Encoding: 103 103 75
Width: 670
GlyphClass: 2
Flags: W
AnchorPoint: "LatinBelow.mark" 271 -180 basechar 0
AnchorPoint: "LatinAbove.mark" 300 0 basechar 0
LayerCount: 2
Fore
SplineSet
30 315 m 0
 50 440 144 616 333 616 c 0
 406 616 452 578 482 527 c 1
 504 600 l 1
 640 600 l 1
 543 -15 l 2
 524 -135 408 -231 250 -231 c 0
 96 -231 26 -159 16 -117 c 1
 171 -75 l 1
 175 -91 202 -122 268 -122 c 0
 331 -122 381 -93 393 -15 c 2
 411 98 l 1
 366 50 307 14 237 14 c 0
 77 14 25 140 25 255 c 0
 25 276 27 296 30 315 c 0
448 364 m 1
 443 443 405 500 334 500 c 0
 269 500 211 447 190 315 c 0
 186 292 185 271 185 252 c 0
 185 166 222 130 276 130 c 0
 347 130 401 187 432 266 c 1
 448 364 l 1
EndSplineSet
Substitution2: "Latin.ss20 subtable" g.alt
Substitution2: "Latin.ss18 subtable" g.alt
EndChar

StartChar: h
Encoding: 104 104 76
Width: 665
GlyphClass: 2
Flags: W
AnchorPoint: "LatinBelow.mark" 300 0 basechar 0
AnchorPoint: "LatinAbove.mark" 104 180 basechar 0
LayerCount: 2
Fore
SplineSet
10 0 m 1
 138 810 l 1
 293 810 l 1
 241 482 l 1
 295 555 372 616 473 616 c 0
 577 616 618 539 618 452 c 0
 618 437 616 421 614 406 c 2
 550 0 l 1
 390 0 l 1
 453 400 l 2
 455 412 456 422 456 431 c 0
 456 482 428 490 408 490 c 0
 341 490 254 403 218 303 c 1
 170 0 l 1
 10 0 l 1
EndSplineSet
EndChar

StartChar: i
Encoding: 105 105 77
Width: 300
GlyphClass: 3
Flags: W
AnchorPoint: "LatinOgonek.mark" 95 0 basechar 0
AnchorPoint: "LatinBelow.mark" 90 0 basechar 0
AnchorPoint: "LatinAbove.mark" 119 180 basechar 0
LayerCount: 2
Fore
SplineSet
119 780 m 0
 128 834 173 868 227 868 c 0
 276 868 310 841 310 796 c 0
 310 791 310 785 309 780 c 0
 300 726 254 692 200 692 c 0
 152 692 118 719 118 764 c 0
 118 769 118 774 119 780 c 0
10 0 m 1
 105 600 l 1
 265 600 l 1
 170 0 l 1
 10 0 l 1
EndSplineSet
Substitution2: "Latin.ij.dotless subtable" dotlessi
Ligature2: "Latin.ij subtable" dotlessi uni0307
EndChar

StartChar: j
Encoding: 106 106 78
Width: 310
GlyphClass: 3
Flags: W
AnchorPoint: "LatinBelow.mark" 61 -180 basechar 0
AnchorPoint: "LatinAbove.mark" 119 180 basechar 0
LayerCount: 2
Fore
SplineSet
129 780 m 0
 138 834 183 868 237 868 c 0
 286 868 320 841 320 796 c 0
 320 791 320 785 319 780 c 0
 310 726 262 692 208 692 c 0
 160 692 128 719 128 763 c 0
 128 768 128 774 129 780 c 0
-61 -226 m 1
 -95 -125 l 1
 -27 -109 7 -82 19 -5 c 2
 115 600 l 1
 275 600 l 1
 178 -15 l 2
 159 -136 46 -204 -61 -226 c 1
EndSplineSet
Substitution2: "Latin.ij.dotless subtable" uni0237
Ligature2: "Latin.ij subtable" uni0237 uni0307
Ligature2: "Latin.ij subtable" uni0237 uni200D uni0307
Ligature2: "Latin.ij subtable" dotlessi uni200D uni0307
EndChar

StartChar: k
Encoding: 107 107 79
Width: 605
GlyphClass: 2
Flags: W
AnchorPoint: "LatinBelow.mark" 300 0 basechar 0
AnchorPoint: "LatinAbove.mark" 104 180 basechar 0
LayerCount: 2
Fore
SplineSet
20 0 m 1
 148 810 l 1
 300 810 l 1
 233 382 l 1
 455 600 l 1
 628 590 l 1
 627 584 l 1
 351 341 l 1
 556 6 l 1
 555 0 l 1
 373 0 l 1
 234 238 l 1
 206 213 l 1
 172 0 l 1
 20 0 l 1
EndSplineSet
EndChar

StartChar: l
Encoding: 108 108 80
Width: 315
GlyphClass: 2
Flags: W
AnchorPoint: "LatinBelow.mark" 130 0 basechar 0
AnchorPoint: "LatinAbove.mark" 109 180 basechar 0
LayerCount: 2
Fore
SplineSet
32 140 m 2
 138 810 l 1
 298 810 l 1
 195 155 l 2
 194 149 194 144 194 139 c 0
 194 105 216 92 269 87 c 1
 222 -16 l 1
 142 -10 30 11 30 114 c 0
 30 122 31 131 32 140 c 2
EndSplineSet
EndChar

StartChar: m
Encoding: 109 109 81
Width: 945
GlyphClass: 2
Flags: W
AnchorPoint: "LatinBelow.mark" 420 0 basechar 0
AnchorPoint: "LatinAbove.mark" 420 0 basechar 0
LayerCount: 2
Fore
SplineSet
94 591 m 1
 241 603 l 1
 238 506 l 1
 282 568 344 616 428 616 c 0
 512 616 552 566 564 501 c 1
 608 565 671 616 758 616 c 0
 860 616 898 541 898 456 c 0
 898 440 897 423 894 406 c 2
 830 0 l 1
 670 0 l 1
 733 400 l 2
 735 413 736 424 736 434 c 0
 736 482 712 490 693 490 c 0
 639 490 583 415 551 323 c 1
 500 0 l 1
 340 0 l 1
 403 400 l 2
 405 413 406 424 406 434 c 0
 406 482 382 490 363 490 c 0
 309 490 253 415 221 323 c 1
 170 0 l 1
 10 0 l 1
 77 420 l 1
 94 591 l 1
EndSplineSet
EndChar

StartChar: n
Encoding: 110 110 82
Width: 655
GlyphClass: 2
Flags: W
AnchorPoint: "LatinBelow.mark" 300 0 basechar 0
AnchorPoint: "LatinAbove.mark" 270 0 basechar 0
LayerCount: 2
Fore
SplineSet
10 0 m 1
 77 420 l 1
 94 591 l 1
 241 603 l 1
 238 484 l 1
 289 556 363 616 463 616 c 0
 567 616 608 539 608 452 c 0
 608 437 606 421 604 406 c 2
 540 0 l 1
 380 0 l 1
 443 400 l 2
 445 412 446 422 446 431 c 0
 446 482 418 490 398 490 c 0
 331 490 253 405 218 305 c 1
 170 0 l 1
 10 0 l 1
EndSplineSet
Substitution2: "Latin.sups subtable" n.sups
EndChar

StartChar: o
Encoding: 111 111 83
Width: 660
GlyphClass: 2
Flags: W
AnchorPoint: "LatinOgonek.mark" 340 0 basechar 0
AnchorPoint: "LatinBelow.mark" 270 0 basechar 0
AnchorPoint: "LatinAbove.mark" 270 0 basechar 0
LayerCount: 2
Fore
SplineSet
25 287 m 2
 30 313 l 2
 51 443 133 621 368 621 c 0
 563 621 616 498 616 382 c 0
 616 358 614 335 610 313 c 2
 605 287 l 2
 584 157 502 -21 267 -21 c 0
 72 -21 19 102 19 218 c 0
 19 242 21 265 25 287 c 2
285 93 m 0
 360 93 424 153 445 287 c 1
 450 313 l 2
 453 335 455 355 455 373 c 0
 455 465 413 507 350 507 c 0
 275 507 211 447 190 313 c 1
 185 287 l 2
 182 265 180 245 180 227 c 0
 180 135 222 93 285 93 c 0
EndSplineSet
EndChar

StartChar: p
Encoding: 112 112 84
Width: 675
GlyphClass: 2
Flags: W
AnchorPoint: "LatinBelow.mark" 61 -180 basechar 0
AnchorPoint: "LatinAbove.mark" 270 0 basechar 0
LayerCount: 2
Fore
SplineSet
621 290 m 2
 600 160 506 -16 317 -16 c 0
 253 -16 208 13 179 55 c 1
 137 -210 l 1
 -23 -210 l 1
 77 420 l 1
 94 591 l 1
 241 603 l 1
 238 526 l 1
 284 577 345 616 418 616 c 0
 577 616 629 491 629 374 c 0
 629 352 627 331 624 310 c 2
 621 290 l 2
204 217 m 1
 214 148 250 100 316 100 c 0
 381 100 439 153 461 290 c 2
 464 310 l 2
 468 335 470 357 470 377 c 0
 470 465 432 500 379 500 c 0
 313 500 263 452 231 383 c 1
 204 217 l 1
EndSplineSet
EndChar

StartChar: q
Encoding: 113 113 85
Width: 675
GlyphClass: 2
Flags: W
AnchorPoint: "LatinBelow.mark" 437 -240 basechar 0
AnchorPoint: "LatinAbove.mark" 300 0 basechar 0
LayerCount: 2
Fore
SplineSet
504 600 m 1
 640 600 l 1
 512 -210 l 1
 357 -210 l 1
 400 61 l 1
 356 16 299 -16 232 -16 c 0
 73 -16 21 109 21 226 c 0
 21 248 23 269 26 290 c 2
 29 310 l 2
 50 440 144 616 333 616 c 0
 406 616 452 578 482 527 c 1
 504 600 l 1
427 236 m 1
 448 364 l 1
 443 443 405 500 334 500 c 0
 269 500 211 447 189 310 c 2
 186 290 l 2
 182 265 180 243 180 223 c 0
 180 135 218 100 271 100 c 0
 342 100 396 157 427 236 c 1
EndSplineSet
EndChar

StartChar: r
Encoding: 114 114 86
Width: 435
GlyphClass: 2
Flags: W
AnchorPoint: "LatinBelow.mark" 110 0 basechar 0
AnchorPoint: "LatinAbove.mark" 180 0 basechar 0
LayerCount: 2
Fore
SplineSet
88 588 m 1
 225 603 l 1
 238 483 l 1
 275 555 332 616 417 616 c 0
 445 616 467 609 485 599 c 1
 404 469 l 1
 394 476 383 480 367 480 c 0
 318 480 269 407 240 314 c 1
 190 0 l 1
 30 0 l 1
 101 450 l 1
 88 588 l 1
EndSplineSet
EndChar

StartChar: s
Encoding: 115 115 87
Width: 570
GlyphClass: 2
Flags: W
AnchorPoint: "LatinCedilla.mark" 250 0 basechar 0
AnchorPoint: "LatinBelow.mark" 225 0 basechar 0
AnchorPoint: "LatinAbove.mark" 225 0 basechar 0
LayerCount: 2
Fore
SplineSet
-7 143 m 1
 151 163 l 1
 151 124 182 91 245 91 c 0
 306 91 347 118 354 162 c 0
 355 166 355 170 355 173 c 0
 355 207 326 220 309 225 c 0
 267 238 208 254 168 270 c 0
 116 290 52 324 52 407 c 0
 52 416 52 425 54 435 c 0
 70 539 178 621 323 621 c 0
 481 621 536 524 538 460 c 1
 380 440 l 1
 380 479 359 509 306 509 c 0
 254 509 214 483 207 441 c 0
 207 439 206 436 206 434 c 0
 206 406 234 392 256 385 c 0
 295 372 356 354 387 344 c 0
 448 324 510 290 510 203 c 0
 510 192 509 180 507 168 c 0
 490 62 379 -21 222 -21 c 0
 53 -21 -5 77 -7 143 c 1
EndSplineSet
EndChar

StartChar: t
Encoding: 116 116 88
Width: 415
GlyphClass: 2
Flags: W
AnchorPoint: "LatinCedilla.mark" 210 0 basechar 0
AnchorPoint: "LatinBelow.mark" 220 0 basechar 0
AnchorPoint: "LatinAbove.mark" 139 120 basechar 0
LayerCount: 2
Fore
SplineSet
39 500 m 1
 55 600 l 1
 141 600 l 1
 161 723 l 1
 313 735 l 1
 292 600 l 1
 425 600 l 1
 409 500 l 1
 279 500 l 1
 226 164 l 2
 224 151 223 141 223 132 c 0
 223 105 233 98 255 98 c 0
 290 98 328 111 342 119 c 1
 362 15 l 1
 327 -1 279 -16 215 -16 c 0
 122 -16 59 18 59 105 c 0
 59 116 60 128 62 140 c 2
 119 500 l 1
 39 500 l 1
EndSplineSet
EndChar

StartChar: u
Encoding: 117 117 89
Width: 620
GlyphClass: 2
Flags: W
AnchorPoint: "LatinOgonek.mark" 320 0 basechar 0
AnchorPoint: "LatinBelow.mark" 250 0 basechar 0
AnchorPoint: "LatinAbove.mark" 250 0 basechar 0
LayerCount: 2
Fore
SplineSet
21 194 m 2
 85 600 l 1
 245 600 l 1
 181 194 l 2
 180 185 179 177 179 169 c 0
 179 112 217 93 265 93 c 0
 319 93 369 118 381 194 c 2
 445 600 l 1
 605 600 l 1
 541 194 l 2
 523 78 409 -21 247 -21 c 0
 100 -21 19 61 19 163 c 0
 19 173 19 183 21 194 c 2
EndSplineSet
EndChar

StartChar: v
Encoding: 118 118 90
Width: 600
GlyphClass: 2
Flags: W
AnchorPoint: "LatinBelow.mark" 240 0 basechar 0
AnchorPoint: "LatinAbove.mark" 240 0 basechar 0
LayerCount: 2
Fore
SplineSet
32 580 m 1
 33 588 l 1
 210 600 l 1
 272 205 l 1
 460 600 l 1
 633 588 l 1
 632 580 l 1
 305 0 l 1
 175 0 l 1
 32 580 l 1
EndSplineSet
EndChar

StartChar: w
Encoding: 119 119 91
Width: 830
GlyphClass: 2
Flags: W
AnchorPoint: "LatinBelow.mark" 355 0 basechar 0
AnchorPoint: "LatinAbove.mark" 355 0 basechar 0
LayerCount: 2
Fore
SplineSet
857 580 m 1
 592 0 l 1
 457 0 l 1
 412 362 l 1
 253 0 l 1
 118 0 l 1
 37 580 l 1
 38 588 l 1
 210 600 l 1
 236 236 l 1
 385 585 l 1
 511 585 l 1
 548 236 l 1
 690 600 l 1
 858 588 l 1
 857 580 l 1
EndSplineSet
EndChar

StartChar: x
Encoding: 120 120 92
Width: 600
GlyphClass: 2
Flags: W
AnchorPoint: "LatinBelow.mark" 240 0 basechar 0
AnchorPoint: "LatinAbove.mark" 240 0 basechar 0
LayerCount: 2
Fore
SplineSet
67 580 m 1
 68 588 l 1
 239 600 l 1
 308 428 l 1
 431 600 l 1
 598 588 l 1
 597 580 l 1
 378 323 l 1
 546 6 l 1
 545 0 l 1
 366 0 l 1
 271 193 l 1
 114 0 l 1
 -65 0 l 1
 -64 6 l 1
 204 323 l 1
 67 580 l 1
EndSplineSet
EndChar

StartChar: y
Encoding: 121 121 93
Width: 600
GlyphClass: 2
Flags: W
AnchorPoint: "LatinBelow.mark" 211 -180 basechar 0
AnchorPoint: "LatinAbove.mark" 240 0 basechar 0
LayerCount: 2
Fore
SplineSet
32 580 m 1
 33 588 l 1
 210 600 l 1
 274 200 l 1
 460 600 l 1
 633 588 l 1
 632 580 l 1
 303 -15 l 1
 236 -124 181 -231 41 -231 c 0
 -17 -231 -56 -209 -80 -189 c 1
 10 -95 l 1
 23 -108 37 -121 54 -121 c 0
 93 -121 120 -81 173 8 c 1
 32 580 l 1
EndSplineSet
EndChar

StartChar: z
Encoding: 122 122 94
Width: 530
GlyphClass: 2
Flags: W
AnchorPoint: "LatinBelow.mark" 205 0 basechar 0
AnchorPoint: "LatinAbove.mark" 205 0 basechar 0
LayerCount: 2
Fore
SplineSet
-32 79 m 1
 318 490 l 1
 58 490 l 1
 75 600 l 1
 535 600 l 1
 532 521 l 1
 181 110 l 1
 472 110 l 1
 455 0 l 1
 -36 0 l 1
 -32 79 l 1
EndSplineSet
EndChar

StartChar: braceleft
Encoding: 123 123 95
Width: 390
GlyphClass: 2
Flags: W
LayerCount: 2
Fore
SplineSet
28 365 m 1
 32 390 l 1
 36 415 l 1
 84 429 138 457 151 540 c 0
 152 545 152 551 152 557 c 0
 152 590 143 644 143 691 c 0
 143 705 144 718 146 730 c 0
 160 817 232 900 353 900 c 2
 413 900 l 1
 400 820 l 1
 360 820 l 2
 341 820 299 813 284 720 c 0
 282 709 282 696 282 682 c 0
 282 646 285 602 285 565 c 0
 285 550 285 537 283 525 c 0
 272 453 231 411 175 390 c 1
 217 372 242 339 242 286 c 0
 242 276 242 266 240 255 c 0
 232 203 188 108 180 60 c 0
 178 46 177 33 177 23 c 0
 177 -35 208 -40 224 -40 c 2
 264 -40 l 1
 251 -120 l 1
 191 -120 l 2
 84 -120 36 -55 36 20 c 0
 36 30 36 40 38 50 c 0
 48 110 97 204 103 240 c 0
 105 250 105 259 105 268 c 0
 105 330 67 353 28 365 c 1
EndSplineSet
EndChar

StartChar: bar
Encoding: 124 124 96
Width: 360
GlyphClass: 2
Flags: W
LayerCount: 2
Fore
SplineSet
31 -120 m 1
 193 900 l 1
 333 900 l 1
 171 -120 l 1
 31 -120 l 1
EndSplineSet
EndChar

StartChar: braceright
Encoding: 125 125 97
Width: 390
GlyphClass: 2
Flags: W
LayerCount: 2
Fore
SplineSet
366 415 m 1
 362 390 l 1
 358 365 l 1
 310 351 256 323 243 240 c 0
 242 235 242 229 242 223 c 0
 242 190 251 136 251 89 c 0
 251 75 250 62 248 50 c 0
 234 -37 162 -120 41 -120 c 2
 -19 -120 l 1
 -6 -40 l 1
 34 -40 l 2
 53 -40 95 -33 110 60 c 0
 112 70 112 83 112 96 c 0
 112 133 108 179 108 217 c 0
 108 231 108 244 110 255 c 0
 121 327 163 369 219 390 c 1
 176 408 151 441 151 495 c 0
 151 504 151 514 153 525 c 0
 161 577 206 672 214 720 c 0
 216 734 217 747 217 757 c 0
 217 815 186 820 170 820 c 2
 130 820 l 1
 143 900 l 1
 203 900 l 2
 310 900 358 835 358 760 c 0
 358 750 358 740 356 730 c 0
 346 670 297 576 291 540 c 0
 289 530 289 521 289 512 c 0
 289 450 327 427 366 415 c 1
EndSplineSet
EndChar

StartChar: asciitilde
Encoding: 126 126 98
Width: 600
GlyphClass: 2
Flags: W
LayerCount: 2
Fore
SplineSet
20 315 m 1
 67 409 120 505 224 505 c 0
 293 505 328 458 350 432 c 0
 375 402 391 390 403 390 c 0
 433 390 464 436 488 495 c 1
 584 465 l 1
 537 371 484 275 380 275 c 0
 311 275 275 322 253 348 c 0
 228 378 213 390 201 390 c 0
 171 390 139 344 115 285 c 1
 20 315 l 1
EndSplineSet
EndChar

StartChar: exclamdown
Encoding: 161 161 100
Width: 330
GlyphClass: 2
Flags: W
LayerCount: 2
Fore
SplineSet
282 518 m 0
 273 464 227 430 173 430 c 0
 125 430 91 457 91 502 c 0
 91 507 91 512 92 518 c 0
 101 572 147 606 201 606 c 0
 249 606 283 579 283 534 c 0
 283 529 283 524 282 518 c 0
212 330 m 1
 167 -210 l 1
 -23 -210 l 1
 102 330 l 1
 212 330 l 1
EndSplineSet
EndChar

StartChar: cent
Encoding: 162 162 101
Width: 605
GlyphClass: 2
Flags: W
LayerCount: 2
Fore
SplineSet
30 318 m 2
 34 342 l 2
 53 461 123 621 317 647 c 1
 339 780 l 1
 459 780 l 1
 437 645 l 1
 559 621 599 531 600 476 c 1
 437 462 l 1
 436 498 406 535 355 535 c 0
 285 535 219 476 198 342 c 2
 194 318 l 2
 191 296 189 276 189 258 c 0
 189 166 231 125 290 125 c 0
 341 125 382 162 395 198 c 1
 554 184 l 1
 535 129 467 39 337 15 c 1
 316 -120 l 1
 196 -120 l 1
 217 13 l 1
 66 34 24 144 24 248 c 0
 24 272 26 296 30 318 c 2
EndSplineSet
EndChar

StartChar: sterling
Encoding: 163 163 102
Width: 660
GlyphClass: 2
Flags: W
LayerCount: 2
Fore
SplineSet
15 96 m 1
 80 141 125 189 143 302 c 2
 150 345 l 1
 55 345 l 1
 69 435 l 1
 164 435 l 1
 181 543 l 2
 188 586 225 801 450 801 c 0
 625 801 647 666 650 632 c 1
 489 614 l 1
 486 658 471 687 432 687 c 0
 384 687 354 624 341 543 c 2
 324 435 l 1
 519 435 l 1
 505 345 l 1
 310 345 l 1
 303 302 l 2
 291 226 265 165 226 114 c 1
 578 114 l 1
 560 0 l 1
 15 0 l 1
 15 96 l 1
EndSplineSet
EndChar

StartChar: currency
Encoding: 164 164 103
Width: 720
GlyphClass: 2
Flags: W
LayerCount: 2
Fore
SplineSet
638 162 m 1
 540 78 l 1
 465 168 l 1
 424 148 375 135 321 135 c 0
 267 135 224 148 189 168 c 1
 84 78 l 1
 14 162 l 1
 112 247 l 1
 97 278 89 312 89 349 c 0
 89 362 90 376 92 390 c 0
 100 441 122 491 157 533 c 1
 86 618 l 1
 183 702 l 1
 259 612 l 1
 300 632 348 645 402 645 c 0
 456 645 500 632 535 612 c 1
 639 702 l 1
 710 618 l 1
 611 533 l 1
 627 502 635 466 635 429 c 0
 635 416 634 403 632 390 c 0
 624 339 601 289 566 247 c 1
 638 162 l 1
340 255 m 0
 406 255 467 298 482 390 c 0
 484 401 485 412 485 422 c 0
 485 492 441 525 383 525 c 0
 317 525 257 482 242 390 c 0
 240 378 239 367 239 357 c 0
 239 287 282 255 340 255 c 0
EndSplineSet
EndChar

StartChar: yen
Encoding: 165 165 104
Width: 660
GlyphClass: 2
Flags: W
LayerCount: 2
Fore
SplineSet
54 150 m 1
 68 240 l 1
 223 240 l 1
 232 299 l 1
 233 300 l 1
 78 300 l 1
 92 390 l 1
 200 390 l 1
 69 754 l 1
 71 765 l 1
 264 780 l 1
 341 450 l 1
 524 780 l 1
 711 765 l 1
 709 754 l 1
 464 390 l 1
 572 390 l 1
 558 300 l 1
 403 300 l 1
 402 299 l 1
 393 240 l 1
 548 240 l 1
 534 150 l 1
 379 150 l 1
 355 0 l 1
 185 0 l 1
 209 150 l 1
 54 150 l 1
EndSplineSet
EndChar

StartChar: brokenbar
Encoding: 166 166 105
Width: 360
GlyphClass: 2
Flags: W
LayerCount: 2
Fore
SplineSet
121 450 m 1
 193 900 l 1
 333 900 l 1
 261 450 l 1
 121 450 l 1
31 -120 m 1
 102 330 l 1
 242 330 l 1
 171 -120 l 1
 31 -120 l 1
EndSplineSet
EndChar

StartChar: section
Encoding: 167 167 106
Width: 660
GlyphClass: 2
Flags: W
LayerCount: 2
Fore
SplineSet
122 609 m 0
 141 726 250 831 413 831 c 0
 585 831 635 705 635 631 c 2
 635 629 l 1
 478 617 l 1
 478 675 453 721 395 721 c 0
 339 721 289 686 277 609 c 0
 276 602 275 596 275 590 c 0
 275 545 307 528 334 515 c 0
 374 496 431 471 470 457 c 0
 533 434 592 380 592 285 c 0
 592 272 591 259 589 245 c 0
 581 197 550 151 505 112 c 1
 516 89 522 62 522 32 c 0
 522 20 521 8 519 -5 c 0
 500 -124 390 -231 214 -231 c 0
 30 -231 -24 -103 -24 -25 c 1
 133 -13 l 1
 133 -16 l 2
 133 -71 161 -121 232 -121 c 0
 304 -121 351 -88 364 -5 c 0
 365 4 366 12 366 19 c 0
 366 71 334 86 309 97 c 0
 266 115 212 140 166 161 c 0
 113 185 50 240 50 328 c 0
 50 338 51 348 53 359 c 0
 60 406 90 454 142 491 c 1
 129 514 119 543 119 577 c 0
 119 587 120 598 122 609 c 0
418 200 m 1
 426 212 431 226 434 245 c 0
 436 255 436 263 436 271 c 0
 436 323 405 338 384 347 c 0
 341 365 282 390 236 411 c 0
 234 412 233 412 231 413 c 0
 220 399 212 382 208 359 c 0
 207 353 207 348 207 343 c 0
 207 296 246 279 274 265 c 0
 314 246 364 221 401 207 c 0
 407 205 412 203 418 200 c 1
EndSplineSet
EndChar

StartChar: dieresis
Encoding: 168 168 107
Width: 510
GlyphClass: 2
Flags: W
LayerCount: 2
Fore
SplineSet
206 859 m 0
 250 859 280 835 280 795 c 0
 280 790 280 785 279 780 c 0
 271 731 230 701 181 701 c 0
 137 701 108 725 108 765 c 0
 108 770 108 775 109 780 c 0
 117 829 157 859 206 859 c 0
456 859 m 0
 500 859 530 835 530 795 c 0
 530 790 530 785 529 780 c 0
 521 731 480 701 431 701 c 0
 387 701 358 725 358 765 c 0
 358 770 358 775 359 780 c 0
 367 829 407 859 456 859 c 0
EndSplineSet
EndChar

StartChar: copyright
Encoding: 169 169 108
Width: 1020
GlyphClass: 2
Flags: W
LayerCount: 2
Fore
SplineSet
704 498 m 1
 600 489 l 1
 600 514 579 538 546 538 c 0
 500 538 456 499 442 411 c 2
 440 395 l 2
 438 381 437 367 437 355 c 0
 437 295 465 268 503 268 c 0
 536 268 565 292 573 317 c 1
 674 308 l 1
 660 268 604 197 492 197 c 0
 367 197 334 275 334 350 c 0
 334 365 336 381 338 395 c 2
 340 411 l 2
 353 495 406 609 557 609 c 0
 669 609 702 538 704 498 c 1
447 -20 m 0
 211 -20 73 126 73 329 c 0
 73 354 75 379 79 405 c 0
 117 646 316 830 581 830 c 0
 817 830 955 684 955 481 c 0
 955 456 953 431 949 405 c 0
 911 164 712 -20 447 -20 c 0
460 60 m 0
 669 60 826 198 859 405 c 0
 863 429 865 451 865 473 c 0
 865 641 754 750 569 750 c 0
 360 750 202 612 169 405 c 0
 165 381 163 359 163 337 c 0
 163 168 275 60 460 60 c 0
EndSplineSet
EndChar

StartChar: ordfeminine
Encoding: 170 170 109
Width: 313
GlyphClass: 2
Flags: W
LayerCount: 2
Fore
SplineSet
51 597 m 0
 59 647 103 677 181 677 c 0
 199 677 217 677 232 676 c 1
 239 717 l 2
 240 721 240 724 240 727 c 0
 240 752 223 755 210 755 c 0
 199 755 178 749 169 718 c 1
 73 724 l 1
 86 767 132 821 220 821 c 0
 296 821 337 781 337 732 c 0
 337 727 337 722 336 717 c 2
 316 595 l 2
 315 589 314 584 314 580 c 0
 314 568 320 563 338 561 c 1
 304 501 l 1
 283 503 255 511 240 533 c 1
 219 515 191 501 154 501 c 0
 83 501 50 532 50 579 c 0
 50 585 50 591 51 597 c 0
230 622 m 1
 215 624 199 625 180 625 c 0
 162 625 148 614 145 596 c 0
 145 593 144 591 144 589 c 0
 144 571 155 557 176 557 c 0
 206 557 222 579 230 622 c 1
EndSplineSet
EndChar

StartChar: guillemotleft
Encoding: 171 171 110
Width: 780
GlyphClass: 2
Flags: W
LayerCount: 2
Fore
SplineSet
52 330 m 1
 62 390 l 1
 410 660 l 1
 452 580 l 1
 225 360 l 1
 382 140 l 1
 315 60 l 1
 52 330 l 1
352 330 m 1
 362 390 l 1
 710 660 l 1
 752 580 l 1
 525 360 l 1
 682 140 l 1
 615 60 l 1
 352 330 l 1
EndSplineSet
EndChar

StartChar: logicalnot
Encoding: 172 172 111
Width: 600
GlyphClass: 2
Flags: W
LayerCount: 2
Fore
SplineSet
62 295 m 1
 81 415 l 1
 531 415 l 1
 493 175 l 1
 343 175 l 1
 362 295 l 1
 62 295 l 1
EndSplineSet
EndChar

StartChar: uni00AD
Encoding: 173 173 112
Width: 450
GlyphClass: 2
Flags: W
LayerCount: 2
Fore
SplineSet
67 420 m 1
 397 420 l 1
 378 300 l 1
 48 300 l 1
 67 420 l 1
EndSplineSet
EndChar

StartChar: registered
Encoding: 174 174 113
Width: 870
GlyphClass: 2
Flags: W
LayerCount: 2
Fore
SplineSet
416 259 m 0
 224 259 114 378 114 540 c 0
 114 559 116 579 119 600 c 0
 149 792 309 941 524 941 c 0
 716 941 826 822 826 660 c 0
 826 641 824 621 821 600 c 0
 791 408 631 259 416 259 c 0
426 319 m 0
 593 319 722 430 749 600 c 0
 752 619 754 638 754 656 c 0
 754 794 663 881 515 881 c 0
 348 881 218 770 191 600 c 0
 188 581 186 563 186 545 c 0
 186 407 278 319 426 319 c 0
649 673 m 0
 639 613 588 570 518 556 c 1
 620 404 l 1
 619 400 l 1
 512 400 l 1
 415 551 l 1
 413 551 l 1
 389 400 l 1
 292 400 l 1
 317 555 l 1
 354 790 l 1
 354 790 431 795 500 795 c 0
 592 795 650 755 650 691 c 0
 650 685 650 679 649 673 c 0
552 673 m 0
 553 677 553 680 553 683 c 0
 553 721 514 727 467 727 c 0
 458 727 449 726 441 726 c 1
 424 619 l 1
 450 619 l 2
 501 619 545 626 552 673 c 0
EndSplineSet
EndChar

StartChar: macron
Encoding: 175 175 114
Width: 510
GlyphClass: 2
Flags: W
LayerCount: 2
Fore
SplineSet
101 730 m 1
 116 830 l 1
 536 830 l 1
 521 730 l 1
 101 730 l 1
EndSplineSet
EndChar

StartChar: degree
Encoding: 176 176 115
Width: 330
GlyphClass: 2
Flags: W
LayerCount: 2
Fore
SplineSet
208 649 m 0
 127 649 87 701 87 760 c 0
 87 767 88 773 89 780 c 0
 99 846 159 911 249 911 c 0
 330 911 370 859 370 800 c 0
 370 793 370 787 369 780 c 0
 359 714 298 649 208 649 c 0
219 721 m 0
 244 721 272 738 279 780 c 0
 280 785 280 790 280 794 c 0
 280 825 260 839 238 839 c 0
 213 839 186 822 179 780 c 0
 178 775 178 770 178 765 c 0
 178 734 197 721 219 721 c 0
EndSplineSet
EndChar

StartChar: plusminus
Encoding: 177 177 116
Width: 600
GlyphClass: 2
Flags: W
LayerCount: 2
Fore
SplineSet
42 168 m 1
 59 278 l 1
 509 278 l 1
 492 168 l 1
 42 168 l 1
85 442 m 1
 102 552 l 1
 257 552 l 1
 274 657 l 1
 414 657 l 1
 397 552 l 1
 552 552 l 1
 535 442 l 1
 380 442 l 1
 363 337 l 1
 223 337 l 1
 240 442 l 1
 85 442 l 1
EndSplineSet
EndChar

StartChar: two.sups
Encoding: 178 178 117
Width: 330
GlyphClass: 2
Flags: W
LayerCount: 2
Fore
SplineSet
191 801 m 1
 94 810 l 1
 105 844 152 911 248 911 c 0
 353 911 371 848 371 811 c 0
 371 804 371 799 370 794 c 0
 360 730 298 688 265 666 c 0
 227 641 185 612 168 582 c 1
 338 582 l 1
 327 510 l 1
 51 510 l 1
 51 510 47 525 50 544 c 0
 65 638 143 684 194 716 c 0
 229 738 266 760 271 794 c 0
 272 799 272 804 272 808 c 0
 272 831 261 842 237 842 c 0
 217 842 199 827 191 801 c 1
EndSplineSet
EndChar

StartChar: three.sups
Encoding: 179 179 118
Width: 330
GlyphClass: 2
Flags: W
LayerCount: 2
Fore
SplineSet
302 712 m 1
 337 693 344 661 344 639 c 0
 344 634 344 629 343 625 c 0
 337 589 305 499 171 499 c 0
 71 499 46 558 41 580 c 1
 141 598 l 1
 143 586 150 571 182 571 c 0
 220 571 237 590 242 620 c 0
 243 624 243 628 243 632 c 0
 243 656 229 667 200 667 c 2
 142 667 l 1
 153 738 l 1
 199 738 l 2
 231 738 252 768 256 794 c 0
 257 799 257 804 257 808 c 0
 257 830 246 842 223 842 c 0
 203 842 184 827 176 801 c 1
 80 810 l 1
 91 844 138 911 234 911 c 0
 339 911 356 849 356 812 c 0
 356 805 356 799 355 794 c 0
 349 756 327 730 302 712 c 1
EndSplineSet
EndChar

StartChar: acute
Encoding: 180 180 119
Width: 390
GlyphClass: 2
Flags: W
LayerCount: 2
Fore
SplineSet
49 595 m 1
 368 900 l 1
 473 811 l 1
 121 540 l 1
 49 595 l 1
EndSplineSet
EndChar

StartChar: mu
Encoding: 181 181 120
Width: 665
GlyphClass: 2
Flags: W
LayerCount: 2
Fore
SplineSet
105 600 m 1
 265 600 l 1
 217 297 l 1
 221 197 280 110 347 110 c 0
 370 110 409 121 422 200 c 2
 485 600 l 1
 645 600 l 1
 581 194 l 2
 565 90 494 -16 372 -16 c 0
 271 -16 214 45 184 118 c 1
 132 -210 l 1
 -23 -210 l 1
 105 600 l 1
EndSplineSet
EndChar

StartChar: paragraph
Encoding: 182 182 121
Width: 725
GlyphClass: 2
Flags: W
LayerCount: 2
Fore
SplineSet
298 431 m 1
 334 659 l 1
 277 644 234 611 224 545 c 0
 223 537 222 529 222 522 c 0
 222 471 252 444 298 431 c 1
545 665 m 1
 529 666 504 667 476 668 c 1
 337 -210 l 1
 197 -210 l 1
 278 306 l 1
 138 325 53 398 53 508 c 0
 53 520 54 532 56 545 c 0
 80 695 230 789 430 789 c 0
 568 789 704 780 704 780 c 1
 547 -210 l 1
 407 -210 l 1
 545 665 l 1
EndSplineSet
EndChar

StartChar: periodcentered
Encoding: 183 183 122
Width: 330
GlyphClass: 2
Flags: W
LayerCount: 2
Fore
SplineSet
67 360 m 0
 76 414 122 448 176 448 c 0
 224 448 258 421 258 376 c 0
 258 371 258 366 257 360 c 0
 248 306 202 272 148 272 c 0
 100 272 66 299 66 344 c 0
 66 349 66 354 67 360 c 0
EndSplineSet
EndChar

StartChar: cedilla
Encoding: 184 184 123
Width: 330
GlyphClass: 2
Flags: W
LayerCount: 2
Fore
SplineSet
-62 -265 m 1
 10 -250 92 -220 92 -171 c 0
 92 -159 82 -150 41 -150 c 0
 29 -150 12 -153 0 -155 c 1
 -37 -110 l 1
 59 25 l 1
 144 25 l 1
 69 -80 l 1
 145 -80 193 -104 193 -159 c 0
 193 -164 193 -169 192 -175 c 0
 174 -291 7 -323 -48 -335 c 1
 -62 -265 l 1
EndSplineSet
EndChar

StartChar: one.sups
Encoding: 185 185 124
Width: 330
GlyphClass: 2
Flags: W
LayerCount: 2
Fore
SplineSet
107 825 m 1
 251 903 l 1
 322 897 l 1
 272 582 l 1
 338 582 l 1
 327 510 l 1
 77 510 l 1
 88 582 l 1
 174 582 l 1
 208 798 l 1
 137 756 l 1
 107 825 l 1
EndSplineSet
EndChar

StartChar: ordmasculine
Encoding: 186 186 125
Width: 330
GlyphClass: 2
Flags: W
LayerCount: 2
Fore
SplineSet
195 567 m 0
 222 567 247 587 257 653 c 1
 260 667 l 2
 262 679 263 690 263 699 c 0
 263 740 246 753 224 753 c 0
 197 753 172 733 162 667 c 1
 159 653 l 2
 157 641 156 630 156 621 c 0
 156 580 173 567 195 567 c 0
235 821 m 0
 337 821 363 756 363 699 c 0
 363 688 362 677 360 667 c 2
 357 653 l 2
 347 592 306 499 184 499 c 0
 82 499 56 564 56 621 c 0
 56 632 57 643 59 653 c 2
 62 667 l 2
 72 728 113 821 235 821 c 0
EndSplineSet
EndChar

StartChar: guillemotright
Encoding: 187 187 126
Width: 780
GlyphClass: 2
Flags: W
LayerCount: 2
Fore
SplineSet
722 390 m 1
 712 330 l 1
 365 60 l 1
 322 140 l 1
 549 360 l 1
 392 580 l 1
 460 660 l 1
 722 390 l 1
422 390 m 1
 412 330 l 1
 65 60 l 1
 22 140 l 1
 249 360 l 1
 92 580 l 1
 160 660 l 1
 422 390 l 1
EndSplineSet
EndChar

StartChar: onequarter
Encoding: 188 188 127
Width: 780
GlyphClass: 3
Flags: W
LayerCount: 2
Fore
SplineSet
0 0 m 1
 1 8 l 1
 684 780 l 1
 784 780 l 1
 782 772 l 1
 100 0 l 1
 0 0 l 1
88 705 m 1
 232 783 l 1
 303 777 l 1
 253 462 l 1
 319 462 l 1
 308 390 l 1
 58 390 l 1
 69 462 l 1
 155 462 l 1
 189 678 l 1
 118 636 l 1
 88 705 l 1
567 85 m 1
 414 85 l 1
 415 135 l 1
 636 393 l 1
 715 387 l 1
 679 155 l 1
 741 155 l 1
 729 85 l 1
 667 85 l 1
 654 0 l 1
 554 0 l 1
 567 85 l 1
584 155 m 1
 599 250 l 1
 520 155 l 1
 584 155 l 1
EndSplineSet
Ligature2: "LatinLiga.frac subtable" one.numr fraction four.dnom
Ligature2: "LatinLiga.frac subtable" one.numr fraction four
Ligature2: "LatinLiga.frac subtable" one fraction four.dnom
Ligature2: "LatinLiga.frac subtable" one fraction four
EndChar

StartChar: onehalf
Encoding: 189 189 128
Width: 780
GlyphClass: 3
Flags: W
LayerCount: 2
Fore
SplineSet
88 705 m 1
 232 783 l 1
 303 777 l 1
 253 462 l 1
 319 462 l 1
 308 390 l 1
 58 390 l 1
 69 462 l 1
 155 462 l 1
 189 678 l 1
 118 636 l 1
 88 705 l 1
0 0 m 1
 1 8 l 1
 684 780 l 1
 784 780 l 1
 782 772 l 1
 100 0 l 1
 0 0 l 1
560 291 m 1
 464 300 l 1
 475 334 522 401 618 401 c 0
 723 401 740 339 740 302 c 0
 740 295 740 289 739 284 c 0
 729 220 668 178 635 156 c 0
 597 131 554 102 537 72 c 1
 707 72 l 1
 696 0 l 1
 420 0 l 1
 420 0 416 15 419 34 c 0
 434 128 513 174 564 206 c 0
 599 228 635 250 640 284 c 0
 641 289 641 294 641 298 c 0
 641 320 630 332 607 332 c 0
 587 332 568 317 560 291 c 1
EndSplineSet
Ligature2: "LatinLiga.frac subtable" one.numr fraction two.dnom
Ligature2: "LatinLiga.frac subtable" one.numr fraction two
Ligature2: "LatinLiga.frac subtable" one fraction two.dnom
Ligature2: "LatinLiga.frac subtable" one fraction two
EndChar

StartChar: threequarters
Encoding: 190 190 129
Width: 780
GlyphClass: 3
Flags: W
LayerCount: 2
Fore
SplineSet
567 85 m 1
 414 85 l 1
 415 135 l 1
 636 393 l 1
 715 387 l 1
 679 155 l 1
 741 155 l 1
 729 85 l 1
 667 85 l 1
 654 0 l 1
 554 0 l 1
 567 85 l 1
584 155 m 1
 599 250 l 1
 520 155 l 1
 584 155 l 1
0 0 m 1
 1 8 l 1
 684 780 l 1
 784 780 l 1
 782 772 l 1
 100 0 l 1
 0 0 l 1
283 592 m 1
 318 573 325 541 325 519 c 0
 325 514 325 509 324 505 c 0
 318 469 286 379 152 379 c 0
 52 379 27 438 22 460 c 1
 122 478 l 1
 124 466 131 451 163 451 c 0
 201 451 218 470 223 500 c 0
 224 504 224 508 224 512 c 0
 224 536 210 547 181 547 c 2
 123 547 l 1
 134 618 l 1
 180 618 l 2
 212 618 233 648 237 674 c 0
 238 679 238 684 238 688 c 0
 238 710 227 722 204 722 c 0
 184 722 165 707 157 681 c 1
 61 690 l 1
 72 724 119 791 215 791 c 0
 320 791 337 729 337 692 c 0
 337 685 337 679 336 674 c 0
 330 636 308 610 283 592 c 1
EndSplineSet
Ligature2: "LatinLiga.frac subtable" three.numr fraction four.dnom
Ligature2: "LatinLiga.frac subtable" three.numr fraction four
Ligature2: "LatinLiga.frac subtable" three fraction four.dnom
Ligature2: "LatinLiga.frac subtable" three fraction four
EndChar

StartChar: questiondown
Encoding: 191 191 130
Width: 570
GlyphClass: 2
Flags: W
LayerCount: 2
Fore
SplineSet
402 518 m 0
 393 464 347 430 293 430 c 0
 245 430 211 457 211 502 c 0
 211 507 211 512 212 518 c 0
 221 572 267 606 321 606 c 0
 369 606 403 579 403 534 c 0
 403 529 403 524 402 518 c 0
464 -40 m 0
 448 -144 341 -231 188 -231 c 0
 56 -231 -18 -165 -18 -65 c 0
 -18 -54 -17 -42 -15 -30 c 0
 11 133 207 169 223 270 c 0
 224 276 224 282 224 287 c 0
 224 297 223 306 220 315 c 1
 352 330 l 1
 359 314 363 298 363 281 c 0
 363 274 362 267 361 260 c 0
 337 106 174 90 156 -25 c 0
 155 -33 154 -41 154 -48 c 0
 154 -98 187 -108 213 -108 c 0
 252 -108 286 -89 294 -40 c 0
 295 -33 296 -25 296 -18 c 0
 296 -8 295 2 292 10 c 1
 458 50 l 1
 463 31 466 10 466 -10 c 0
 466 -20 466 -30 464 -40 c 0
EndSplineSet
EndChar

StartChar: Agrave
Encoding: 192 192 131
Width: 750
GlyphClass: 2
Flags: W
AnchorPoint: "LatinBelow.mark" 315 0 basechar 0
AnchorPoint: "LatinAbove.mark" 367 330 basechar 0
LayerCount: 2
Fore
SplineSet
301 955 m 1
 383 1060 l 1
 578 900 l 1
 528 840 l 1
 301 955 l 1
690 0 m 1
 500 0 l 1
 475 150 l 1
 203 150 l 1
 130 0 l 1
 -60 0 l 1
 -58 11 l 1
 369 780 l 1
 509 780 l 1
 692 11 l 1
 690 0 l 1
455 270 m 1
 405 566 l 1
 261 270 l 1
 455 270 l 1
EndSplineSet
EndChar

StartChar: Aacute
Encoding: 193 193 132
Width: 750
GlyphClass: 2
Flags: W
AnchorPoint: "LatinBelow.mark" 315 0 basechar 0
AnchorPoint: "LatinAbove.mark" 367 330 basechar 0
LayerCount: 2
Fore
SplineSet
631 955 m 1
 368 840 l 1
 338 900 l 1
 583 1060 l 1
 631 955 l 1
690 0 m 1
 500 0 l 1
 475 150 l 1
 203 150 l 1
 130 0 l 1
 -60 0 l 1
 -58 11 l 1
 369 780 l 1
 509 780 l 1
 692 11 l 1
 690 0 l 1
455 270 m 1
 405 566 l 1
 261 270 l 1
 455 270 l 1
EndSplineSet
EndChar

StartChar: Acircumflex
Encoding: 194 194 133
Width: 750
GlyphClass: 2
Flags: W
AnchorPoint: "LatinBelow.mark" 315 0 basechar 0
AnchorPoint: "LatinAbove.mark" 367 330 basechar 0
LayerCount: 2
Fore
SplineSet
244 875 m 1
 457 1020 l 1
 497 1020 l 1
 664 875 l 1
 611 825 l 1
 459 905 l 1
 281 825 l 1
 244 875 l 1
690 0 m 1
 500 0 l 1
 475 150 l 1
 203 150 l 1
 130 0 l 1
 -60 0 l 1
 -58 11 l 1
 369 780 l 1
 509 780 l 1
 692 11 l 1
 690 0 l 1
455 270 m 1
 405 566 l 1
 261 270 l 1
 455 270 l 1
EndSplineSet
EndChar

StartChar: Atilde
Encoding: 195 195 134
Width: 750
GlyphClass: 2
Flags: W
AnchorPoint: "LatinBelow.mark" 315 0 basechar 0
AnchorPoint: "LatinAbove.mark" 367 330 basechar 0
LayerCount: 2
Fore
SplineSet
246 890 m 1
 283 956 326 1015 401 1015 c 0
 461 1015 490 985 508 967 c 0
 524 951 533 940 543 940 c 0
 568 940 593 990 605 1010 c 1
 680 980 l 1
 643 914 601 855 526 855 c 0
 466 855 436 885 418 903 c 0
 402 919 394 930 384 930 c 0
 359 930 333 880 321 860 c 1
 246 890 l 1
690 0 m 1
 500 0 l 1
 475 150 l 1
 203 150 l 1
 130 0 l 1
 -60 0 l 1
 -58 11 l 1
 369 780 l 1
 509 780 l 1
 692 11 l 1
 690 0 l 1
455 270 m 1
 405 566 l 1
 261 270 l 1
 455 270 l 1
EndSplineSet
EndChar

StartChar: Adieresis
Encoding: 196 196 135
Width: 750
GlyphClass: 2
Flags: W
AnchorPoint: "LatinBelow.mark" 315 0 basechar 0
AnchorPoint: "LatinAbove.mark" 367 330 basechar 0
LayerCount: 2
Fore
SplineSet
350 1009 m 0
 394 1009 424 985 424 945 c 0
 424 940 424 935 423 930 c 0
 415 881 374 851 325 851 c 0
 281 851 252 875 252 915 c 0
 252 920 252 925 253 930 c 0
 261 979 301 1009 350 1009 c 0
600 1009 m 0
 644 1009 674 985 674 945 c 0
 674 940 674 935 673 930 c 0
 665 881 624 851 575 851 c 0
 531 851 502 875 502 915 c 0
 502 920 502 925 503 930 c 0
 511 979 551 1009 600 1009 c 0
690 0 m 1
 500 0 l 1
 475 150 l 1
 203 150 l 1
 130 0 l 1
 -60 0 l 1
 -58 11 l 1
 369 780 l 1
 509 780 l 1
 692 11 l 1
 690 0 l 1
455 270 m 1
 405 566 l 1
 261 270 l 1
 455 270 l 1
EndSplineSet
EndChar

StartChar: Aring
Encoding: 197 197 136
Width: 750
GlyphClass: 2
Flags: W
AnchorPoint: "LatinBelow.mark" 315 0 basechar 0
AnchorPoint: "LatinAbove.mark" 367 330 basechar 0
LayerCount: 2
Fore
SplineSet
441 795 m 0
 375 795 328 832 328 893 c 0
 328 900 329 907 330 915 c 0
 342 989 405 1035 479 1035 c 0
 545 1035 592 998 592 937 c 0
 592 930 591 923 590 915 c 0
 578 841 515 795 441 795 c 0
452 865 m 0
 484 865 505 886 510 915 c 0
 511 919 511 923 511 926 c 0
 511 949 496 965 468 965 c 0
 436 965 415 944 410 915 c 0
 409 911 409 907 409 904 c 0
 409 881 424 865 452 865 c 0
690 0 m 1
 500 0 l 1
 475 150 l 1
 203 150 l 1
 130 0 l 1
 -60 0 l 1
 -58 11 l 1
 369 780 l 1
 509 780 l 1
 692 11 l 1
 690 0 l 1
455 270 m 1
 405 566 l 1
 261 270 l 1
 455 270 l 1
EndSplineSet
EndChar

StartChar: AE
Encoding: 198 198 137
Width: 980
GlyphClass: 2
Flags: W
AnchorPoint: "LatinBelow.mark" 450 0 basechar 0
AnchorPoint: "LatinAbove.mark" 474 150 basechar 0
LayerCount: 2
Fore
SplineSet
-55 0 m 1
 -53 11 l 1
 434 780 l 1
 504 780 l 1
 574 780 l 1
 989 780 l 1
 968 650 l 1
 653 650 l 1
 620 445 l 1
 895 445 l 1
 876 325 l 1
 601 325 l 1
 571 130 l 1
 901 130 l 1
 880 0 l 1
 380 0 l 1
 404 150 l 1
 220 150 l 1
 135 0 l 1
 -55 0 l 1
476 607 m 1
 287 270 l 1
 423 270 l 1
 476 607 l 1
EndSplineSet
EndChar

StartChar: Ccedilla
Encoding: 199 199 138
Width: 755
GlyphClass: 2
Flags: W
AnchorPoint: "LatinAbove.mark" 374 150 basechar 0
LayerCount: 2
Fore
SplineSet
205 -265 m 1
 277 -250 359 -220 359 -171 c 0
 359 -159 349 -150 308 -150 c 0
 296 -150 279 -153 267 -155 c 1
 230 -110 l 1
 295 -18 l 1
 96 3 37 146 37 287 c 0
 37 317 39 346 44 375 c 2
 49 405 l 2
 77 580 190 801 479 801 c 0
 691 801 760 664 762 582 c 1
 586 566 l 1
 585 616 545 673 459 673 c 0
 342 673 255 582 227 405 c 2
 222 375 l 2
 217 345 215 318 215 293 c 0
 215 170 272 107 369 107 c 0
 455 107 513 164 530 214 c 1
 701 198 l 1
 675 120 572 -8 379 -20 c 1
 336 -80 l 1
 412 -80 460 -104 460 -159 c 0
 460 -164 460 -169 459 -175 c 0
 441 -291 274 -323 219 -335 c 1
 205 -265 l 1
EndSplineSet
EndChar

StartChar: Egrave
Encoding: 200 200 139
Width: 675
GlyphClass: 2
Flags: W
AnchorPoint: "LatinBelow.mark" 290 0 basechar 0
AnchorPoint: "LatinAbove.mark" 342 330 basechar 0
LayerCount: 2
Fore
SplineSet
276 955 m 1
 358 1060 l 1
 553 900 l 1
 503 840 l 1
 276 955 l 1
15 0 m 1
 139 780 l 1
 684 780 l 1
 663 650 l 1
 288 650 l 1
 255 445 l 1
 590 445 l 1
 571 325 l 1
 236 325 l 1
 206 130 l 1
 596 130 l 1
 575 0 l 1
 15 0 l 1
EndSplineSet
EndChar

StartChar: Eacute
Encoding: 201 201 140
Width: 675
GlyphClass: 2
Flags: W
AnchorPoint: "LatinBelow.mark" 290 0 basechar 0
AnchorPoint: "LatinAbove.mark" 342 330 basechar 0
LayerCount: 2
Fore
SplineSet
606 955 m 1
 343 840 l 1
 313 900 l 1
 558 1060 l 1
 606 955 l 1
15 0 m 1
 139 780 l 1
 684 780 l 1
 663 650 l 1
 288 650 l 1
 255 445 l 1
 590 445 l 1
 571 325 l 1
 236 325 l 1
 206 130 l 1
 596 130 l 1
 575 0 l 1
 15 0 l 1
EndSplineSet
EndChar

StartChar: Ecircumflex
Encoding: 202 202 141
Width: 675
GlyphClass: 2
Flags: W
AnchorPoint: "LatinBelow.mark" 290 0 basechar 0
AnchorPoint: "LatinAbove.mark" 342 330 basechar 0
LayerCount: 2
Fore
SplineSet
219 875 m 1
 432 1020 l 1
 472 1020 l 1
 639 875 l 1
 586 825 l 1
 434 905 l 1
 256 825 l 1
 219 875 l 1
15 0 m 1
 139 780 l 1
 684 780 l 1
 663 650 l 1
 288 650 l 1
 255 445 l 1
 590 445 l 1
 571 325 l 1
 236 325 l 1
 206 130 l 1
 596 130 l 1
 575 0 l 1
 15 0 l 1
EndSplineSet
EndChar

StartChar: Edieresis
Encoding: 203 203 142
Width: 675
GlyphClass: 2
Flags: W
AnchorPoint: "LatinBelow.mark" 290 0 basechar 0
AnchorPoint: "LatinAbove.mark" 342 330 basechar 0
LayerCount: 2
Fore
SplineSet
325 1009 m 0
 369 1009 399 985 399 945 c 0
 399 940 399 935 398 930 c 0
 390 881 349 851 300 851 c 0
 256 851 227 875 227 915 c 0
 227 920 227 925 228 930 c 0
 236 979 276 1009 325 1009 c 0
575 1009 m 0
 619 1009 649 985 649 945 c 0
 649 940 649 935 648 930 c 0
 640 881 599 851 550 851 c 0
 506 851 477 875 477 915 c 0
 477 920 477 925 478 930 c 0
 486 979 526 1009 575 1009 c 0
15 0 m 1
 139 780 l 1
 684 780 l 1
 663 650 l 1
 288 650 l 1
 255 445 l 1
 590 445 l 1
 571 325 l 1
 236 325 l 1
 206 130 l 1
 596 130 l 1
 575 0 l 1
 15 0 l 1
EndSplineSet
EndChar

StartChar: Igrave
Encoding: 204 204 143
Width: 320
GlyphClass: 2
Flags: W
AnchorPoint: "LatinBelow.mark" 100 0 basechar 0
AnchorPoint: "LatinAbove.mark" 152 330 basechar 0
LayerCount: 2
Fore
SplineSet
86 955 m 1
 168 1060 l 1
 363 900 l 1
 313 840 l 1
 86 955 l 1
15 0 m 1
 139 780 l 1
 309 780 l 1
 185 0 l 1
 15 0 l 1
EndSplineSet
EndChar

StartChar: Iacute
Encoding: 205 205 144
Width: 320
GlyphClass: 2
Flags: W
AnchorPoint: "LatinBelow.mark" 100 0 basechar 0
AnchorPoint: "LatinAbove.mark" 152 330 basechar 0
LayerCount: 2
Fore
SplineSet
416 955 m 1
 153 840 l 1
 123 900 l 1
 368 1060 l 1
 416 955 l 1
15 0 m 1
 139 780 l 1
 309 780 l 1
 185 0 l 1
 15 0 l 1
EndSplineSet
EndChar

StartChar: Icircumflex
Encoding: 206 206 145
Width: 320
GlyphClass: 2
Flags: W
AnchorPoint: "LatinBelow.mark" 100 0 basechar 0
AnchorPoint: "LatinAbove.mark" 152 330 basechar 0
LayerCount: 2
Fore
SplineSet
29 875 m 1
 242 1020 l 1
 282 1020 l 1
 449 875 l 1
 396 825 l 1
 244 905 l 1
 66 825 l 1
 29 875 l 1
15 0 m 1
 139 780 l 1
 309 780 l 1
 185 0 l 1
 15 0 l 1
EndSplineSet
EndChar

StartChar: Idieresis
Encoding: 207 207 146
Width: 320
GlyphClass: 2
Flags: W
AnchorPoint: "LatinBelow.mark" 100 0 basechar 0
AnchorPoint: "LatinAbove.mark" 152 330 basechar 0
LayerCount: 2
Fore
SplineSet
135 1009 m 0
 179 1009 209 985 209 945 c 0
 209 940 209 935 208 930 c 0
 200 881 159 851 110 851 c 0
 66 851 37 875 37 915 c 0
 37 920 37 925 38 930 c 0
 46 979 86 1009 135 1009 c 0
385 1009 m 0
 429 1009 459 985 459 945 c 0
 459 940 459 935 458 930 c 0
 450 881 409 851 360 851 c 0
 316 851 287 875 287 915 c 0
 287 920 287 925 288 930 c 0
 296 979 336 1009 385 1009 c 0
15 0 m 1
 139 780 l 1
 309 780 l 1
 185 0 l 1
 15 0 l 1
EndSplineSet
EndChar

StartChar: Eth
Encoding: 208 208 147
Width: 770
GlyphClass: 2
Flags: W
AnchorPoint: "LatinBelow.mark" 260 0 basechar 0
AnchorPoint: "LatinAbove.mark" 284 150 basechar 0
LayerCount: 2
Fore
SplineSet
0 345 m 1
 14 435 l 1
 84 435 l 1
 139 780 l 1
 139 780 252 789 365 789 c 0
 644 789 734 634 734 473 c 0
 734 449 732 424 728 400 c 2
 725 380 l 2
 696 197 560 -9 239 -9 c 0
 126 -9 15 0 15 0 c 1
 70 345 l 1
 0 345 l 1
203 114 m 1
 222 114 242 113 258 113 c 0
 443 113 529 215 555 380 c 2
 558 400 l 2
 562 426 564 450 564 473 c 0
 564 595 502 667 346 667 c 0
 330 667 309 666 290 666 c 1
 254 435 l 1
 434 435 l 1
 420 345 l 1
 240 345 l 1
 203 114 l 1
EndSplineSet
EndChar

StartChar: Ntilde
Encoding: 209 209 148
Width: 790
GlyphClass: 2
Flags: W
AnchorPoint: "LatinBelow.mark" 335 0 basechar 0
LayerCount: 2
Fore
SplineSet
266 890 m 1
 303 956 346 1015 421 1015 c 0
 481 1015 510 985 528 967 c 0
 544 951 553 940 563 940 c 0
 588 940 613 990 625 1010 c 1
 700 980 l 1
 663 914 621 855 546 855 c 0
 486 855 456 885 438 903 c 0
 422 919 414 930 404 930 c 0
 379 930 353 880 341 860 c 1
 266 890 l 1
15 0 m 1
 136 765 l 1
 284 780 l 1
 532 273 l 1
 613 780 l 1
 779 780 l 1
 655 0 l 1
 510 0 l 1
 261 507 l 1
 181 0 l 1
 15 0 l 1
EndSplineSet
EndChar

StartChar: Ograve
Encoding: 210 210 149
Width: 820
GlyphClass: 2
Flags: W
AnchorPoint: "LatinBelow.mark" 350 0 basechar 0
AnchorPoint: "LatinAbove.mark" 402 330 basechar 0
LayerCount: 2
Fore
SplineSet
336 955 m 1
 418 1060 l 1
 613 900 l 1
 563 840 l 1
 336 955 l 1
44 373 m 2
 49 407 l 2
 77 581 188 801 477 801 c 0
 718 801 786 649 786 497 c 0
 786 467 784 436 779 407 c 2
 774 373 l 2
 746 199 636 -21 347 -21 c 0
 106 -21 37 132 37 284 c 0
 37 314 39 344 44 373 c 2
366 104 m 0
 487 104 572 197 600 373 c 2
 605 407 l 2
 610 437 612 465 612 490 c 0
 612 612 557 676 457 676 c 0
 336 676 251 583 223 407 c 2
 218 373 l 2
 213 343 211 315 211 290 c 0
 211 168 266 104 366 104 c 0
EndSplineSet
EndChar

StartChar: Oacute
Encoding: 211 211 150
Width: 820
GlyphClass: 2
Flags: W
AnchorPoint: "LatinBelow.mark" 350 0 basechar 0
AnchorPoint: "LatinAbove.mark" 402 330 basechar 0
LayerCount: 2
Fore
SplineSet
666 955 m 1
 403 840 l 1
 373 900 l 1
 618 1060 l 1
 666 955 l 1
44 373 m 2
 49 407 l 2
 77 581 188 801 477 801 c 0
 718 801 786 649 786 497 c 0
 786 467 784 436 779 407 c 2
 774 373 l 2
 746 199 636 -21 347 -21 c 0
 106 -21 37 132 37 284 c 0
 37 314 39 344 44 373 c 2
366 104 m 0
 487 104 572 197 600 373 c 2
 605 407 l 2
 610 437 612 465 612 490 c 0
 612 612 557 676 457 676 c 0
 336 676 251 583 223 407 c 2
 218 373 l 2
 213 343 211 315 211 290 c 0
 211 168 266 104 366 104 c 0
EndSplineSet
EndChar

StartChar: Ocircumflex
Encoding: 212 212 151
Width: 820
GlyphClass: 2
Flags: W
AnchorPoint: "LatinBelow.mark" 350 0 basechar 0
AnchorPoint: "LatinAbove.mark" 402 330 basechar 0
LayerCount: 2
Fore
SplineSet
279 875 m 1
 492 1020 l 1
 532 1020 l 1
 699 875 l 1
 646 825 l 1
 494 905 l 1
 316 825 l 1
 279 875 l 1
44 373 m 2
 49 407 l 2
 77 581 188 801 477 801 c 0
 718 801 786 649 786 497 c 0
 786 467 784 436 779 407 c 2
 774 373 l 2
 746 199 636 -21 347 -21 c 0
 106 -21 37 132 37 284 c 0
 37 314 39 344 44 373 c 2
366 104 m 0
 487 104 572 197 600 373 c 2
 605 407 l 2
 610 437 612 465 612 490 c 0
 612 612 557 676 457 676 c 0
 336 676 251 583 223 407 c 2
 218 373 l 2
 213 343 211 315 211 290 c 0
 211 168 266 104 366 104 c 0
EndSplineSet
EndChar

StartChar: Otilde
Encoding: 213 213 152
Width: 820
GlyphClass: 2
Flags: W
AnchorPoint: "LatinBelow.mark" 350 0 basechar 0
AnchorPoint: "LatinAbove.mark" 402 330 basechar 0
LayerCount: 2
Fore
SplineSet
281 890 m 1
 318 956 361 1015 436 1015 c 0
 496 1015 525 985 543 967 c 0
 559 951 568 940 578 940 c 0
 603 940 628 990 640 1010 c 1
 715 980 l 1
 678 914 636 855 561 855 c 0
 501 855 471 885 453 903 c 0
 437 919 429 930 419 930 c 0
 394 930 368 880 356 860 c 1
 281 890 l 1
44 373 m 2
 49 407 l 2
 77 581 188 801 477 801 c 0
 718 801 786 649 786 497 c 0
 786 467 784 436 779 407 c 2
 774 373 l 2
 746 199 636 -21 347 -21 c 0
 106 -21 37 132 37 284 c 0
 37 314 39 344 44 373 c 2
366 104 m 0
 487 104 572 197 600 373 c 2
 605 407 l 2
 610 437 612 465 612 490 c 0
 612 612 557 676 457 676 c 0
 336 676 251 583 223 407 c 2
 218 373 l 2
 213 343 211 315 211 290 c 0
 211 168 266 104 366 104 c 0
EndSplineSet
EndChar

StartChar: Odieresis
Encoding: 214 214 153
Width: 820
GlyphClass: 2
Flags: W
AnchorPoint: "LatinBelow.mark" 350 0 basechar 0
AnchorPoint: "LatinAbove.mark" 402 330 basechar 0
LayerCount: 2
Fore
SplineSet
385 1009 m 0
 429 1009 459 985 459 945 c 0
 459 940 459 935 458 930 c 0
 450 881 409 851 360 851 c 0
 316 851 287 875 287 915 c 0
 287 920 287 925 288 930 c 0
 296 979 336 1009 385 1009 c 0
635 1009 m 0
 679 1009 709 985 709 945 c 0
 709 940 709 935 708 930 c 0
 700 881 659 851 610 851 c 0
 566 851 537 875 537 915 c 0
 537 920 537 925 538 930 c 0
 546 979 586 1009 635 1009 c 0
44 373 m 2
 49 407 l 2
 77 581 188 801 477 801 c 0
 718 801 786 649 786 497 c 0
 786 467 784 436 779 407 c 2
 774 373 l 2
 746 199 636 -21 347 -21 c 0
 106 -21 37 132 37 284 c 0
 37 314 39 344 44 373 c 2
366 104 m 0
 487 104 572 197 600 373 c 2
 605 407 l 2
 610 437 612 465 612 490 c 0
 612 612 557 676 457 676 c 0
 336 676 251 583 223 407 c 2
 218 373 l 2
 213 343 211 315 211 290 c 0
 211 168 266 104 366 104 c 0
EndSplineSet
EndChar

StartChar: multiply
Encoding: 215 215 154
Width: 600
GlyphClass: 2
Flags: W
LayerCount: 2
Fore
SplineSet
97 498 m 1
 194 582 l 1
 310 444 l 1
 470 582 l 1
 541 498 l 1
 381 360 l 1
 497 222 l 1
 400 138 l 1
 284 276 l 1
 124 138 l 1
 53 222 l 1
 213 360 l 1
 97 498 l 1
EndSplineSet
EndChar

StartChar: Oslash
Encoding: 216 216 155
Width: 820
GlyphClass: 2
Flags: W
AnchorPoint: "LatinBelow.mark" 350 0 basechar 0
AnchorPoint: "LatinAbove.mark" 374 150 basechar 0
LayerCount: 2
Fore
SplineSet
44 373 m 2
 49 407 l 2
 77 581 188 801 477 801 c 0
 573 801 642 776 690 737 c 1
 758 807 l 1
 820 756 l 1
 742 677 l 1
 774 624 786 559 786 495 c 0
 786 465 783 436 779 407 c 2
 774 373 l 2
 746 199 636 -21 347 -21 c 0
 247 -21 176 5 128 47 c 1
 68 -15 l 1
 6 36 l 1
 77 109 l 1
 48 160 37 222 37 283 c 0
 37 314 39 344 44 373 c 2
578 622 m 1
 552 658 511 676 457 676 c 0
 336 676 251 583 223 407 c 2
 218 373 l 2
 213 342 211 313 211 287 c 0
 211 273 212 261 213 249 c 1
 578 622 l 1
609 540 m 1
 242 164 l 1
 268 125 310 104 366 104 c 0
 487 104 572 197 600 373 c 2
 605 407 l 2
 610 438 612 467 612 493 c 0
 612 510 611 525 609 540 c 1
EndSplineSet
EndChar

StartChar: Ugrave
Encoding: 217 217 156
Width: 770
GlyphClass: 2
Flags: W
AnchorPoint: "LatinBelow.mark" 325 0 basechar 0
AnchorPoint: "LatinAbove.mark" 377 330 basechar 0
LayerCount: 2
Fore
SplineSet
311 955 m 1
 393 1060 l 1
 588 900 l 1
 538 840 l 1
 311 955 l 1
44 246 m 2
 129 780 l 1
 301 780 l 1
 216 246 l 2
 214 234 213 224 213 214 c 0
 213 135 267 103 341 103 c 0
 424 103 496 143 512 246 c 2
 597 780 l 1
 769 780 l 1
 684 246 l 2
 661 99 519 -21 322 -21 c 0
 143 -21 41 78 41 206 c 0
 41 219 42 233 44 246 c 2
EndSplineSet
EndChar

StartChar: Uacute
Encoding: 218 218 157
Width: 770
GlyphClass: 2
Flags: W
AnchorPoint: "LatinBelow.mark" 325 0 basechar 0
AnchorPoint: "LatinAbove.mark" 377 330 basechar 0
LayerCount: 2
Fore
SplineSet
641 955 m 1
 378 840 l 1
 348 900 l 1
 593 1060 l 1
 641 955 l 1
44 246 m 2
 129 780 l 1
 301 780 l 1
 216 246 l 2
 214 234 213 224 213 214 c 0
 213 135 267 103 341 103 c 0
 424 103 496 143 512 246 c 2
 597 780 l 1
 769 780 l 1
 684 246 l 2
 661 99 519 -21 322 -21 c 0
 143 -21 41 78 41 206 c 0
 41 219 42 233 44 246 c 2
EndSplineSet
EndChar

StartChar: Ucircumflex
Encoding: 219 219 158
Width: 770
GlyphClass: 2
Flags: W
AnchorPoint: "LatinBelow.mark" 325 0 basechar 0
AnchorPoint: "LatinAbove.mark" 377 330 basechar 0
LayerCount: 2
Fore
SplineSet
254 875 m 1
 467 1020 l 1
 507 1020 l 1
 674 875 l 1
 621 825 l 1
 469 905 l 1
 291 825 l 1
 254 875 l 1
44 246 m 2
 129 780 l 1
 301 780 l 1
 216 246 l 2
 214 234 213 224 213 214 c 0
 213 135 267 103 341 103 c 0
 424 103 496 143 512 246 c 2
 597 780 l 1
 769 780 l 1
 684 246 l 2
 661 99 519 -21 322 -21 c 0
 143 -21 41 78 41 206 c 0
 41 219 42 233 44 246 c 2
EndSplineSet
EndChar

StartChar: Udieresis
Encoding: 220 220 159
Width: 770
GlyphClass: 2
Flags: W
AnchorPoint: "LatinBelow.mark" 325 0 basechar 0
AnchorPoint: "LatinAbove.mark" 377 330 basechar 0
LayerCount: 2
Fore
SplineSet
360 1009 m 0
 404 1009 434 985 434 945 c 0
 434 940 434 935 433 930 c 0
 425 881 384 851 335 851 c 0
 291 851 262 875 262 915 c 0
 262 920 262 925 263 930 c 0
 271 979 311 1009 360 1009 c 0
610 1009 m 0
 654 1009 684 985 684 945 c 0
 684 940 684 935 683 930 c 0
 675 881 634 851 585 851 c 0
 541 851 512 875 512 915 c 0
 512 920 512 925 513 930 c 0
 521 979 561 1009 610 1009 c 0
44 246 m 2
 129 780 l 1
 301 780 l 1
 216 246 l 2
 214 234 213 224 213 214 c 0
 213 135 267 103 341 103 c 0
 424 103 496 143 512 246 c 2
 597 780 l 1
 769 780 l 1
 684 246 l 2
 661 99 519 -21 322 -21 c 0
 143 -21 41 78 41 206 c 0
 41 219 42 233 44 246 c 2
EndSplineSet
EndChar

StartChar: Yacute
Encoding: 221 221 160
Width: 670
GlyphClass: 2
Flags: W
AnchorPoint: "LatinBelow.mark" 275 0 basechar 0
AnchorPoint: "LatinAbove.mark" 337 330 basechar 0
LayerCount: 2
Fore
SplineSet
591 955 m 1
 328 840 l 1
 298 900 l 1
 543 1060 l 1
 591 955 l 1
54 754 m 1
 56 765 l 1
 249 780 l 1
 346 450 l 1
 549 780 l 1
 736 765 l 1
 734 754 l 1
 406 290 l 1
 360 0 l 1
 190 0 l 1
 236 290 l 1
 54 754 l 1
EndSplineSet
EndChar

StartChar: Thorn
Encoding: 222 222 161
Width: 725
GlyphClass: 2
Flags: W
AnchorPoint: "LatinBelow.mark" 100 0 basechar 0
AnchorPoint: "LatinAbove.mark" 124 150 basechar 0
LayerCount: 2
Fore
SplineSet
228 286 m 1
 252 285 283 283 315 283 c 0
 417 283 505 308 521 407 c 0
 522 415 523 424 523 431 c 0
 523 510 447 531 354 531 c 0
 322 531 291 529 267 528 c 1
 228 286 l 1
286 649 m 1
 320 650 356 651 393 651 c 0
 576 651 692 572 692 444 c 0
 692 432 691 420 689 407 c 0
 665 257 516 163 316 163 c 0
 279 163 243 164 209 165 c 1
 183 0 l 1
 15 0 l 1
 42 172 l 1
 117 642 l 1
 139 780 l 1
 307 780 l 1
 286 649 l 1
EndSplineSet
EndChar

StartChar: germandbls
Encoding: 223 223 162
Width: 780
GlyphClass: 2
Flags: W
AnchorPoint: "LatinBelow.mark" 290 0 basechar 0
AnchorPoint: "LatinAbove.mark" 319 180 basechar 0
LayerCount: 2
Fore
SplineSet
268 148 m 1
 420 158 l 1
 420 156 l 2
 420 114 448 91 484 91 c 0
 522 91 562 108 571 163 c 0
 572 166 572 170 572 173 c 0
 572 208 538 224 527 229 c 0
 493 243 455 262 423 276 c 0
 376 297 324 336 324 409 c 0
 324 417 325 426 326 435 c 0
 342 533 425 609 552 611 c 1
 539 692 474 719 414 719 c 0
 359 719 285 697 265 570 c 2
 175 0 l 1
 15 0 l 1
 105 570 l 2
 130 729 263 831 432 831 c 0
 605 831 690 715 690 586 c 0
 690 577 690 569 689 560 c 1
 603 495 l 1
 595 500 580 510 546 510 c 0
 516 510 485 494 478 450 c 0
 477 446 477 442 477 439 c 0
 477 402 508 388 522 382 c 0
 554 368 594 349 622 337 c 0
 671 317 724 275 724 195 c 0
 724 185 723 174 721 163 c 0
 706 71 618 -21 467 -21 c 0
 309 -21 268 87 268 146 c 2
 268 148 l 1
EndSplineSet
EndChar

StartChar: agrave
Encoding: 224 224 163
Width: 625
GlyphClass: 2
Flags: W
AnchorPoint: "LatinBelow.mark" 270 0 basechar 0
AnchorPoint: "LatinAbove.mark" 279 180 basechar 0
LayerCount: 2
Fore
SplineSet
212 805 m 1
 294 910 l 1
 489 750 l 1
 439 690 l 1
 212 805 l 1
8 174 m 0
 20 249 95 330 245 330 c 0
 297 330 348 327 391 323 c 1
 405 412 l 2
 406 420 407 428 407 435 c 0
 407 490 367 507 320 507 c 0
 273 507 230 481 211 415 c 1
 53 427 l 1
 81 519 175 621 338 621 c 0
 481 621 562 544 562 443 c 0
 562 433 562 422 560 412 c 2
 520 155 l 2
 518 144 517 136 517 128 c 0
 517 102 529 92 564 87 c 1
 507 -16 l 1
 472 -11 411 2 390 56 c 1
 348 15 288 -16 207 -16 c 0
 76 -16 5 45 5 140 c 0
 5 151 6 162 8 174 c 0
384 230 m 1
 344 235 291 239 240 239 c 0
 212 239 170 222 162 172 c 0
 161 165 160 158 160 152 c 0
 160 97 203 79 243 79 c 0
 320 79 359 135 380 203 c 1
 384 230 l 1
EndSplineSet
MultipleSubs2: "Latin.a.decomp subtable" uni0251 uni0300
EndChar

StartChar: aacute
Encoding: 225 225 164
Width: 625
GlyphClass: 2
Flags: W
AnchorPoint: "LatinBelow.mark" 270 0 basechar 0
AnchorPoint: "LatinAbove.mark" 279 180 basechar 0
LayerCount: 2
Fore
SplineSet
542 805 m 1
 279 690 l 1
 249 750 l 1
 494 910 l 1
 542 805 l 1
8 174 m 0
 20 249 95 330 245 330 c 0
 297 330 348 327 391 323 c 1
 405 412 l 2
 406 420 407 428 407 435 c 0
 407 490 367 507 320 507 c 0
 273 507 230 481 211 415 c 1
 53 427 l 1
 81 519 175 621 338 621 c 0
 481 621 562 544 562 443 c 0
 562 433 562 422 560 412 c 2
 520 155 l 2
 518 144 517 136 517 128 c 0
 517 102 529 92 564 87 c 1
 507 -16 l 1
 472 -11 411 2 390 56 c 1
 348 15 288 -16 207 -16 c 0
 76 -16 5 45 5 140 c 0
 5 151 6 162 8 174 c 0
384 230 m 1
 344 235 291 239 240 239 c 0
 212 239 170 222 162 172 c 0
 161 165 160 158 160 152 c 0
 160 97 203 79 243 79 c 0
 320 79 359 135 380 203 c 1
 384 230 l 1
EndSplineSet
MultipleSubs2: "Latin.a.decomp subtable" uni0251 uni0301
EndChar

StartChar: acircumflex
Encoding: 226 226 165
Width: 625
GlyphClass: 2
Flags: W
AnchorPoint: "LatinBelow.mark" 270 0 basechar 0
AnchorPoint: "LatinAbove.mark" 279 180 basechar 0
LayerCount: 2
Fore
SplineSet
155 725 m 1
 368 870 l 1
 408 870 l 1
 575 725 l 1
 522 675 l 1
 370 755 l 1
 192 675 l 1
 155 725 l 1
8 174 m 0
 20 249 95 330 245 330 c 0
 297 330 348 327 391 323 c 1
 405 412 l 2
 406 420 407 428 407 435 c 0
 407 490 367 507 320 507 c 0
 273 507 230 481 211 415 c 1
 53 427 l 1
 81 519 175 621 338 621 c 0
 481 621 562 544 562 443 c 0
 562 433 562 422 560 412 c 2
 520 155 l 2
 518 144 517 136 517 128 c 0
 517 102 529 92 564 87 c 1
 507 -16 l 1
 472 -11 411 2 390 56 c 1
 348 15 288 -16 207 -16 c 0
 76 -16 5 45 5 140 c 0
 5 151 6 162 8 174 c 0
384 230 m 1
 344 235 291 239 240 239 c 0
 212 239 170 222 162 172 c 0
 161 165 160 158 160 152 c 0
 160 97 203 79 243 79 c 0
 320 79 359 135 380 203 c 1
 384 230 l 1
EndSplineSet
MultipleSubs2: "Latin.a.decomp subtable" uni0251 uni0302
EndChar

StartChar: atilde
Encoding: 227 227 166
Width: 625
GlyphClass: 2
Flags: W
AnchorPoint: "LatinBelow.mark" 270 0 basechar 0
AnchorPoint: "LatinAbove.mark" 279 180 basechar 0
LayerCount: 2
Fore
SplineSet
157 740 m 1
 194 806 237 865 312 865 c 0
 372 865 401 835 419 817 c 0
 435 801 444 790 454 790 c 0
 479 790 504 840 516 860 c 1
 591 830 l 1
 554 764 512 705 437 705 c 0
 377 705 347 735 329 753 c 0
 313 769 305 780 295 780 c 0
 270 780 244 730 232 710 c 1
 157 740 l 1
8 174 m 0
 20 249 95 330 245 330 c 0
 297 330 348 327 391 323 c 1
 405 412 l 2
 406 420 407 428 407 435 c 0
 407 490 367 507 320 507 c 0
 273 507 230 481 211 415 c 1
 53 427 l 1
 81 519 175 621 338 621 c 0
 481 621 562 544 562 443 c 0
 562 433 562 422 560 412 c 2
 520 155 l 2
 518 144 517 136 517 128 c 0
 517 102 529 92 564 87 c 1
 507 -16 l 1
 472 -11 411 2 390 56 c 1
 348 15 288 -16 207 -16 c 0
 76 -16 5 45 5 140 c 0
 5 151 6 162 8 174 c 0
384 230 m 1
 344 235 291 239 240 239 c 0
 212 239 170 222 162 172 c 0
 161 165 160 158 160 152 c 0
 160 97 203 79 243 79 c 0
 320 79 359 135 380 203 c 1
 384 230 l 1
EndSplineSet
MultipleSubs2: "Latin.a.decomp subtable" uni0251 uni0303
EndChar

StartChar: adieresis
Encoding: 228 228 167
Width: 625
GlyphClass: 2
Flags: W
AnchorPoint: "LatinBelow.mark" 270 0 basechar 0
AnchorPoint: "LatinAbove.mark" 279 180 basechar 0
LayerCount: 2
Fore
SplineSet
261 859 m 0
 305 859 335 835 335 795 c 0
 335 790 335 785 334 780 c 0
 326 731 285 701 236 701 c 0
 192 701 163 725 163 765 c 0
 163 770 163 775 164 780 c 0
 172 829 212 859 261 859 c 0
511 859 m 0
 555 859 585 835 585 795 c 0
 585 790 585 785 584 780 c 0
 576 731 535 701 486 701 c 0
 442 701 413 725 413 765 c 0
 413 770 413 775 414 780 c 0
 422 829 462 859 511 859 c 0
8 174 m 0
 20 249 95 330 245 330 c 0
 297 330 348 327 391 323 c 1
 405 412 l 2
 406 420 407 428 407 435 c 0
 407 490 367 507 320 507 c 0
 273 507 230 481 211 415 c 1
 53 427 l 1
 81 519 175 621 338 621 c 0
 481 621 562 544 562 443 c 0
 562 433 562 422 560 412 c 2
 520 155 l 2
 518 144 517 136 517 128 c 0
 517 102 529 92 564 87 c 1
 507 -16 l 1
 472 -11 411 2 390 56 c 1
 348 15 288 -16 207 -16 c 0
 76 -16 5 45 5 140 c 0
 5 151 6 162 8 174 c 0
384 230 m 1
 344 235 291 239 240 239 c 0
 212 239 170 222 162 172 c 0
 161 165 160 158 160 152 c 0
 160 97 203 79 243 79 c 0
 320 79 359 135 380 203 c 1
 384 230 l 1
EndSplineSet
MultipleSubs2: "Latin.a.decomp subtable" uni0251 uni0308
EndChar

StartChar: aring
Encoding: 229 229 168
Width: 625
GlyphClass: 2
Flags: W
AnchorPoint: "LatinBelow.mark" 270 0 basechar 0
AnchorPoint: "LatinAbove.mark" 279 180 basechar 0
LayerCount: 2
Fore
SplineSet
352 645 m 0
 286 645 239 682 239 743 c 0
 239 750 240 757 241 765 c 0
 253 839 316 885 390 885 c 0
 456 885 503 848 503 787 c 0
 503 780 502 773 501 765 c 0
 489 691 426 645 352 645 c 0
363 715 m 0
 395 715 416 736 421 765 c 0
 422 769 422 773 422 776 c 0
 422 799 407 815 379 815 c 0
 347 815 326 794 321 765 c 0
 320 761 320 757 320 754 c 0
 320 731 335 715 363 715 c 0
8 174 m 0
 20 249 95 330 245 330 c 0
 297 330 348 327 391 323 c 1
 405 412 l 2
 406 420 407 428 407 435 c 0
 407 490 367 507 320 507 c 0
 273 507 230 481 211 415 c 1
 53 427 l 1
 81 519 175 621 338 621 c 0
 481 621 562 544 562 443 c 0
 562 433 562 422 560 412 c 2
 520 155 l 2
 518 144 517 136 517 128 c 0
 517 102 529 92 564 87 c 1
 507 -16 l 1
 472 -11 411 2 390 56 c 1
 348 15 288 -16 207 -16 c 0
 76 -16 5 45 5 140 c 0
 5 151 6 162 8 174 c 0
384 230 m 1
 344 235 291 239 240 239 c 0
 212 239 170 222 162 172 c 0
 161 165 160 158 160 152 c 0
 160 97 203 79 243 79 c 0
 320 79 359 135 380 203 c 1
 384 230 l 1
EndSplineSet
MultipleSubs2: "Latin.a.decomp subtable" uni0251 uni030A
EndChar

StartChar: ae
Encoding: 230 230 169
Width: 960
GlyphClass: 2
Flags: W
AnchorPoint: "LatinBelow.mark" 420 0 basechar 0
AnchorPoint: "LatinAbove.mark" 420 0 basechar 0
LayerCount: 2
Fore
SplineSet
8 174 m 0
 20 249 95 330 240 330 c 0
 291 330 340 327 381 323 c 1
 395 412 l 2
 396 420 397 428 397 435 c 0
 397 490 358 507 315 507 c 0
 273 507 230 481 211 415 c 1
 53 427 l 1
 81 519 175 621 333 621 c 0
 414 621 474 593 509 548 c 1
 556 592 618 621 701 621 c 0
 856 621 921 516 921 404 c 0
 921 388 919 373 917 357 c 0
 912 326 903 295 892 265 c 1
 528 265 l 1
 526 246 524 228 524 212 c 0
 524 130 556 91 617 91 c 0
 676 91 710 131 722 167 c 1
 874 153 l 1
 852 87 758 -21 600 -21 c 0
 506 -21 450 15 419 67 c 1
 374 19 305 -21 202 -21 c 0
 75 -21 5 44 5 140 c 0
 5 151 6 162 8 174 c 0
547 365 m 1
 768 365 l 1
 770 381 771 394 771 407 c 0
 771 482 735 509 684 509 c 0
 626 509 574 462 547 365 c 1
374 230 m 1
 337 235 290 239 240 239 c 0
 212 239 170 222 162 172 c 0
 161 165 160 159 160 153 c 0
 160 100 201 84 238 84 c 0
 310 84 349 136 370 203 c 1
 374 230 l 1
EndSplineSet
EndChar

StartChar: ccedilla
Encoding: 231 231 170
Width: 605
GlyphClass: 2
Flags: W
AnchorPoint: "LatinAbove.mark" 270 0 basechar 0
LayerCount: 2
Fore
SplineSet
123 -265 m 1
 195 -250 277 -220 277 -171 c 0
 277 -159 267 -150 226 -150 c 0
 214 -150 197 -153 185 -155 c 1
 148 -110 l 1
 213 -18 l 1
 61 2 20 112 20 217 c 0
 20 241 22 265 26 288 c 2
 29 312 l 1
 50 442 132 621 368 621 c 0
 541 621 595 510 596 446 c 1
 432 432 l 1
 431 468 401 505 350 505 c 0
 280 505 214 446 193 312 c 1
 190 288 l 2
 187 266 185 246 185 228 c 0
 185 137 227 95 285 95 c 0
 336 95 378 132 391 168 c 1
 549 154 l 1
 529 94 450 -8 297 -20 c 1
 254 -80 l 1
 330 -80 378 -104 378 -159 c 0
 378 -164 378 -169 377 -175 c 0
 359 -291 192 -323 137 -335 c 1
 123 -265 l 1
EndSplineSet
EndChar

StartChar: egrave
Encoding: 232 232 171
Width: 640
GlyphClass: 2
Flags: W
AnchorPoint: "LatinBelow.mark" 270 0 basechar 0
AnchorPoint: "LatinAbove.mark" 299 180 basechar 0
LayerCount: 2
Fore
SplineSet
232 805 m 1
 314 910 l 1
 509 750 l 1
 459 690 l 1
 232 805 l 1
25 287 m 2
 30 313 l 1
 51 444 138 621 366 621 c 0
 531 621 600 514 600 401 c 0
 600 386 599 372 597 357 c 0
 592 326 583 295 572 265 c 1
 179 265 l 1
 177 251 177 237 177 225 c 0
 177 134 218 91 282 91 c 0
 341 91 385 131 397 167 c 1
 549 153 l 1
 527 87 436 -21 265 -21 c 0
 71 -21 19 101 19 218 c 0
 19 242 21 265 25 287 c 2
197 365 m 1
 448 365 l 1
 450 378 451 390 451 401 c 0
 451 480 406 509 349 509 c 0
 283 509 225 462 197 365 c 1
EndSplineSet
EndChar

StartChar: eacute
Encoding: 233 233 172
Width: 640
GlyphClass: 2
Flags: W
AnchorPoint: "LatinBelow.mark" 270 0 basechar 0
AnchorPoint: "LatinAbove.mark" 299 180 basechar 0
LayerCount: 2
Fore
SplineSet
562 805 m 1
 299 690 l 1
 269 750 l 1
 514 910 l 1
 562 805 l 1
25 287 m 2
 30 313 l 1
 51 444 138 621 366 621 c 0
 531 621 600 514 600 401 c 0
 600 386 599 372 597 357 c 0
 592 326 583 295 572 265 c 1
 179 265 l 1
 177 251 177 237 177 225 c 0
 177 134 218 91 282 91 c 0
 341 91 385 131 397 167 c 1
 549 153 l 1
 527 87 436 -21 265 -21 c 0
 71 -21 19 101 19 218 c 0
 19 242 21 265 25 287 c 2
197 365 m 1
 448 365 l 1
 450 378 451 390 451 401 c 0
 451 480 406 509 349 509 c 0
 283 509 225 462 197 365 c 1
EndSplineSet
EndChar

StartChar: ecircumflex
Encoding: 234 234 173
Width: 640
GlyphClass: 2
Flags: W
AnchorPoint: "LatinBelow.mark" 270 0 basechar 0
AnchorPoint: "LatinAbove.mark" 299 180 basechar 0
LayerCount: 2
Fore
SplineSet
175 725 m 1
 388 870 l 1
 428 870 l 1
 595 725 l 1
 542 675 l 1
 390 755 l 1
 212 675 l 1
 175 725 l 1
25 287 m 2
 30 313 l 1
 51 444 138 621 366 621 c 0
 531 621 600 514 600 401 c 0
 600 386 599 372 597 357 c 0
 592 326 583 295 572 265 c 1
 179 265 l 1
 177 251 177 237 177 225 c 0
 177 134 218 91 282 91 c 0
 341 91 385 131 397 167 c 1
 549 153 l 1
 527 87 436 -21 265 -21 c 0
 71 -21 19 101 19 218 c 0
 19 242 21 265 25 287 c 2
197 365 m 1
 448 365 l 1
 450 378 451 390 451 401 c 0
 451 480 406 509 349 509 c 0
 283 509 225 462 197 365 c 1
EndSplineSet
EndChar

StartChar: edieresis
Encoding: 235 235 174
Width: 640
GlyphClass: 2
Flags: W
AnchorPoint: "LatinBelow.mark" 270 0 basechar 0
AnchorPoint: "LatinAbove.mark" 299 180 basechar 0
LayerCount: 2
Fore
SplineSet
281 859 m 0
 325 859 355 835 355 795 c 0
 355 790 355 785 354 780 c 0
 346 731 305 701 256 701 c 0
 212 701 183 725 183 765 c 0
 183 770 183 775 184 780 c 0
 192 829 232 859 281 859 c 0
531 859 m 0
 575 859 605 835 605 795 c 0
 605 790 605 785 604 780 c 0
 596 731 555 701 506 701 c 0
 462 701 433 725 433 765 c 0
 433 770 433 775 434 780 c 0
 442 829 482 859 531 859 c 0
25 287 m 2
 30 313 l 1
 51 444 138 621 366 621 c 0
 531 621 600 514 600 401 c 0
 600 386 599 372 597 357 c 0
 592 326 583 295 572 265 c 1
 179 265 l 1
 177 251 177 237 177 225 c 0
 177 134 218 91 282 91 c 0
 341 91 385 131 397 167 c 1
 549 153 l 1
 527 87 436 -21 265 -21 c 0
 71 -21 19 101 19 218 c 0
 19 242 21 265 25 287 c 2
197 365 m 1
 448 365 l 1
 450 378 451 390 451 401 c 0
 451 480 406 509 349 509 c 0
 283 509 225 462 197 365 c 1
EndSplineSet
EndChar

StartChar: igrave
Encoding: 236 236 175
Width: 300
GlyphClass: 2
Flags: W
AnchorPoint: "LatinBelow.mark" 90 0 basechar 0
AnchorPoint: "LatinAbove.mark" 119 180 basechar 0
LayerCount: 2
Fore
SplineSet
52 805 m 1
 134 910 l 1
 329 750 l 1
 279 690 l 1
 52 805 l 1
10 0 m 1
 105 600 l 1
 265 600 l 1
 170 0 l 1
 10 0 l 1
EndSplineSet
EndChar

StartChar: iacute
Encoding: 237 237 176
Width: 300
GlyphClass: 2
Flags: W
AnchorPoint: "LatinBelow.mark" 90 0 basechar 0
AnchorPoint: "LatinAbove.mark" 119 180 basechar 0
LayerCount: 2
Fore
SplineSet
382 805 m 1
 119 690 l 1
 89 750 l 1
 334 910 l 1
 382 805 l 1
10 0 m 1
 105 600 l 1
 265 600 l 1
 170 0 l 1
 10 0 l 1
EndSplineSet
EndChar

StartChar: icircumflex
Encoding: 238 238 177
Width: 300
GlyphClass: 2
Flags: W
AnchorPoint: "LatinBelow.mark" 90 0 basechar 0
AnchorPoint: "LatinAbove.mark" 119 180 basechar 0
LayerCount: 2
Fore
SplineSet
-5 725 m 1
 208 870 l 1
 248 870 l 1
 415 725 l 1
 362 675 l 1
 210 755 l 1
 32 675 l 1
 -5 725 l 1
10 0 m 1
 105 600 l 1
 265 600 l 1
 170 0 l 1
 10 0 l 1
EndSplineSet
EndChar

StartChar: idieresis
Encoding: 239 239 178
Width: 300
GlyphClass: 2
Flags: W
AnchorPoint: "LatinBelow.mark" 90 0 basechar 0
AnchorPoint: "LatinAbove.mark" 119 180 basechar 0
LayerCount: 2
Fore
SplineSet
101 859 m 0
 145 859 175 835 175 795 c 0
 175 790 175 785 174 780 c 0
 166 731 125 701 76 701 c 0
 32 701 3 725 3 765 c 0
 3 770 3 775 4 780 c 0
 12 829 52 859 101 859 c 0
351 859 m 0
 395 859 425 835 425 795 c 0
 425 790 425 785 424 780 c 0
 416 731 375 701 326 701 c 0
 282 701 253 725 253 765 c 0
 253 770 253 775 254 780 c 0
 262 829 302 859 351 859 c 0
10 0 m 1
 105 600 l 1
 265 600 l 1
 170 0 l 1
 10 0 l 1
EndSplineSet
EndChar

StartChar: eth
Encoding: 240 240 179
Width: 660
GlyphClass: 2
Flags: W
AnchorPoint: "LatinBelow.mark" 270 0 basechar 0
AnchorPoint: "LatinAbove.mark" 319 180 basechar 0
LayerCount: 2
Fore
SplineSet
458 799 m 1
 602 834 l 1
 610 756 l 1
 517 734 l 1
 588 642 619 537 619 423 c 0
 619 387 616 350 610 313 c 2
 605 287 l 2
 584 157 503 -21 267 -21 c 0
 71 -21 19 102 19 218 c 0
 19 242 21 265 25 287 c 2
 29 312 l 2
 50 442 143 611 332 611 c 0
 376 611 410 598 439 577 c 1
 425 621 403 662 371 699 c 1
 173 651 l 1
 165 729 l 1
 305 762 l 1
 293 772 279 782 265 791 c 1
 368 871 l 1
 401 848 432 824 458 799 c 1
457 372 m 1
 448 447 403 495 333 495 c 0
 268 495 211 449 189 312 c 2
 185 287 l 2
 182 265 180 245 180 227 c 0
 180 135 222 91 284 91 c 0
 358 91 424 153 445 287 c 1
 450 313 l 2
 453 333 455 353 457 372 c 1
EndSplineSet
EndChar

StartChar: ntilde
Encoding: 241 241 180
Width: 655
GlyphClass: 2
Flags: W
AnchorPoint: "LatinBelow.mark" 300 0 basechar 0
LayerCount: 2
Fore
SplineSet
177 740 m 1
 214 806 257 865 332 865 c 0
 392 865 421 835 439 817 c 0
 455 801 464 790 474 790 c 0
 499 790 524 840 536 860 c 1
 611 830 l 1
 574 764 532 705 457 705 c 0
 397 705 367 735 349 753 c 0
 333 769 325 780 315 780 c 0
 290 780 264 730 252 710 c 1
 177 740 l 1
10 0 m 1
 77 420 l 1
 94 591 l 1
 241 603 l 1
 238 484 l 1
 289 556 363 616 463 616 c 0
 567 616 608 539 608 452 c 0
 608 437 606 421 604 406 c 2
 540 0 l 1
 380 0 l 1
 443 400 l 2
 445 412 446 422 446 431 c 0
 446 482 418 490 398 490 c 0
 331 490 253 405 218 305 c 1
 170 0 l 1
 10 0 l 1
EndSplineSet
EndChar

StartChar: ograve
Encoding: 242 242 181
Width: 660
GlyphClass: 2
Flags: W
AnchorPoint: "LatinBelow.mark" 270 0 basechar 0
AnchorPoint: "LatinAbove.mark" 299 180 basechar 0
LayerCount: 2
Fore
SplineSet
232 805 m 1
 314 910 l 1
 509 750 l 1
 459 690 l 1
 232 805 l 1
25 287 m 2
 30 313 l 2
 51 443 133 621 368 621 c 0
 563 621 616 498 616 382 c 0
 616 358 614 335 610 313 c 2
 605 287 l 2
 584 157 502 -21 267 -21 c 0
 72 -21 19 102 19 218 c 0
 19 242 21 265 25 287 c 2
285 93 m 0
 360 93 424 153 445 287 c 1
 450 313 l 2
 453 335 455 355 455 373 c 0
 455 465 413 507 350 507 c 0
 275 507 211 447 190 313 c 1
 185 287 l 2
 182 265 180 245 180 227 c 0
 180 135 222 93 285 93 c 0
EndSplineSet
EndChar

StartChar: oacute
Encoding: 243 243 182
Width: 660
GlyphClass: 2
Flags: W
AnchorPoint: "LatinBelow.mark" 270 0 basechar 0
AnchorPoint: "LatinAbove.mark" 299 180 basechar 0
LayerCount: 2
Fore
SplineSet
562 805 m 1
 299 690 l 1
 269 750 l 1
 514 910 l 1
 562 805 l 1
25 287 m 2
 30 313 l 2
 51 443 133 621 368 621 c 0
 563 621 616 498 616 382 c 0
 616 358 614 335 610 313 c 2
 605 287 l 2
 584 157 502 -21 267 -21 c 0
 72 -21 19 102 19 218 c 0
 19 242 21 265 25 287 c 2
285 93 m 0
 360 93 424 153 445 287 c 1
 450 313 l 2
 453 335 455 355 455 373 c 0
 455 465 413 507 350 507 c 0
 275 507 211 447 190 313 c 1
 185 287 l 2
 182 265 180 245 180 227 c 0
 180 135 222 93 285 93 c 0
EndSplineSet
EndChar

StartChar: ocircumflex
Encoding: 244 244 183
Width: 660
GlyphClass: 2
Flags: W
AnchorPoint: "LatinBelow.mark" 270 0 basechar 0
AnchorPoint: "LatinAbove.mark" 299 180 basechar 0
LayerCount: 2
Fore
SplineSet
175 725 m 1
 388 870 l 1
 428 870 l 1
 595 725 l 1
 542 675 l 1
 390 755 l 1
 212 675 l 1
 175 725 l 1
25 287 m 2
 30 313 l 2
 51 443 133 621 368 621 c 0
 563 621 616 498 616 382 c 0
 616 358 614 335 610 313 c 2
 605 287 l 2
 584 157 502 -21 267 -21 c 0
 72 -21 19 102 19 218 c 0
 19 242 21 265 25 287 c 2
285 93 m 0
 360 93 424 153 445 287 c 1
 450 313 l 2
 453 335 455 355 455 373 c 0
 455 465 413 507 350 507 c 0
 275 507 211 447 190 313 c 1
 185 287 l 2
 182 265 180 245 180 227 c 0
 180 135 222 93 285 93 c 0
EndSplineSet
EndChar

StartChar: otilde
Encoding: 245 245 184
Width: 660
GlyphClass: 2
Flags: W
AnchorPoint: "LatinBelow.mark" 270 0 basechar 0
AnchorPoint: "LatinAbove.mark" 299 180 basechar 0
LayerCount: 2
Fore
SplineSet
177 740 m 1
 214 806 257 865 332 865 c 0
 392 865 421 835 439 817 c 0
 455 801 464 790 474 790 c 0
 499 790 524 840 536 860 c 1
 611 830 l 1
 574 764 532 705 457 705 c 0
 397 705 367 735 349 753 c 0
 333 769 325 780 315 780 c 0
 290 780 264 730 252 710 c 1
 177 740 l 1
25 287 m 2
 30 313 l 2
 51 443 133 621 368 621 c 0
 563 621 616 498 616 382 c 0
 616 358 614 335 610 313 c 2
 605 287 l 2
 584 157 502 -21 267 -21 c 0
 72 -21 19 102 19 218 c 0
 19 242 21 265 25 287 c 2
285 93 m 0
 360 93 424 153 445 287 c 1
 450 313 l 2
 453 335 455 355 455 373 c 0
 455 465 413 507 350 507 c 0
 275 507 211 447 190 313 c 1
 185 287 l 2
 182 265 180 245 180 227 c 0
 180 135 222 93 285 93 c 0
EndSplineSet
EndChar

StartChar: odieresis
Encoding: 246 246 185
Width: 660
GlyphClass: 2
Flags: W
AnchorPoint: "LatinBelow.mark" 270 0 basechar 0
AnchorPoint: "LatinAbove.mark" 299 180 basechar 0
LayerCount: 2
Fore
SplineSet
281 859 m 0
 325 859 355 835 355 795 c 0
 355 790 355 785 354 780 c 0
 346 731 305 701 256 701 c 0
 212 701 183 725 183 765 c 0
 183 770 183 775 184 780 c 0
 192 829 232 859 281 859 c 0
531 859 m 0
 575 859 605 835 605 795 c 0
 605 790 605 785 604 780 c 0
 596 731 555 701 506 701 c 0
 462 701 433 725 433 765 c 0
 433 770 433 775 434 780 c 0
 442 829 482 859 531 859 c 0
25 287 m 2
 30 313 l 2
 51 443 133 621 368 621 c 0
 563 621 616 498 616 382 c 0
 616 358 614 335 610 313 c 2
 605 287 l 2
 584 157 502 -21 267 -21 c 0
 72 -21 19 102 19 218 c 0
 19 242 21 265 25 287 c 2
285 93 m 0
 360 93 424 153 445 287 c 1
 450 313 l 2
 453 335 455 355 455 373 c 0
 455 465 413 507 350 507 c 0
 275 507 211 447 190 313 c 1
 185 287 l 2
 182 265 180 245 180 227 c 0
 180 135 222 93 285 93 c 0
EndSplineSet
EndChar

StartChar: divide
Encoding: 247 247 186
Width: 600
GlyphClass: 2
Flags: W
LayerCount: 2
Fore
SplineSet
63 305 m 1
 81 415 l 1
 531 415 l 1
 513 305 l 1
 63 305 l 1
191 195 m 0
 198 241 238 269 283 269 c 0
 324 269 352 246 352 208 c 0
 352 204 352 199 351 195 c 0
 344 149 304 121 259 121 c 0
 218 121 190 144 190 182 c 0
 190 186 190 191 191 195 c 0
243 525 m 0
 250 571 290 599 335 599 c 0
 376 599 404 576 404 538 c 0
 404 534 404 529 403 525 c 0
 396 479 356 451 311 451 c 0
 270 451 242 474 242 512 c 0
 242 516 242 521 243 525 c 0
EndSplineSet
EndChar

StartChar: oslash
Encoding: 248 248 187
Width: 660
GlyphClass: 2
Flags: W
AnchorPoint: "LatinBelow.mark" 270 0 basechar 0
AnchorPoint: "LatinAbove.mark" 270 0 basechar 0
LayerCount: 2
Fore
SplineSet
25 287 m 2
 30 313 l 2
 51 443 133 621 368 621 c 0
 442 621 496 603 534 575 c 1
 578 621 l 1
 636 575 l 1
 582 520 l 1
 606 478 615 427 615 378 c 0
 615 356 613 334 610 313 c 2
 605 287 l 2
 584 157 502 -21 267 -21 c 0
 193 -21 139 -3 101 25 c 1
 57 -21 l 1
 -1 25 l 1
 53 80 l 1
 29 122 20 173 20 222 c 0
 20 244 22 266 25 287 c 2
430 469 m 1
 412 495 384 507 350 507 c 0
 275 507 211 447 190 313 c 1
 185 287 l 2
 182 267 180 247 180 230 c 0
 180 224 180 218 181 212 c 1
 430 469 l 1
454 388 m 1
 205 131 l 1
 223 105 251 93 285 93 c 0
 360 93 424 153 445 287 c 1
 450 313 l 2
 453 333 455 353 455 370 c 0
 455 376 455 382 454 388 c 1
EndSplineSet
EndChar

StartChar: ugrave
Encoding: 249 249 188
Width: 620
GlyphClass: 2
Flags: W
AnchorPoint: "LatinBelow.mark" 250 0 basechar 0
AnchorPoint: "LatinAbove.mark" 279 180 basechar 0
LayerCount: 2
Fore
SplineSet
212 805 m 1
 294 910 l 1
 489 750 l 1
 439 690 l 1
 212 805 l 1
21 194 m 2
 85 600 l 1
 245 600 l 1
 181 194 l 2
 180 185 179 177 179 169 c 0
 179 112 217 93 265 93 c 0
 319 93 369 118 381 194 c 2
 445 600 l 1
 605 600 l 1
 541 194 l 2
 523 78 409 -21 247 -21 c 0
 100 -21 19 61 19 163 c 0
 19 173 19 183 21 194 c 2
EndSplineSet
EndChar

StartChar: uacute
Encoding: 250 250 189
Width: 620
GlyphClass: 2
Flags: W
AnchorPoint: "LatinBelow.mark" 250 0 basechar 0
AnchorPoint: "LatinAbove.mark" 279 180 basechar 0
LayerCount: 2
Fore
SplineSet
542 805 m 1
 279 690 l 1
 249 750 l 1
 494 910 l 1
 542 805 l 1
21 194 m 2
 85 600 l 1
 245 600 l 1
 181 194 l 2
 180 185 179 177 179 169 c 0
 179 112 217 93 265 93 c 0
 319 93 369 118 381 194 c 2
 445 600 l 1
 605 600 l 1
 541 194 l 2
 523 78 409 -21 247 -21 c 0
 100 -21 19 61 19 163 c 0
 19 173 19 183 21 194 c 2
EndSplineSet
EndChar

StartChar: ucircumflex
Encoding: 251 251 190
Width: 620
GlyphClass: 2
Flags: W
AnchorPoint: "LatinBelow.mark" 250 0 basechar 0
AnchorPoint: "LatinAbove.mark" 279 180 basechar 0
LayerCount: 2
Fore
SplineSet
155 725 m 1
 368 870 l 1
 408 870 l 1
 575 725 l 1
 522 675 l 1
 370 755 l 1
 192 675 l 1
 155 725 l 1
21 194 m 2
 85 600 l 1
 245 600 l 1
 181 194 l 2
 180 185 179 177 179 169 c 0
 179 112 217 93 265 93 c 0
 319 93 369 118 381 194 c 2
 445 600 l 1
 605 600 l 1
 541 194 l 2
 523 78 409 -21 247 -21 c 0
 100 -21 19 61 19 163 c 0
 19 173 19 183 21 194 c 2
EndSplineSet
EndChar

StartChar: udieresis
Encoding: 252 252 191
Width: 620
GlyphClass: 2
Flags: W
AnchorPoint: "LatinBelow.mark" 250 0 basechar 0
AnchorPoint: "LatinAbove.mark" 279 180 basechar 0
LayerCount: 2
Fore
SplineSet
261 859 m 0
 305 859 335 835 335 795 c 0
 335 790 335 785 334 780 c 0
 326 731 285 701 236 701 c 0
 192 701 163 725 163 765 c 0
 163 770 163 775 164 780 c 0
 172 829 212 859 261 859 c 0
511 859 m 0
 555 859 585 835 585 795 c 0
 585 790 585 785 584 780 c 0
 576 731 535 701 486 701 c 0
 442 701 413 725 413 765 c 0
 413 770 413 775 414 780 c 0
 422 829 462 859 511 859 c 0
21 194 m 2
 85 600 l 1
 245 600 l 1
 181 194 l 2
 180 185 179 177 179 169 c 0
 179 112 217 93 265 93 c 0
 319 93 369 118 381 194 c 2
 445 600 l 1
 605 600 l 1
 541 194 l 2
 523 78 409 -21 247 -21 c 0
 100 -21 19 61 19 163 c 0
 19 173 19 183 21 194 c 2
EndSplineSet
EndChar

StartChar: yacute
Encoding: 253 253 192
Width: 600
GlyphClass: 2
Flags: W
AnchorPoint: "LatinBelow.mark" 211 -180 basechar 0
AnchorPoint: "LatinAbove.mark" 269 180 basechar 0
LayerCount: 2
Fore
SplineSet
532 805 m 1
 269 690 l 1
 239 750 l 1
 484 910 l 1
 532 805 l 1
32 580 m 1
 33 588 l 1
 210 600 l 1
 274 200 l 1
 460 600 l 1
 633 588 l 1
 632 580 l 1
 303 -15 l 1
 236 -124 181 -231 41 -231 c 0
 -17 -231 -56 -209 -80 -189 c 1
 10 -95 l 1
 23 -108 37 -121 54 -121 c 0
 93 -121 120 -81 173 8 c 1
 32 580 l 1
EndSplineSet
EndChar

StartChar: thorn
Encoding: 254 254 193
Width: 675
GlyphClass: 2
Flags: W
AnchorPoint: "LatinBelow.mark" 61 -180 basechar 0
AnchorPoint: "LatinAbove.mark" 104 180 basechar 0
LayerCount: 2
Fore
SplineSet
621 290 m 2
 600 160 506 -16 317 -16 c 0
 253 -16 208 13 179 55 c 1
 137 -210 l 1
 -23 -210 l 1
 138 810 l 1
 293 810 l 1
 250 539 l 1
 294 584 351 616 418 616 c 0
 577 616 629 491 629 374 c 0
 629 352 627 331 624 310 c 2
 621 290 l 2
204 217 m 1
 214 148 250 100 316 100 c 0
 381 100 439 153 461 290 c 2
 464 310 l 2
 468 335 470 357 470 377 c 0
 470 465 432 500 379 500 c 0
 313 500 263 452 231 383 c 1
 204 217 l 1
EndSplineSet
EndChar

StartChar: ydieresis
Encoding: 255 255 194
Width: 600
GlyphClass: 2
Flags: W
AnchorPoint: "LatinBelow.mark" 211 -180 basechar 0
AnchorPoint: "LatinAbove.mark" 269 180 basechar 0
LayerCount: 2
Fore
SplineSet
251 859 m 0
 295 859 325 835 325 795 c 0
 325 790 325 785 324 780 c 0
 316 731 275 701 226 701 c 0
 182 701 153 725 153 765 c 0
 153 770 153 775 154 780 c 0
 162 829 202 859 251 859 c 0
501 859 m 0
 545 859 575 835 575 795 c 0
 575 790 575 785 574 780 c 0
 566 731 525 701 476 701 c 0
 432 701 403 725 403 765 c 0
 403 770 403 775 404 780 c 0
 412 829 452 859 501 859 c 0
32 580 m 1
 33 588 l 1
 210 600 l 1
 274 200 l 1
 460 600 l 1
 633 588 l 1
 632 580 l 1
 303 -15 l 1
 236 -124 181 -231 41 -231 c 0
 -17 -231 -56 -209 -80 -189 c 1
 10 -95 l 1
 23 -108 37 -121 54 -121 c 0
 93 -121 120 -81 173 8 c 1
 32 580 l 1
EndSplineSet
EndChar

StartChar: Amacron
Encoding: 256 256 195
Width: 750
GlyphClass: 2
Flags: W
AnchorPoint: "LatinBelow.mark" 315 0 basechar 0
AnchorPoint: "LatinAbove.mark" 367 330 basechar 0
LayerCount: 2
Fore
SplineSet
245 880 m 1
 260 980 l 1
 680 980 l 1
 665 880 l 1
 245 880 l 1
690 0 m 1
 500 0 l 1
 475 150 l 1
 203 150 l 1
 130 0 l 1
 -60 0 l 1
 -58 11 l 1
 369 780 l 1
 509 780 l 1
 692 11 l 1
 690 0 l 1
455 270 m 1
 405 566 l 1
 261 270 l 1
 455 270 l 1
EndSplineSet
EndChar

StartChar: amacron
Encoding: 257 257 196
Width: 625
GlyphClass: 2
Flags: W
AnchorPoint: "LatinBelow.mark" 270 0 basechar 0
AnchorPoint: "LatinAbove.mark" 279 180 basechar 0
LayerCount: 2
Fore
SplineSet
156 730 m 1
 171 830 l 1
 591 830 l 1
 576 730 l 1
 156 730 l 1
8 174 m 0
 20 249 95 330 245 330 c 0
 297 330 348 327 391 323 c 1
 405 412 l 2
 406 420 407 428 407 435 c 0
 407 490 367 507 320 507 c 0
 273 507 230 481 211 415 c 1
 53 427 l 1
 81 519 175 621 338 621 c 0
 481 621 562 544 562 443 c 0
 562 433 562 422 560 412 c 2
 520 155 l 2
 518 144 517 136 517 128 c 0
 517 102 529 92 564 87 c 1
 507 -16 l 1
 472 -11 411 2 390 56 c 1
 348 15 288 -16 207 -16 c 0
 76 -16 5 45 5 140 c 0
 5 151 6 162 8 174 c 0
384 230 m 1
 344 235 291 239 240 239 c 0
 212 239 170 222 162 172 c 0
 161 165 160 158 160 152 c 0
 160 97 203 79 243 79 c 0
 320 79 359 135 380 203 c 1
 384 230 l 1
EndSplineSet
MultipleSubs2: "Latin.a.decomp subtable" uni0251 uni0304
EndChar

StartChar: Abreve
Encoding: 258 258 197
Width: 750
GlyphClass: 2
Flags: W
AnchorPoint: "LatinBelow.mark" 315 0 basechar 0
AnchorPoint: "LatinAbove.mark" 367 330 basechar 0
LayerCount: 2
Fore
SplineSet
261 984 m 1
 362 1015 l 1
 368 981 385 935 463 935 c 0
 541 935 574 981 590 1015 c 1
 681 984 l 1
 649 916 578 840 448 840 c 0
 318 840 271 916 261 984 c 1
690 0 m 1
 500 0 l 1
 475 150 l 1
 203 150 l 1
 130 0 l 1
 -60 0 l 1
 -58 11 l 1
 369 780 l 1
 509 780 l 1
 692 11 l 1
 690 0 l 1
455 270 m 1
 405 566 l 1
 261 270 l 1
 455 270 l 1
EndSplineSet
EndChar

StartChar: abreve
Encoding: 259 259 198
Width: 625
GlyphClass: 2
Flags: W
AnchorPoint: "LatinBelow.mark" 270 0 basechar 0
AnchorPoint: "LatinAbove.mark" 279 180 basechar 0
LayerCount: 2
Fore
SplineSet
172 834 m 1
 273 865 l 1
 279 831 296 785 374 785 c 0
 452 785 485 831 501 865 c 1
 592 834 l 1
 560 766 489 690 359 690 c 0
 229 690 182 766 172 834 c 1
8 174 m 0
 20 249 95 330 245 330 c 0
 297 330 348 327 391 323 c 1
 405 412 l 2
 406 420 407 428 407 435 c 0
 407 490 367 507 320 507 c 0
 273 507 230 481 211 415 c 1
 53 427 l 1
 81 519 175 621 338 621 c 0
 481 621 562 544 562 443 c 0
 562 433 562 422 560 412 c 2
 520 155 l 2
 518 144 517 136 517 128 c 0
 517 102 529 92 564 87 c 1
 507 -16 l 1
 472 -11 411 2 390 56 c 1
 348 15 288 -16 207 -16 c 0
 76 -16 5 45 5 140 c 0
 5 151 6 162 8 174 c 0
384 230 m 1
 344 235 291 239 240 239 c 0
 212 239 170 222 162 172 c 0
 161 165 160 158 160 152 c 0
 160 97 203 79 243 79 c 0
 320 79 359 135 380 203 c 1
 384 230 l 1
EndSplineSet
MultipleSubs2: "Latin.a.decomp subtable" uni0251 uni0306
EndChar

StartChar: Aogonek
Encoding: 260 260 199
Width: 750
GlyphClass: 2
Flags: W
AnchorPoint: "LatinAbove.mark" 339 150 basechar 0
LayerCount: 2
Fore
SplineSet
455 270 m 1
 405 566 l 1
 261 270 l 1
 455 270 l 1
574 0 m 1
 500 0 l 1
 475 150 l 1
 203 150 l 1
 130 0 l 1
 -60 0 l 1
 -58 11 l 1
 369 780 l 1
 509 780 l 1
 692 11 l 1
 690 0 l 1
 662 0 l 1
 636 -28 609 -69 600 -125 c 0
 599 -131 599 -137 599 -142 c 0
 599 -173 616 -180 636 -180 c 0
 662 -180 692 -169 699 -165 c 1
 712 -238 l 1
 683 -252 645 -260 604 -260 c 0
 532 -260 496 -221 496 -164 c 0
 496 -156 497 -148 498 -140 c 0
 507 -84 538 -36 574 0 c 1
EndSplineSet
EndChar

StartChar: aogonek
Encoding: 261 261 200
Width: 625
GlyphClass: 2
Flags: W
AnchorPoint: "LatinAbove.mark" 250 0 basechar 0
LayerCount: 2
Fore
SplineSet
384 230 m 1
 344 235 291 239 240 239 c 0
 212 239 170 222 162 172 c 0
 161 165 160 158 160 152 c 0
 160 97 203 79 243 79 c 0
 320 79 359 135 380 203 c 1
 384 230 l 1
8 174 m 0
 20 249 95 330 245 330 c 0
 297 330 348 327 391 323 c 1
 405 412 l 2
 406 420 407 428 407 435 c 0
 407 490 367 507 320 507 c 0
 273 507 230 481 211 415 c 1
 53 427 l 1
 81 519 175 621 338 621 c 0
 481 621 562 544 562 443 c 0
 562 433 562 422 560 412 c 2
 520 155 l 2
 518 144 517 136 517 128 c 0
 517 102 529 92 564 87 c 1
 507 -16 l 2
 503 -15 500 -15 495 -14 c 1
 473 -41 452 -78 445 -125 c 0
 444 -131 444 -137 444 -142 c 0
 444 -173 461 -180 481 -180 c 0
 507 -180 537 -169 544 -165 c 1
 557 -238 l 1
 528 -252 490 -260 449 -260 c 0
 377 -260 341 -221 341 -164 c 0
 341 -156 342 -148 343 -140 c 0
 353 -78 390 -27 429 10 c 1
 413 21 399 35 390 56 c 1
 348 15 288 -16 207 -16 c 0
 76 -16 5 45 5 140 c 0
 5 151 6 162 8 174 c 0
EndSplineSet
MultipleSubs2: "Latin.a.decomp subtable" uni0251 uni0328
EndChar

StartChar: Cacute
Encoding: 262 262 201
Width: 755
GlyphClass: 2
Flags: W
AnchorPoint: "LatinBelow.mark" 350 0 basechar 0
LayerCount: 2
Fore
SplineSet
666 955 m 1
 403 840 l 1
 373 900 l 1
 618 1060 l 1
 666 955 l 1
44 375 m 2
 49 405 l 2
 77 580 190 801 479 801 c 0
 691 801 760 664 762 582 c 1
 586 566 l 1
 585 616 545 673 459 673 c 0
 342 673 255 582 227 405 c 2
 222 375 l 2
 217 345 215 318 215 293 c 0
 215 170 272 107 369 107 c 0
 455 107 513 164 530 214 c 1
 701 198 l 1
 673 116 561 -21 349 -21 c 0
 107 -21 37 134 37 287 c 0
 37 317 39 347 44 375 c 2
EndSplineSet
EndChar

StartChar: cacute
Encoding: 263 263 202
Width: 605
GlyphClass: 2
Flags: W
AnchorPoint: "LatinBelow.mark" 270 0 basechar 0
LayerCount: 2
Fore
SplineSet
562 805 m 1
 299 690 l 1
 269 750 l 1
 514 910 l 1
 562 805 l 1
391 168 m 1
 549 154 l 1
 528 90 440 -21 267 -21 c 0
 72 -21 20 102 20 218 c 0
 20 242 22 266 26 288 c 2
 29 312 l 1
 50 442 132 621 368 621 c 0
 541 621 595 510 596 446 c 1
 432 432 l 1
 431 468 401 505 350 505 c 0
 280 505 214 446 193 312 c 1
 190 288 l 2
 187 266 185 246 185 228 c 0
 185 137 227 95 285 95 c 0
 336 95 378 132 391 168 c 1
EndSplineSet
EndChar

StartChar: Ccircumflex
Encoding: 264 264 203
Width: 755
GlyphClass: 2
Flags: W
AnchorPoint: "LatinBelow.mark" 350 0 basechar 0
LayerCount: 2
Fore
SplineSet
279 875 m 1
 492 1020 l 1
 532 1020 l 1
 699 875 l 1
 646 825 l 1
 494 905 l 1
 316 825 l 1
 279 875 l 1
44 375 m 2
 49 405 l 2
 77 580 190 801 479 801 c 0
 691 801 760 664 762 582 c 1
 586 566 l 1
 585 616 545 673 459 673 c 0
 342 673 255 582 227 405 c 2
 222 375 l 2
 217 345 215 318 215 293 c 0
 215 170 272 107 369 107 c 0
 455 107 513 164 530 214 c 1
 701 198 l 1
 673 116 561 -21 349 -21 c 0
 107 -21 37 134 37 287 c 0
 37 317 39 347 44 375 c 2
EndSplineSet
EndChar

StartChar: ccircumflex
Encoding: 265 265 204
Width: 605
GlyphClass: 2
Flags: W
AnchorPoint: "LatinBelow.mark" 270 0 basechar 0
LayerCount: 2
Fore
SplineSet
175 725 m 1
 388 870 l 1
 428 870 l 1
 595 725 l 1
 542 675 l 1
 390 755 l 1
 212 675 l 1
 175 725 l 1
391 168 m 1
 549 154 l 1
 528 90 440 -21 267 -21 c 0
 72 -21 20 102 20 218 c 0
 20 242 22 266 26 288 c 2
 29 312 l 1
 50 442 132 621 368 621 c 0
 541 621 595 510 596 446 c 1
 432 432 l 1
 431 468 401 505 350 505 c 0
 280 505 214 446 193 312 c 1
 190 288 l 2
 187 266 185 246 185 228 c 0
 185 137 227 95 285 95 c 0
 336 95 378 132 391 168 c 1
EndSplineSet
EndChar

StartChar: Cdotaccent
Encoding: 266 266 205
Width: 755
GlyphClass: 2
Flags: W
AnchorPoint: "LatinBelow.mark" 350 0 basechar 0
LayerCount: 2
Fore
SplineSet
403 930 m 0
 412 984 457 1018 511 1018 c 0
 560 1018 594 991 594 946 c 0
 594 941 594 935 593 930 c 0
 584 876 538 842 484 842 c 0
 436 842 402 869 402 914 c 0
 402 919 402 924 403 930 c 0
44 375 m 2
 49 405 l 2
 77 580 190 801 479 801 c 0
 691 801 760 664 762 582 c 1
 586 566 l 1
 585 616 545 673 459 673 c 0
 342 673 255 582 227 405 c 2
 222 375 l 2
 217 345 215 318 215 293 c 0
 215 170 272 107 369 107 c 0
 455 107 513 164 530 214 c 1
 701 198 l 1
 673 116 561 -21 349 -21 c 0
 107 -21 37 134 37 287 c 0
 37 317 39 347 44 375 c 2
EndSplineSet
EndChar

StartChar: cdotaccent
Encoding: 267 267 206
Width: 605
GlyphClass: 2
Flags: W
AnchorPoint: "LatinBelow.mark" 270 0 basechar 0
LayerCount: 2
Fore
SplineSet
299 780 m 0
 308 834 353 868 407 868 c 0
 456 868 490 841 490 796 c 0
 490 791 490 785 489 780 c 0
 480 726 434 692 380 692 c 0
 332 692 298 719 298 764 c 0
 298 769 298 774 299 780 c 0
391 168 m 1
 549 154 l 1
 528 90 440 -21 267 -21 c 0
 72 -21 20 102 20 218 c 0
 20 242 22 266 26 288 c 2
 29 312 l 1
 50 442 132 621 368 621 c 0
 541 621 595 510 596 446 c 1
 432 432 l 1
 431 468 401 505 350 505 c 0
 280 505 214 446 193 312 c 1
 190 288 l 2
 187 266 185 246 185 228 c 0
 185 137 227 95 285 95 c 0
 336 95 378 132 391 168 c 1
EndSplineSet
EndChar

StartChar: Ccaron
Encoding: 268 268 207
Width: 755
GlyphClass: 2
Flags: W
AnchorPoint: "LatinBelow.mark" 350 0 basechar 0
LayerCount: 2
Fore
SplineSet
715 980 m 1
 502 835 l 1
 462 835 l 1
 295 980 l 1
 348 1030 l 1
 501 950 l 1
 678 1030 l 1
 715 980 l 1
44 375 m 2
 49 405 l 2
 77 580 190 801 479 801 c 0
 691 801 760 664 762 582 c 1
 586 566 l 1
 585 616 545 673 459 673 c 0
 342 673 255 582 227 405 c 2
 222 375 l 2
 217 345 215 318 215 293 c 0
 215 170 272 107 369 107 c 0
 455 107 513 164 530 214 c 1
 701 198 l 1
 673 116 561 -21 349 -21 c 0
 107 -21 37 134 37 287 c 0
 37 317 39 347 44 375 c 2
EndSplineSet
EndChar

StartChar: ccaron
Encoding: 269 269 208
Width: 605
GlyphClass: 2
Flags: W
AnchorPoint: "LatinBelow.mark" 270 0 basechar 0
LayerCount: 2
Fore
SplineSet
611 830 m 1
 398 685 l 1
 358 685 l 1
 191 830 l 1
 244 880 l 1
 397 800 l 1
 574 880 l 1
 611 830 l 1
391 168 m 1
 549 154 l 1
 528 90 440 -21 267 -21 c 0
 72 -21 20 102 20 218 c 0
 20 242 22 266 26 288 c 2
 29 312 l 1
 50 442 132 621 368 621 c 0
 541 621 595 510 596 446 c 1
 432 432 l 1
 431 468 401 505 350 505 c 0
 280 505 214 446 193 312 c 1
 190 288 l 2
 187 266 185 246 185 228 c 0
 185 137 227 95 285 95 c 0
 336 95 378 132 391 168 c 1
EndSplineSet
EndChar

StartChar: Dcaron
Encoding: 270 270 209
Width: 770
GlyphClass: 2
Flags: W
AnchorPoint: "LatinBelow.mark" 260 0 basechar 0
LayerCount: 2
Fore
SplineSet
625 980 m 1
 412 835 l 1
 372 835 l 1
 205 980 l 1
 258 1030 l 1
 411 950 l 1
 588 1030 l 1
 625 980 l 1
203 114 m 1
 222 114 242 113 258 113 c 0
 443 113 529 215 555 380 c 2
 558 400 l 2
 562 426 564 450 564 473 c 0
 564 595 502 667 346 667 c 0
 330 667 309 666 290 666 c 1
 203 114 l 1
139 780 m 1
 139 780 252 789 365 789 c 0
 644 789 734 634 734 473 c 0
 734 449 732 424 728 400 c 2
 725 380 l 2
 696 197 560 -9 239 -9 c 0
 126 -9 15 0 15 0 c 1
 139 780 l 1
EndSplineSet
EndChar

StartChar: dcaron
Encoding: 271 271 210
Width: 890
GlyphClass: 2
Flags: W
AnchorPoint: "LatinBelow.mark" 300 0 basechar 0
AnchorPoint: "LatinAbove.mark" 494 180 basechar 0
LayerCount: 2
Fore
SplineSet
830 681 m 1
 823 681 l 2
 784 681 758 702 758 737 c 0
 758 741 758 746 759 750 c 0
 767 798 803 835 859 835 c 0
 917 835 938 796 938 758 c 0
 938 752 938 747 937 741 c 0
 920 632 837 574 770 550 c 1
 740 600 l 1
 772 611 808 637 830 681 c 1
26 290 m 2
 29 310 l 2
 50 440 144 616 333 616 c 0
 400 616 445 584 475 539 c 1
 518 810 l 1
 673 810 l 1
 570 155 l 2
 568 144 567 136 567 128 c 0
 567 102 579 92 614 87 c 1
 557 -16 l 1
 514 -10 433 8 433 98 c 2
 433 100 l 1
 385 36 317 -16 232 -16 c 0
 73 -16 21 109 21 226 c 0
 21 248 23 269 26 290 c 2
448 364 m 1
 443 443 405 500 334 500 c 0
 269 500 211 447 189 310 c 2
 186 290 l 2
 182 265 180 243 180 223 c 0
 180 135 218 100 271 100 c 0
 342 100 396 157 427 236 c 1
 448 364 l 1
EndSplineSet
EndChar

StartChar: Dcroat
Encoding: 272 272 211
Width: 770
GlyphClass: 2
Flags: W
AnchorPoint: "LatinBelow.mark" 260 0 basechar 0
AnchorPoint: "LatinAbove.mark" 284 150 basechar 0
LayerCount: 2
Fore
SplineSet
0 345 m 1
 14 435 l 1
 84 435 l 1
 139 780 l 1
 139 780 252 789 365 789 c 0
 644 789 734 634 734 473 c 0
 734 449 732 424 728 400 c 2
 725 380 l 2
 696 197 560 -9 239 -9 c 0
 126 -9 15 0 15 0 c 1
 70 345 l 1
 0 345 l 1
203 114 m 1
 222 114 242 113 258 113 c 0
 443 113 529 215 555 380 c 2
 558 400 l 2
 562 426 564 450 564 473 c 0
 564 595 502 667 346 667 c 0
 330 667 309 666 290 666 c 1
 254 435 l 1
 434 435 l 1
 420 345 l 1
 240 345 l 1
 203 114 l 1
EndSplineSet
EndChar

StartChar: dcroat
Encoding: 273 273 212
Width: 680
GlyphClass: 2
Flags: W
AnchorPoint: "LatinBelow.mark" 300 0 basechar 0
AnchorPoint: "LatinAbove.mark" 494 180 basechar 0
LayerCount: 2
Fore
SplineSet
362 675 m 1
 376 765 l 1
 511 765 l 1
 518 810 l 1
 673 810 l 1
 666 765 l 1
 736 765 l 1
 722 675 l 1
 652 675 l 1
 570 155 l 2
 568 144 567 136 567 128 c 0
 567 102 579 92 614 87 c 1
 557 -16 l 1
 514 -10 433 8 433 98 c 2
 433 100 l 1
 385 36 317 -16 232 -16 c 0
 73 -16 21 109 21 226 c 0
 21 248 23 269 26 290 c 2
 29 310 l 2
 50 440 144 616 333 616 c 0
 400 616 445 584 475 539 c 1
 497 675 l 1
 362 675 l 1
448 364 m 1
 443 443 405 500 334 500 c 0
 269 500 211 447 189 310 c 2
 186 290 l 2
 182 265 180 243 180 223 c 0
 180 135 218 100 271 100 c 0
 342 100 396 157 427 236 c 1
 448 364 l 1
EndSplineSet
EndChar

StartChar: Emacron
Encoding: 274 274 213
Width: 675
GlyphClass: 2
Flags: W
AnchorPoint: "LatinBelow.mark" 290 0 basechar 0
AnchorPoint: "LatinAbove.mark" 342 330 basechar 0
LayerCount: 2
Fore
SplineSet
220 880 m 1
 235 980 l 1
 655 980 l 1
 640 880 l 1
 220 880 l 1
15 0 m 1
 139 780 l 1
 684 780 l 1
 663 650 l 1
 288 650 l 1
 255 445 l 1
 590 445 l 1
 571 325 l 1
 236 325 l 1
 206 130 l 1
 596 130 l 1
 575 0 l 1
 15 0 l 1
EndSplineSet
EndChar

StartChar: emacron
Encoding: 275 275 214
Width: 640
GlyphClass: 2
Flags: W
AnchorPoint: "LatinBelow.mark" 270 0 basechar 0
AnchorPoint: "LatinAbove.mark" 299 180 basechar 0
LayerCount: 2
Fore
SplineSet
176 730 m 1
 191 830 l 1
 611 830 l 1
 596 730 l 1
 176 730 l 1
25 287 m 2
 30 313 l 1
 51 444 138 621 366 621 c 0
 531 621 600 514 600 401 c 0
 600 386 599 372 597 357 c 0
 592 326 583 295 572 265 c 1
 179 265 l 1
 177 251 177 237 177 225 c 0
 177 134 218 91 282 91 c 0
 341 91 385 131 397 167 c 1
 549 153 l 1
 527 87 436 -21 265 -21 c 0
 71 -21 19 101 19 218 c 0
 19 242 21 265 25 287 c 2
197 365 m 1
 448 365 l 1
 450 378 451 390 451 401 c 0
 451 480 406 509 349 509 c 0
 283 509 225 462 197 365 c 1
EndSplineSet
EndChar

StartChar: Ebreve
Encoding: 276 276 215
Width: 675
GlyphClass: 2
Flags: W
AnchorPoint: "LatinBelow.mark" 290 0 basechar 0
AnchorPoint: "LatinAbove.mark" 342 330 basechar 0
LayerCount: 2
Fore
SplineSet
236 984 m 1
 337 1015 l 1
 343 981 360 935 438 935 c 0
 516 935 549 981 565 1015 c 1
 656 984 l 1
 624 916 553 840 423 840 c 0
 293 840 246 916 236 984 c 1
15 0 m 1
 139 780 l 1
 684 780 l 1
 663 650 l 1
 288 650 l 1
 255 445 l 1
 590 445 l 1
 571 325 l 1
 236 325 l 1
 206 130 l 1
 596 130 l 1
 575 0 l 1
 15 0 l 1
EndSplineSet
EndChar

StartChar: ebreve
Encoding: 277 277 216
Width: 640
GlyphClass: 2
Flags: W
AnchorPoint: "LatinBelow.mark" 270 0 basechar 0
AnchorPoint: "LatinAbove.mark" 299 180 basechar 0
LayerCount: 2
Fore
SplineSet
192 834 m 1
 293 865 l 1
 299 831 316 785 394 785 c 0
 472 785 505 831 521 865 c 1
 612 834 l 1
 580 766 509 690 379 690 c 0
 249 690 202 766 192 834 c 1
25 287 m 2
 30 313 l 1
 51 444 138 621 366 621 c 0
 531 621 600 514 600 401 c 0
 600 386 599 372 597 357 c 0
 592 326 583 295 572 265 c 1
 179 265 l 1
 177 251 177 237 177 225 c 0
 177 134 218 91 282 91 c 0
 341 91 385 131 397 167 c 1
 549 153 l 1
 527 87 436 -21 265 -21 c 0
 71 -21 19 101 19 218 c 0
 19 242 21 265 25 287 c 2
197 365 m 1
 448 365 l 1
 450 378 451 390 451 401 c 0
 451 480 406 509 349 509 c 0
 283 509 225 462 197 365 c 1
EndSplineSet
EndChar

StartChar: Edotaccent
Encoding: 278 278 217
Width: 675
GlyphClass: 2
Flags: W
AnchorPoint: "LatinBelow.mark" 290 0 basechar 0
AnchorPoint: "LatinAbove.mark" 342 330 basechar 0
LayerCount: 2
Fore
SplineSet
343 930 m 0
 352 984 397 1018 451 1018 c 0
 500 1018 534 991 534 946 c 0
 534 941 534 935 533 930 c 0
 524 876 478 842 424 842 c 0
 376 842 342 869 342 914 c 0
 342 919 342 924 343 930 c 0
15 0 m 1
 139 780 l 1
 684 780 l 1
 663 650 l 1
 288 650 l 1
 255 445 l 1
 590 445 l 1
 571 325 l 1
 236 325 l 1
 206 130 l 1
 596 130 l 1
 575 0 l 1
 15 0 l 1
EndSplineSet
EndChar

StartChar: edotaccent
Encoding: 279 279 218
Width: 640
GlyphClass: 2
Flags: W
AnchorPoint: "LatinBelow.mark" 270 0 basechar 0
AnchorPoint: "LatinAbove.mark" 299 180 basechar 0
LayerCount: 2
Fore
SplineSet
299 780 m 0
 308 834 353 868 407 868 c 0
 456 868 490 841 490 796 c 0
 490 791 490 785 489 780 c 0
 480 726 434 692 380 692 c 0
 332 692 298 719 298 764 c 0
 298 769 298 774 299 780 c 0
25 287 m 2
 30 313 l 1
 51 444 138 621 366 621 c 0
 531 621 600 514 600 401 c 0
 600 386 599 372 597 357 c 0
 592 326 583 295 572 265 c 1
 179 265 l 1
 177 251 177 237 177 225 c 0
 177 134 218 91 282 91 c 0
 341 91 385 131 397 167 c 1
 549 153 l 1
 527 87 436 -21 265 -21 c 0
 71 -21 19 101 19 218 c 0
 19 242 21 265 25 287 c 2
197 365 m 1
 448 365 l 1
 450 378 451 390 451 401 c 0
 451 480 406 509 349 509 c 0
 283 509 225 462 197 365 c 1
EndSplineSet
EndChar

StartChar: Eogonek
Encoding: 280 280 219
Width: 675
GlyphClass: 2
Flags: W
AnchorPoint: "LatinAbove.mark" 314 150 basechar 0
LayerCount: 2
Fore
SplineSet
15 0 m 1
 139 780 l 1
 684 780 l 1
 663 650 l 1
 288 650 l 1
 255 445 l 1
 590 445 l 1
 571 325 l 1
 236 325 l 1
 206 130 l 1
 596 130 l 1
 575 0 l 1
 537 0 l 1
 511 -28 484 -69 475 -125 c 0
 474 -131 474 -137 474 -142 c 0
 474 -173 491 -180 511 -180 c 0
 537 -180 567 -169 574 -165 c 1
 587 -238 l 1
 558 -252 520 -260 479 -260 c 0
 407 -260 371 -221 371 -164 c 0
 371 -156 372 -148 373 -140 c 0
 382 -84 413 -36 449 0 c 1
 15 0 l 1
EndSplineSet
EndChar

StartChar: eogonek
Encoding: 281 281 220
Width: 640
GlyphClass: 2
Flags: W
AnchorPoint: "LatinAbove.mark" 270 0 basechar 0
LayerCount: 2
Fore
SplineSet
197 365 m 1
 448 365 l 1
 450 378 451 390 451 401 c 0
 451 480 406 509 349 509 c 0
 283 509 225 462 197 365 c 1
25 287 m 2
 30 313 l 1
 51 444 138 621 366 621 c 0
 531 621 600 514 600 401 c 0
 600 386 599 372 597 357 c 0
 592 326 583 295 572 265 c 1
 179 265 l 1
 177 251 177 237 177 225 c 0
 177 134 218 91 282 91 c 0
 341 91 385 131 397 167 c 1
 549 153 l 1
 534 110 491 49 415 12 c 1
 385 -15 350 -61 340 -125 c 0
 339 -131 339 -137 339 -142 c 0
 339 -173 356 -180 376 -180 c 0
 402 -180 432 -169 439 -165 c 1
 452 -238 l 1
 423 -252 385 -260 344 -260 c 0
 272 -260 236 -221 236 -164 c 0
 236 -156 237 -148 238 -140 c 0
 245 -93 268 -53 296 -20 c 1
 286 -21 276 -21 265 -21 c 0
 71 -21 19 101 19 218 c 0
 19 242 21 265 25 287 c 2
EndSplineSet
EndChar

StartChar: Ecaron
Encoding: 282 282 221
Width: 675
GlyphClass: 2
Flags: W
AnchorPoint: "LatinBelow.mark" 290 0 basechar 0
AnchorPoint: "LatinAbove.mark" 342 330 basechar 0
LayerCount: 2
Fore
SplineSet
655 980 m 1
 442 835 l 1
 402 835 l 1
 235 980 l 1
 288 1030 l 1
 441 950 l 1
 618 1030 l 1
 655 980 l 1
15 0 m 1
 139 780 l 1
 684 780 l 1
 663 650 l 1
 288 650 l 1
 255 445 l 1
 590 445 l 1
 571 325 l 1
 236 325 l 1
 206 130 l 1
 596 130 l 1
 575 0 l 1
 15 0 l 1
EndSplineSet
EndChar

StartChar: ecaron
Encoding: 283 283 222
Width: 640
GlyphClass: 2
Flags: W
AnchorPoint: "LatinBelow.mark" 270 0 basechar 0
AnchorPoint: "LatinAbove.mark" 299 180 basechar 0
LayerCount: 2
Fore
SplineSet
611 830 m 1
 398 685 l 1
 358 685 l 1
 191 830 l 1
 244 880 l 1
 397 800 l 1
 574 880 l 1
 611 830 l 1
25 287 m 2
 30 313 l 1
 51 444 138 621 366 621 c 0
 531 621 600 514 600 401 c 0
 600 386 599 372 597 357 c 0
 592 326 583 295 572 265 c 1
 179 265 l 1
 177 251 177 237 177 225 c 0
 177 134 218 91 282 91 c 0
 341 91 385 131 397 167 c 1
 549 153 l 1
 527 87 436 -21 265 -21 c 0
 71 -21 19 101 19 218 c 0
 19 242 21 265 25 287 c 2
197 365 m 1
 448 365 l 1
 450 378 451 390 451 401 c 0
 451 480 406 509 349 509 c 0
 283 509 225 462 197 365 c 1
EndSplineSet
EndChar

StartChar: Gcircumflex
Encoding: 284 284 223
Width: 770
GlyphClass: 2
Flags: W
AnchorPoint: "LatinBelow.mark" 350 0 basechar 0
LayerCount: 2
Fore
SplineSet
279 875 m 1
 492 1020 l 1
 532 1020 l 1
 699 875 l 1
 646 825 l 1
 494 905 l 1
 316 825 l 1
 279 875 l 1
400 285 m 1
 419 405 l 1
 729 405 l 1
 686 135 l 1
 634 66 523 -21 349 -21 c 0
 107 -21 37 134 37 287 c 0
 37 317 39 347 44 375 c 2
 49 405 l 2
 77 580 190 801 479 801 c 0
 691 801 760 664 762 582 c 1
 588 566 l 1
 587 616 547 675 459 675 c 0
 338 675 252 586 223 405 c 2
 218 375 l 2
 213 344 211 316 211 291 c 0
 211 166 268 105 369 105 c 0
 455 105 504 131 535 160 c 1
 555 285 l 1
 400 285 l 1
EndSplineSet
EndChar

StartChar: gcircumflex
Encoding: 285 285 224
Width: 670
GlyphClass: 2
Flags: W
AnchorPoint: "LatinBelow.mark" 271 -180 basechar 0
LayerCount: 2
Fore
SplineSet
205 725 m 1
 418 870 l 1
 458 870 l 1
 625 725 l 1
 572 675 l 1
 420 755 l 1
 242 675 l 1
 205 725 l 1
30 315 m 0
 50 440 144 616 333 616 c 0
 406 616 452 578 482 527 c 1
 504 600 l 1
 640 600 l 1
 543 -15 l 2
 524 -135 408 -231 250 -231 c 0
 96 -231 26 -159 16 -117 c 1
 171 -75 l 1
 175 -91 202 -122 268 -122 c 0
 331 -122 381 -93 393 -15 c 2
 411 98 l 1
 366 50 307 14 237 14 c 0
 77 14 25 140 25 255 c 0
 25 276 27 296 30 315 c 0
448 364 m 1
 443 443 405 500 334 500 c 0
 269 500 211 447 190 315 c 0
 186 292 185 271 185 252 c 0
 185 166 222 130 276 130 c 0
 347 130 401 187 432 266 c 1
 448 364 l 1
EndSplineSet
MultipleSubs2: "Latin.g.decomp subtable" g.alt uni0302
EndChar

StartChar: Gbreve
Encoding: 286 286 225
Width: 770
GlyphClass: 2
Flags: W
AnchorPoint: "LatinBelow.mark" 350 0 basechar 0
LayerCount: 2
Fore
SplineSet
296 984 m 1
 397 1015 l 1
 403 981 420 935 498 935 c 0
 576 935 609 981 625 1015 c 1
 716 984 l 1
 684 916 613 840 483 840 c 0
 353 840 306 916 296 984 c 1
400 285 m 1
 419 405 l 1
 729 405 l 1
 686 135 l 1
 634 66 523 -21 349 -21 c 0
 107 -21 37 134 37 287 c 0
 37 317 39 347 44 375 c 2
 49 405 l 2
 77 580 190 801 479 801 c 0
 691 801 760 664 762 582 c 1
 588 566 l 1
 587 616 547 675 459 675 c 0
 338 675 252 586 223 405 c 2
 218 375 l 2
 213 344 211 316 211 291 c 0
 211 166 268 105 369 105 c 0
 455 105 504 131 535 160 c 1
 555 285 l 1
 400 285 l 1
EndSplineSet
EndChar

StartChar: gbreve
Encoding: 287 287 226
Width: 670
GlyphClass: 2
Flags: W
AnchorPoint: "LatinBelow.mark" 271 -180 basechar 0
LayerCount: 2
Fore
SplineSet
222 834 m 1
 323 865 l 1
 329 831 346 785 424 785 c 0
 502 785 535 831 551 865 c 1
 642 834 l 1
 610 766 539 690 409 690 c 0
 279 690 232 766 222 834 c 1
30 315 m 0
 50 440 144 616 333 616 c 0
 406 616 452 578 482 527 c 1
 504 600 l 1
 640 600 l 1
 543 -15 l 2
 524 -135 408 -231 250 -231 c 0
 96 -231 26 -159 16 -117 c 1
 171 -75 l 1
 175 -91 202 -122 268 -122 c 0
 331 -122 381 -93 393 -15 c 2
 411 98 l 1
 366 50 307 14 237 14 c 0
 77 14 25 140 25 255 c 0
 25 276 27 296 30 315 c 0
448 364 m 1
 443 443 405 500 334 500 c 0
 269 500 211 447 190 315 c 0
 186 292 185 271 185 252 c 0
 185 166 222 130 276 130 c 0
 347 130 401 187 432 266 c 1
 448 364 l 1
EndSplineSet
MultipleSubs2: "Latin.g.decomp subtable" g.alt uni0306
EndChar

StartChar: Gdotaccent
Encoding: 288 288 227
Width: 770
GlyphClass: 2
Flags: W
AnchorPoint: "LatinBelow.mark" 350 0 basechar 0
LayerCount: 2
Fore
SplineSet
403 930 m 0
 412 984 457 1018 511 1018 c 0
 560 1018 594 991 594 946 c 0
 594 941 594 935 593 930 c 0
 584 876 538 842 484 842 c 0
 436 842 402 869 402 914 c 0
 402 919 402 924 403 930 c 0
400 285 m 1
 419 405 l 1
 729 405 l 1
 686 135 l 1
 634 66 523 -21 349 -21 c 0
 107 -21 37 134 37 287 c 0
 37 317 39 347 44 375 c 2
 49 405 l 2
 77 580 190 801 479 801 c 0
 691 801 760 664 762 582 c 1
 588 566 l 1
 587 616 547 675 459 675 c 0
 338 675 252 586 223 405 c 2
 218 375 l 2
 213 344 211 316 211 291 c 0
 211 166 268 105 369 105 c 0
 455 105 504 131 535 160 c 1
 555 285 l 1
 400 285 l 1
EndSplineSet
EndChar

StartChar: gdotaccent
Encoding: 289 289 228
Width: 670
GlyphClass: 2
Flags: W
AnchorPoint: "LatinBelow.mark" 271 -180 basechar 0
LayerCount: 2
Fore
SplineSet
329 780 m 0
 338 834 383 868 437 868 c 0
 486 868 520 841 520 796 c 0
 520 791 520 785 519 780 c 0
 510 726 464 692 410 692 c 0
 362 692 328 719 328 764 c 0
 328 769 328 774 329 780 c 0
30 315 m 0
 50 440 144 616 333 616 c 0
 406 616 452 578 482 527 c 1
 504 600 l 1
 640 600 l 1
 543 -15 l 2
 524 -135 408 -231 250 -231 c 0
 96 -231 26 -159 16 -117 c 1
 171 -75 l 1
 175 -91 202 -122 268 -122 c 0
 331 -122 381 -93 393 -15 c 2
 411 98 l 1
 366 50 307 14 237 14 c 0
 77 14 25 140 25 255 c 0
 25 276 27 296 30 315 c 0
448 364 m 1
 443 443 405 500 334 500 c 0
 269 500 211 447 190 315 c 0
 186 292 185 271 185 252 c 0
 185 166 222 130 276 130 c 0
 347 130 401 187 432 266 c 1
 448 364 l 1
EndSplineSet
MultipleSubs2: "Latin.g.decomp subtable" g.alt uni0307
EndChar

StartChar: uni0122
Encoding: 290 290 229
Width: 770
GlyphClass: 2
Flags: W
AnchorPoint: "LatinAbove.mark" 374 150 basechar 0
LayerCount: 2
Fore
SplineSet
302 -219 m 1
 295 -219 l 2
 256 -219 230 -198 230 -163 c 0
 230 -159 230 -154 231 -150 c 0
 239 -102 276 -65 332 -65 c 0
 390 -65 411 -104 411 -142 c 0
 411 -148 411 -153 410 -159 c 0
 393 -268 310 -326 243 -350 c 1
 212 -300 l 1
 244 -289 280 -263 302 -219 c 1
400 285 m 1
 419 405 l 1
 729 405 l 1
 686 135 l 1
 634 66 523 -21 349 -21 c 0
 107 -21 37 134 37 287 c 0
 37 317 39 347 44 375 c 2
 49 405 l 2
 77 580 190 801 479 801 c 0
 691 801 760 664 762 582 c 1
 588 566 l 1
 587 616 547 675 459 675 c 0
 338 675 252 586 223 405 c 2
 218 375 l 2
 213 344 211 316 211 291 c 0
 211 166 268 105 369 105 c 0
 455 105 504 131 535 160 c 1
 555 285 l 1
 400 285 l 1
EndSplineSet
EndChar

StartChar: uni0123
Encoding: 291 291 230
Width: 670
GlyphClass: 2
Flags: W
AnchorPoint: "LatinBelow.mark" 271 -180 basechar 0
LayerCount: 2
Fore
SplineSet
447 849 m 1
 454 849 l 2
 493 849 520 828 520 792 c 0
 520 788 520 784 519 780 c 0
 511 732 474 695 418 695 c 0
 360 695 339 734 339 772 c 0
 339 778 339 783 340 789 c 0
 357 898 440 956 507 980 c 1
 537 930 l 1
 505 919 469 893 447 849 c 1
30 315 m 0
 50 440 144 616 333 616 c 0
 406 616 452 578 482 527 c 1
 504 600 l 1
 640 600 l 1
 543 -15 l 2
 524 -135 408 -231 250 -231 c 0
 96 -231 26 -159 16 -117 c 1
 171 -75 l 1
 175 -91 202 -122 268 -122 c 0
 331 -122 381 -93 393 -15 c 2
 411 98 l 1
 366 50 307 14 237 14 c 0
 77 14 25 140 25 255 c 0
 25 276 27 296 30 315 c 0
448 364 m 1
 443 443 405 500 334 500 c 0
 269 500 211 447 190 315 c 0
 186 292 185 271 185 252 c 0
 185 166 222 130 276 130 c 0
 347 130 401 187 432 266 c 1
 448 364 l 1
EndSplineSet
MultipleSubs2: "Latin.g.decomp subtable" g.alt uni0312
EndChar

StartChar: Hcircumflex
Encoding: 292 292 231
Width: 790
GlyphClass: 2
Flags: W
AnchorPoint: "LatinBelow.mark" 335 0 basechar 0
LayerCount: 2
Fore
SplineSet
264 875 m 1
 477 1020 l 1
 517 1020 l 1
 684 875 l 1
 631 825 l 1
 479 905 l 1
 301 825 l 1
 264 875 l 1
15 0 m 1
 139 780 l 1
 309 780 l 1
 257 455 l 1
 557 455 l 1
 609 780 l 1
 779 780 l 1
 655 0 l 1
 485 0 l 1
 536 325 l 1
 236 325 l 1
 185 0 l 1
 15 0 l 1
EndSplineSet
EndChar

StartChar: hcircumflex
Encoding: 293 293 232
Width: 665
GlyphClass: 2
Flags: W
AnchorPoint: "LatinBelow.mark" 300 0 basechar 0
LayerCount: 2
Fore
SplineSet
9 905 m 1
 222 1050 l 1
 262 1050 l 1
 429 905 l 1
 376 855 l 1
 224 935 l 1
 46 855 l 1
 9 905 l 1
10 0 m 1
 138 810 l 1
 293 810 l 1
 241 482 l 1
 295 555 372 616 473 616 c 0
 577 616 618 539 618 452 c 0
 618 437 616 421 614 406 c 2
 550 0 l 1
 390 0 l 1
 453 400 l 2
 455 412 456 422 456 431 c 0
 456 482 428 490 408 490 c 0
 341 490 254 403 218 303 c 1
 170 0 l 1
 10 0 l 1
EndSplineSet
EndChar

StartChar: Hbar
Encoding: 294 294 233
Width: 790
GlyphClass: 2
Flags: W
AnchorPoint: "LatinBelow.mark" 335 0 basechar 0
AnchorPoint: "LatinAbove.mark" 359 150 basechar 0
LayerCount: 2
Fore
SplineSet
42 615 m 1
 57 705 l 1
 127 705 l 1
 139 780 l 1
 309 780 l 1
 297 705 l 1
 597 705 l 1
 609 780 l 1
 779 780 l 1
 767 705 l 1
 837 705 l 1
 822 615 l 1
 752 615 l 1
 655 0 l 1
 485 0 l 1
 536 325 l 1
 236 325 l 1
 185 0 l 1
 15 0 l 1
 112 615 l 1
 42 615 l 1
582 615 m 1
 282 615 l 1
 257 455 l 1
 557 455 l 1
 582 615 l 1
EndSplineSet
EndChar

StartChar: hbar
Encoding: 295 295 234
Width: 665
GlyphClass: 2
Flags: W
AnchorPoint: "LatinBelow.mark" 300 0 basechar 0
LayerCount: 2
Fore
SplineSet
47 675 m 1
 61 765 l 1
 131 765 l 1
 138 810 l 1
 293 810 l 1
 286 765 l 1
 421 765 l 1
 407 675 l 1
 272 675 l 1
 241 482 l 1
 295 555 372 616 473 616 c 0
 577 616 618 539 618 452 c 0
 618 437 616 421 614 406 c 2
 550 0 l 1
 390 0 l 1
 453 400 l 2
 455 412 456 422 456 431 c 0
 456 482 428 490 408 490 c 0
 341 490 254 403 218 303 c 1
 170 0 l 1
 10 0 l 1
 117 675 l 1
 47 675 l 1
EndSplineSet
EndChar

StartChar: Itilde
Encoding: 296 296 235
Width: 320
GlyphClass: 2
Flags: W
AnchorPoint: "LatinBelow.mark" 100 0 basechar 0
AnchorPoint: "LatinAbove.mark" 152 330 basechar 0
LayerCount: 2
Fore
SplineSet
31 890 m 1
 68 956 111 1015 186 1015 c 0
 246 1015 275 985 293 967 c 0
 309 951 318 940 328 940 c 0
 353 940 378 990 390 1010 c 1
 465 980 l 1
 428 914 386 855 311 855 c 0
 251 855 221 885 203 903 c 0
 187 919 179 930 169 930 c 0
 144 930 118 880 106 860 c 1
 31 890 l 1
15 0 m 1
 139 780 l 1
 309 780 l 1
 185 0 l 1
 15 0 l 1
EndSplineSet
EndChar

StartChar: itilde
Encoding: 297 297 236
Width: 300
GlyphClass: 2
Flags: W
AnchorPoint: "LatinBelow.mark" 90 0 basechar 0
AnchorPoint: "LatinAbove.mark" 119 180 basechar 0
LayerCount: 2
Fore
SplineSet
-3 740 m 1
 34 806 77 865 152 865 c 0
 212 865 241 835 259 817 c 0
 275 801 284 790 294 790 c 0
 319 790 344 840 356 860 c 1
 431 830 l 1
 394 764 352 705 277 705 c 0
 217 705 187 735 169 753 c 0
 153 769 145 780 135 780 c 0
 110 780 84 730 72 710 c 1
 -3 740 l 1
10 0 m 1
 105 600 l 1
 265 600 l 1
 170 0 l 1
 10 0 l 1
EndSplineSet
EndChar

StartChar: Imacron
Encoding: 298 298 237
Width: 320
GlyphClass: 2
Flags: W
AnchorPoint: "LatinBelow.mark" 100 0 basechar 0
AnchorPoint: "LatinAbove.mark" 152 330 basechar 0
LayerCount: 2
Fore
SplineSet
30 880 m 1
 45 980 l 1
 465 980 l 1
 450 880 l 1
 30 880 l 1
15 0 m 1
 139 780 l 1
 309 780 l 1
 185 0 l 1
 15 0 l 1
EndSplineSet
EndChar

StartChar: imacron
Encoding: 299 299 238
Width: 300
GlyphClass: 2
Flags: W
AnchorPoint: "LatinBelow.mark" 90 0 basechar 0
AnchorPoint: "LatinAbove.mark" 119 180 basechar 0
LayerCount: 2
Fore
SplineSet
-4 730 m 1
 11 830 l 1
 431 830 l 1
 416 730 l 1
 -4 730 l 1
10 0 m 1
 105 600 l 1
 265 600 l 1
 170 0 l 1
 10 0 l 1
EndSplineSet
EndChar

StartChar: Ibreve
Encoding: 300 300 239
Width: 320
GlyphClass: 2
Flags: W
LayerCount: 2
Fore
SplineSet
46 984 m 1
 147 1015 l 1
 153 981 170 935 248 935 c 0
 326 935 359 981 375 1015 c 1
 466 984 l 1
 434 916 363 840 233 840 c 0
 103 840 56 916 46 984 c 1
15 0 m 1
 139 780 l 1
 309 780 l 1
 185 0 l 1
 15 0 l 1
EndSplineSet
EndChar

StartChar: ibreve
Encoding: 301 301 240
Width: 300
GlyphClass: 2
Flags: W
LayerCount: 2
Fore
SplineSet
12 834 m 1
 113 865 l 1
 119 831 136 785 214 785 c 0
 292 785 325 831 341 865 c 1
 432 834 l 1
 400 766 329 690 199 690 c 0
 69 690 22 766 12 834 c 1
10 0 m 1
 105 600 l 1
 265 600 l 1
 170 0 l 1
 10 0 l 1
EndSplineSet
EndChar

StartChar: Iogonek
Encoding: 302 302 241
Width: 320
GlyphClass: 2
Flags: W
AnchorPoint: "LatinAbove.mark" 124 150 basechar 0
LayerCount: 2
Fore
SplineSet
15 0 m 1
 139 780 l 1
 309 780 l 1
 185 0 l 1
 157 0 l 1
 131 -28 104 -69 95 -125 c 0
 94 -131 94 -137 94 -142 c 0
 94 -173 111 -180 131 -180 c 0
 157 -180 187 -169 194 -165 c 1
 207 -238 l 1
 178 -252 140 -260 99 -260 c 0
 27 -260 -9 -221 -9 -164 c 0
 -9 -156 -8 -148 -7 -140 c 0
 2 -84 33 -36 69 0 c 1
 15 0 l 1
EndSplineSet
EndChar

StartChar: iogonek
Encoding: 303 303 242
Width: 300
GlyphClass: 2
Flags: W
AnchorPoint: "LatinAbove.mark" 119 180 basechar 0
LayerCount: 2
Fore
SplineSet
10 0 m 1
 105 600 l 1
 265 600 l 1
 170 0 l 1
 147 0 l 1
 121 -28 94 -69 85 -125 c 0
 84 -131 84 -137 84 -142 c 0
 84 -173 101 -180 121 -180 c 0
 147 -180 177 -169 184 -165 c 1
 197 -238 l 1
 168 -252 130 -260 89 -260 c 0
 17 -260 -19 -221 -19 -164 c 0
 -19 -156 -18 -148 -17 -140 c 0
 -8 -84 23 -36 59 0 c 1
 10 0 l 1
119 780 m 0
 128 834 173 868 227 868 c 0
 276 868 310 841 310 796 c 0
 310 791 310 785 309 780 c 0
 300 726 254 692 200 692 c 0
 152 692 118 719 118 764 c 0
 118 769 118 774 119 780 c 0
EndSplineSet
EndChar

StartChar: Idotaccent
Encoding: 304 304 243
Width: 320
GlyphClass: 2
Flags: W
AnchorPoint: "LatinBelow.mark" 100 0 basechar 0
AnchorPoint: "LatinAbove.mark" 152 330 basechar 0
LayerCount: 2
Fore
SplineSet
153 930 m 0
 162 984 207 1018 261 1018 c 0
 310 1018 344 991 344 946 c 0
 344 941 344 935 343 930 c 0
 334 876 288 842 234 842 c 0
 186 842 152 869 152 914 c 0
 152 919 152 924 153 930 c 0
15 0 m 1
 139 780 l 1
 309 780 l 1
 185 0 l 1
 15 0 l 1
EndSplineSet
EndChar

StartChar: dotlessi
Encoding: 305 305 244
Width: 300
GlyphClass: 2
Flags: W
AnchorPoint: "LatinOgonek.mark" 95 0 basechar 0
AnchorPoint: "LatinBelow.mark" 90 0 basechar 0
AnchorPoint: "LatinAbove.mark" 90 0 basechar 0
LayerCount: 2
Fore
SplineSet
10 0 m 1
 105 600 l 1
 265 600 l 1
 170 0 l 1
 10 0 l 1
EndSplineSet
EndChar

StartChar: Jcircumflex
Encoding: 308 308 245
Width: 520
GlyphClass: 2
Flags: W
AnchorPoint: "LatinBelow.mark" 170 0 basechar 0
LayerCount: 2
Fore
SplineSet
229 875 m 1
 442 1020 l 1
 482 1020 l 1
 649 875 l 1
 596 825 l 1
 444 905 l 1
 266 825 l 1
 229 875 l 1
-32 143 m 1
 140 155 l 1
 140 109 160 99 181 99 c 0
 201 99 232 106 242 169 c 2
 339 780 l 1
 509 780 l 1
 412 169 l 2
 397 72 306 -21 162 -21 c 0
 20 -21 -32 67 -32 141 c 2
 -32 143 l 1
EndSplineSet
EndChar

StartChar: jcircumflex
Encoding: 309 309 246
Width: 310
GlyphClass: 2
Flags: W
AnchorPoint: "LatinBelow.mark" 61 -180 basechar 0
AnchorPoint: "LatinAbove.mark" 119 180 basechar 0
LayerCount: 2
Fore
SplineSet
5 725 m 1
 218 870 l 1
 258 870 l 1
 425 725 l 1
 372 675 l 1
 220 755 l 1
 42 675 l 1
 5 725 l 1
-61 -226 m 1
 -95 -125 l 1
 -27 -109 7 -82 19 -5 c 2
 115 600 l 1
 275 600 l 1
 178 -15 l 2
 159 -136 46 -204 -61 -226 c 1
EndSplineSet
EndChar

StartChar: uni0136
Encoding: 310 310 247
Width: 715
GlyphClass: 2
Flags: W
LayerCount: 2
Fore
SplineSet
252 -219 m 1
 245 -219 l 2
 206 -219 180 -198 180 -163 c 0
 180 -159 180 -154 181 -150 c 0
 189 -102 226 -65 282 -65 c 0
 340 -65 361 -104 361 -142 c 0
 361 -148 361 -153 360 -159 c 0
 343 -268 260 -326 193 -350 c 1
 162 -300 l 1
 194 -289 230 -263 252 -219 c 1
15 0 m 1
 139 780 l 1
 303 780 l 1
 253 467 l 1
 569 780 l 1
 756 767 l 1
 755 759 l 1
 402 445 l 1
 666 8 l 1
 665 0 l 1
 466 0 l 1
 276 332 l 1
 224 287 l 1
 179 0 l 1
 15 0 l 1
EndSplineSet
EndChar

StartChar: uni0137
Encoding: 311 311 248
Width: 605
GlyphClass: 2
Flags: W
AnchorPoint: "LatinAbove.mark" 104 180 basechar 0
LayerCount: 2
Fore
SplineSet
252 -219 m 1
 245 -219 l 2
 206 -219 180 -198 180 -163 c 0
 180 -159 180 -154 181 -150 c 0
 189 -102 226 -65 282 -65 c 0
 340 -65 361 -104 361 -142 c 0
 361 -148 361 -153 360 -159 c 0
 343 -268 260 -326 193 -350 c 1
 162 -300 l 1
 194 -289 230 -263 252 -219 c 1
20 0 m 1
 148 810 l 1
 300 810 l 1
 233 382 l 1
 455 600 l 1
 628 590 l 1
 627 584 l 1
 351 341 l 1
 556 6 l 1
 555 0 l 1
 373 0 l 1
 234 238 l 1
 206 213 l 1
 172 0 l 1
 20 0 l 1
EndSplineSet
EndChar

StartChar: kgreenlandic
Encoding: 312 312 249
Width: 610
GlyphClass: 2
Flags: W
AnchorPoint: "LatinBelow.mark" 300 0 basechar 0
AnchorPoint: "LatinAbove.mark" 270 0 basechar 0
LayerCount: 2
Fore
SplineSet
20 0 m 1
 115 600 l 1
 267 600 l 1
 233 382 l 1
 455 600 l 1
 628 590 l 1
 627 584 l 1
 351 341 l 1
 556 6 l 1
 555 0 l 1
 373 0 l 1
 234 238 l 1
 206 213 l 1
 172 0 l 1
 20 0 l 1
EndSplineSet
EndChar

StartChar: Lacute
Encoding: 313 313 250
Width: 570
GlyphClass: 2
Flags: W
AnchorPoint: "LatinBelow.mark" 260 0 basechar 0
LayerCount: 2
Fore
SplineSet
416 955 m 1
 153 840 l 1
 123 900 l 1
 368 1060 l 1
 416 955 l 1
15 0 m 1
 139 780 l 1
 311 780 l 1
 208 130 l 1
 521 130 l 1
 500 0 l 1
 15 0 l 1
EndSplineSet
EndChar

StartChar: lacute
Encoding: 314 314 251
Width: 315
GlyphClass: 2
Flags: W
AnchorPoint: "LatinBelow.mark" 130 0 basechar 0
LayerCount: 2
Fore
SplineSet
401 985 m 1
 138 870 l 1
 108 930 l 1
 353 1090 l 1
 401 985 l 1
32 140 m 2
 138 810 l 1
 298 810 l 1
 195 155 l 2
 194 149 194 144 194 139 c 0
 194 105 216 92 269 87 c 1
 222 -16 l 1
 142 -10 30 11 30 114 c 0
 30 122 31 131 32 140 c 2
EndSplineSet
EndChar

StartChar: uni013B
Encoding: 315 315 252
Width: 570
GlyphClass: 2
Flags: W
AnchorPoint: "LatinAbove.mark" 124 150 basechar 0
LayerCount: 2
Fore
SplineSet
212 -219 m 1
 205 -219 l 2
 166 -219 140 -198 140 -163 c 0
 140 -159 140 -154 141 -150 c 0
 149 -102 186 -65 242 -65 c 0
 300 -65 321 -104 321 -142 c 0
 321 -148 321 -153 320 -159 c 0
 303 -268 220 -326 153 -350 c 1
 122 -300 l 1
 154 -289 190 -263 212 -219 c 1
15 0 m 1
 139 780 l 1
 311 780 l 1
 208 130 l 1
 521 130 l 1
 500 0 l 1
 15 0 l 1
EndSplineSet
EndChar

StartChar: uni013C
Encoding: 316 316 253
Width: 315
GlyphClass: 2
Flags: W
AnchorPoint: "LatinAbove.mark" 109 180 basechar 0
LayerCount: 2
Fore
SplineSet
82 -219 m 1
 75 -219 l 2
 36 -219 10 -198 10 -163 c 0
 10 -159 10 -154 11 -150 c 0
 19 -102 56 -65 112 -65 c 0
 170 -65 191 -104 191 -142 c 0
 191 -148 191 -153 190 -159 c 0
 173 -268 90 -326 23 -350 c 1
 -8 -300 l 1
 24 -289 60 -263 82 -219 c 1
32 140 m 2
 138 810 l 1
 298 810 l 1
 195 155 l 2
 194 149 194 144 194 139 c 0
 194 105 216 92 269 87 c 1
 222 -16 l 1
 142 -10 30 11 30 114 c 0
 30 122 31 131 32 140 c 2
EndSplineSet
EndChar

StartChar: Lcaron
Encoding: 317 317 254
Width: 570
GlyphClass: 2
Flags: W
LayerCount: 2
Fore
SplineSet
15 0 m 1
 139 780 l 1
 311 780 l 1
 208 130 l 1
 521 130 l 1
 500 0 l 1
 15 0 l 1
480 681 m 1
 473 681 l 2
 434 681 408 702 408 737 c 0
 408 741 408 746 409 750 c 0
 417 798 453 835 509 835 c 0
 567 835 588 796 588 758 c 0
 588 752 588 747 587 741 c 0
 570 632 487 574 420 550 c 1
 390 600 l 1
 422 611 458 637 480 681 c 1
EndSplineSet
EndChar

StartChar: lcaron
Encoding: 318 318 255
Width: 525
GlyphClass: 2
Flags: W
LayerCount: 2
Fore
SplineSet
32 140 m 2
 138 810 l 1
 298 810 l 1
 195 155 l 2
 194 149 194 144 194 139 c 0
 194 105 216 92 269 87 c 1
 222 -16 l 1
 142 -10 30 11 30 114 c 0
 30 122 31 131 32 140 c 2
465 681 m 1
 458 681 l 2
 419 681 393 702 393 737 c 0
 393 741 393 746 394 750 c 0
 402 798 438 835 494 835 c 0
 552 835 573 796 573 758 c 0
 573 752 573 747 572 741 c 0
 555 632 472 574 405 550 c 1
 375 600 l 1
 407 611 443 637 465 681 c 1
EndSplineSet
EndChar

StartChar: Ldot
Encoding: 319 319 256
Width: 570
GlyphClass: 2
Flags: W
LayerCount: 2
Fore
SplineSet
15 0 m 1
 139 780 l 1
 311 780 l 1
 208 130 l 1
 521 130 l 1
 500 0 l 1
 15 0 l 1
337 360 m 0
 346 414 392 448 446 448 c 0
 494 448 528 421 528 376 c 0
 528 371 528 366 527 360 c 0
 518 306 472 272 418 272 c 0
 370 272 336 299 336 344 c 0
 336 349 336 354 337 360 c 0
EndSplineSet
EndChar

StartChar: ldot
Encoding: 320 320 257
Width: 510
GlyphClass: 2
Flags: W
LayerCount: 2
Fore
SplineSet
32 140 m 2
 138 810 l 1
 298 810 l 1
 195 155 l 2
 194 149 194 144 194 139 c 0
 194 105 216 92 269 87 c 1
 222 -16 l 1
 142 -10 30 11 30 114 c 0
 30 122 31 131 32 140 c 2
287 360 m 0
 296 414 342 448 396 448 c 0
 444 448 478 421 478 376 c 0
 478 371 478 366 477 360 c 0
 468 306 422 272 368 272 c 0
 320 272 286 299 286 344 c 0
 286 349 286 354 287 360 c 0
EndSplineSet
EndChar

StartChar: Lslash
Encoding: 321 321 258
Width: 580
GlyphClass: 2
Flags: W
LayerCount: 2
Fore
SplineSet
274 486 m 1
 391 555 l 1
 388 458 l 1
 257 381 l 1
 218 130 l 1
 531 130 l 1
 510 0 l 1
 25 0 l 1
 68 269 l 1
 -7 225 l 1
 -4 322 l 1
 84 374 l 1
 149 780 l 1
 321 780 l 1
 274 486 l 1
EndSplineSet
EndChar

StartChar: lslash
Encoding: 322 322 259
Width: 360
GlyphClass: 2
Flags: W
AnchorPoint: "LatinBelow.mark" 130 0 basechar 0
LayerCount: 2
Fore
SplineSet
256 478 m 1
 386 555 l 1
 383 458 l 1
 239 373 l 1
 205 155 l 2
 204 149 204 144 204 139 c 0
 204 105 226 92 279 87 c 1
 232 -16 l 1
 152 -10 40 11 40 114 c 0
 40 122 41 131 42 140 c 2
 63 269 l 1
 -12 225 l 1
 -9 322 l 1
 79 374 l 1
 148 810 l 1
 308 810 l 1
 256 478 l 1
EndSplineSet
EndChar

StartChar: Nacute
Encoding: 323 323 260
Width: 790
GlyphClass: 2
Flags: W
AnchorPoint: "LatinBelow.mark" 335 0 basechar 0
LayerCount: 2
Fore
SplineSet
651 955 m 1
 388 840 l 1
 358 900 l 1
 603 1060 l 1
 651 955 l 1
15 0 m 1
 136 765 l 1
 284 780 l 1
 532 273 l 1
 613 780 l 1
 779 780 l 1
 655 0 l 1
 510 0 l 1
 261 507 l 1
 181 0 l 1
 15 0 l 1
EndSplineSet
EndChar

StartChar: nacute
Encoding: 324 324 261
Width: 655
GlyphClass: 2
Flags: W
AnchorPoint: "LatinBelow.mark" 300 0 basechar 0
LayerCount: 2
Fore
SplineSet
562 805 m 1
 299 690 l 1
 269 750 l 1
 514 910 l 1
 562 805 l 1
10 0 m 1
 77 420 l 1
 94 591 l 1
 241 603 l 1
 238 484 l 1
 289 556 363 616 463 616 c 0
 567 616 608 539 608 452 c 0
 608 437 606 421 604 406 c 2
 540 0 l 1
 380 0 l 1
 443 400 l 2
 445 412 446 422 446 431 c 0
 446 482 418 490 398 490 c 0
 331 490 253 405 218 305 c 1
 170 0 l 1
 10 0 l 1
EndSplineSet
EndChar

StartChar: uni0145
Encoding: 325 325 262
Width: 790
GlyphClass: 2
Flags: W
AnchorPoint: "LatinAbove.mark" 359 150 basechar 0
LayerCount: 2
Fore
SplineSet
287 -219 m 1
 280 -219 l 2
 241 -219 215 -198 215 -163 c 0
 215 -159 215 -154 216 -150 c 0
 224 -102 261 -65 317 -65 c 0
 375 -65 396 -104 396 -142 c 0
 396 -148 396 -153 395 -159 c 0
 378 -268 295 -326 228 -350 c 1
 197 -300 l 1
 229 -289 265 -263 287 -219 c 1
15 0 m 1
 136 765 l 1
 284 780 l 1
 532 273 l 1
 613 780 l 1
 779 780 l 1
 655 0 l 1
 510 0 l 1
 261 507 l 1
 181 0 l 1
 15 0 l 1
EndSplineSet
EndChar

StartChar: uni0146
Encoding: 326 326 263
Width: 655
GlyphClass: 2
Flags: W
AnchorPoint: "LatinAbove.mark" 270 0 basechar 0
LayerCount: 2
Fore
SplineSet
252 -219 m 1
 245 -219 l 2
 206 -219 180 -198 180 -163 c 0
 180 -159 180 -154 181 -150 c 0
 189 -102 226 -65 282 -65 c 0
 340 -65 361 -104 361 -142 c 0
 361 -148 361 -153 360 -159 c 0
 343 -268 260 -326 193 -350 c 1
 162 -300 l 1
 194 -289 230 -263 252 -219 c 1
10 0 m 1
 77 420 l 1
 94 591 l 1
 241 603 l 1
 238 484 l 1
 289 556 363 616 463 616 c 0
 567 616 608 539 608 452 c 0
 608 437 606 421 604 406 c 2
 540 0 l 1
 380 0 l 1
 443 400 l 2
 445 412 446 422 446 431 c 0
 446 482 418 490 398 490 c 0
 331 490 253 405 218 305 c 1
 170 0 l 1
 10 0 l 1
EndSplineSet
EndChar

StartChar: Ncaron
Encoding: 327 327 264
Width: 790
GlyphClass: 2
Flags: W
AnchorPoint: "LatinBelow.mark" 335 0 basechar 0
LayerCount: 2
Fore
SplineSet
700 980 m 1
 487 835 l 1
 447 835 l 1
 280 980 l 1
 333 1030 l 1
 486 950 l 1
 663 1030 l 1
 700 980 l 1
15 0 m 1
 136 765 l 1
 284 780 l 1
 532 273 l 1
 613 780 l 1
 779 780 l 1
 655 0 l 1
 510 0 l 1
 261 507 l 1
 181 0 l 1
 15 0 l 1
EndSplineSet
EndChar

StartChar: ncaron
Encoding: 328 328 265
Width: 655
GlyphClass: 2
Flags: W
AnchorPoint: "LatinBelow.mark" 300 0 basechar 0
LayerCount: 2
Fore
SplineSet
611 830 m 1
 398 685 l 1
 358 685 l 1
 191 830 l 1
 244 880 l 1
 397 800 l 1
 574 880 l 1
 611 830 l 1
10 0 m 1
 77 420 l 1
 94 591 l 1
 241 603 l 1
 238 484 l 1
 289 556 363 616 463 616 c 0
 567 616 608 539 608 452 c 0
 608 437 606 421 604 406 c 2
 540 0 l 1
 380 0 l 1
 443 400 l 2
 445 412 446 422 446 431 c 0
 446 482 418 490 398 490 c 0
 331 490 253 405 218 305 c 1
 170 0 l 1
 10 0 l 1
EndSplineSet
EndChar

StartChar: napostrophe
Encoding: 329 329 266
Width: 865
GlyphClass: 2
Flags: W
LayerCount: 2
Fore
SplineSet
80 818 m 0
 88 871 129 910 189 910 c 0
 256 910 281 863 281 812 c 0
 281 803 281 794 279 785 c 0
 260 662 162 574 82 530 c 1
 44 594 l 1
 92 621 137 666 161 734 c 1
 156 734 l 2
 110 734 79 760 79 803 c 0
 79 808 79 813 80 818 c 0
220 0 m 1
 287 420 l 1
 304 591 l 1
 451 603 l 1
 448 484 l 1
 499 556 573 616 673 616 c 0
 777 616 818 539 818 452 c 0
 818 437 816 421 814 406 c 2
 750 0 l 1
 590 0 l 1
 653 400 l 2
 655 412 656 422 656 431 c 0
 656 482 628 490 608 490 c 0
 541 490 463 405 428 305 c 1
 380 0 l 1
 220 0 l 1
EndSplineSet
EndChar

StartChar: Omacron
Encoding: 332 332 267
Width: 820
GlyphClass: 2
Flags: W
AnchorPoint: "LatinBelow.mark" 350 0 basechar 0
AnchorPoint: "LatinAbove.mark" 402 330 basechar 0
LayerCount: 2
Fore
SplineSet
280 880 m 1
 295 980 l 1
 715 980 l 1
 700 880 l 1
 280 880 l 1
44 373 m 2
 49 407 l 2
 77 581 188 801 477 801 c 0
 718 801 786 649 786 497 c 0
 786 467 784 436 779 407 c 2
 774 373 l 2
 746 199 636 -21 347 -21 c 0
 106 -21 37 132 37 284 c 0
 37 314 39 344 44 373 c 2
366 104 m 0
 487 104 572 197 600 373 c 2
 605 407 l 2
 610 437 612 465 612 490 c 0
 612 612 557 676 457 676 c 0
 336 676 251 583 223 407 c 2
 218 373 l 2
 213 343 211 315 211 290 c 0
 211 168 266 104 366 104 c 0
EndSplineSet
EndChar

StartChar: omacron
Encoding: 333 333 268
Width: 660
GlyphClass: 2
Flags: W
AnchorPoint: "LatinBelow.mark" 270 0 basechar 0
AnchorPoint: "LatinAbove.mark" 299 180 basechar 0
LayerCount: 2
Fore
SplineSet
176 730 m 1
 191 830 l 1
 611 830 l 1
 596 730 l 1
 176 730 l 1
25 287 m 2
 30 313 l 2
 51 443 133 621 368 621 c 0
 563 621 616 498 616 382 c 0
 616 358 614 335 610 313 c 2
 605 287 l 2
 584 157 502 -21 267 -21 c 0
 72 -21 19 102 19 218 c 0
 19 242 21 265 25 287 c 2
285 93 m 0
 360 93 424 153 445 287 c 1
 450 313 l 2
 453 335 455 355 455 373 c 0
 455 465 413 507 350 507 c 0
 275 507 211 447 190 313 c 1
 185 287 l 2
 182 265 180 245 180 227 c 0
 180 135 222 93 285 93 c 0
EndSplineSet
EndChar

StartChar: Obreve
Encoding: 334 334 269
Width: 820
GlyphClass: 2
Flags: W
AnchorPoint: "LatinBelow.mark" 350 0 basechar 0
AnchorPoint: "LatinAbove.mark" 402 330 basechar 0
LayerCount: 2
Fore
SplineSet
296 984 m 1
 397 1015 l 1
 403 981 420 935 498 935 c 0
 576 935 609 981 625 1015 c 1
 716 984 l 1
 684 916 613 840 483 840 c 0
 353 840 306 916 296 984 c 1
44 373 m 2
 49 407 l 2
 77 581 188 801 477 801 c 0
 718 801 786 649 786 497 c 0
 786 467 784 436 779 407 c 2
 774 373 l 2
 746 199 636 -21 347 -21 c 0
 106 -21 37 132 37 284 c 0
 37 314 39 344 44 373 c 2
366 104 m 0
 487 104 572 197 600 373 c 2
 605 407 l 2
 610 437 612 465 612 490 c 0
 612 612 557 676 457 676 c 0
 336 676 251 583 223 407 c 2
 218 373 l 2
 213 343 211 315 211 290 c 0
 211 168 266 104 366 104 c 0
EndSplineSet
EndChar

StartChar: obreve
Encoding: 335 335 270
Width: 660
GlyphClass: 2
Flags: W
AnchorPoint: "LatinBelow.mark" 270 0 basechar 0
AnchorPoint: "LatinAbove.mark" 299 180 basechar 0
LayerCount: 2
Fore
SplineSet
192 834 m 1
 293 865 l 1
 299 831 316 785 394 785 c 0
 472 785 505 831 521 865 c 1
 612 834 l 1
 580 766 509 690 379 690 c 0
 249 690 202 766 192 834 c 1
25 287 m 2
 30 313 l 2
 51 443 133 621 368 621 c 0
 563 621 616 498 616 382 c 0
 616 358 614 335 610 313 c 2
 605 287 l 2
 584 157 502 -21 267 -21 c 0
 72 -21 19 102 19 218 c 0
 19 242 21 265 25 287 c 2
285 93 m 0
 360 93 424 153 445 287 c 1
 450 313 l 2
 453 335 455 355 455 373 c 0
 455 465 413 507 350 507 c 0
 275 507 211 447 190 313 c 1
 185 287 l 2
 182 265 180 245 180 227 c 0
 180 135 222 93 285 93 c 0
EndSplineSet
EndChar

StartChar: Ohungarumlaut
Encoding: 336 336 271
Width: 820
GlyphClass: 2
Flags: W
AnchorPoint: "LatinBelow.mark" 350 0 basechar 0
AnchorPoint: "LatinAbove.mark" 402 330 basechar 0
LayerCount: 2
Fore
SplineSet
310 880 m 1
 445 1070 l 1
 524 1005 l 1
 358 840 l 1
 310 880 l 1
535 880 m 1
 670 1070 l 1
 749 1005 l 1
 583 840 l 1
 535 880 l 1
44 373 m 2
 49 407 l 2
 77 581 188 801 477 801 c 0
 718 801 786 649 786 497 c 0
 786 467 784 436 779 407 c 2
 774 373 l 2
 746 199 636 -21 347 -21 c 0
 106 -21 37 132 37 284 c 0
 37 314 39 344 44 373 c 2
366 104 m 0
 487 104 572 197 600 373 c 2
 605 407 l 2
 610 437 612 465 612 490 c 0
 612 612 557 676 457 676 c 0
 336 676 251 583 223 407 c 2
 218 373 l 2
 213 343 211 315 211 290 c 0
 211 168 266 104 366 104 c 0
EndSplineSet
EndChar

StartChar: ohungarumlaut
Encoding: 337 337 272
Width: 660
GlyphClass: 2
Flags: W
AnchorPoint: "LatinBelow.mark" 270 0 basechar 0
AnchorPoint: "LatinAbove.mark" 299 180 basechar 0
LayerCount: 2
Fore
SplineSet
206 730 m 1
 341 920 l 1
 420 855 l 1
 254 690 l 1
 206 730 l 1
431 730 m 1
 566 920 l 1
 645 855 l 1
 479 690 l 1
 431 730 l 1
25 287 m 2
 30 313 l 2
 51 443 133 621 368 621 c 0
 563 621 616 498 616 382 c 0
 616 358 614 335 610 313 c 2
 605 287 l 2
 584 157 502 -21 267 -21 c 0
 72 -21 19 102 19 218 c 0
 19 242 21 265 25 287 c 2
285 93 m 0
 360 93 424 153 445 287 c 1
 450 313 l 2
 453 335 455 355 455 373 c 0
 455 465 413 507 350 507 c 0
 275 507 211 447 190 313 c 1
 185 287 l 2
 182 265 180 245 180 227 c 0
 180 135 222 93 285 93 c 0
EndSplineSet
EndChar

StartChar: OE
Encoding: 338 338 273
Width: 980
GlyphClass: 2
Flags: W
AnchorPoint: "LatinBelow.mark" 450 0 basechar 0
AnchorPoint: "LatinAbove.mark" 474 150 basechar 0
LayerCount: 2
Fore
SplineSet
44 373 m 2
 49 407 l 2
 77 581 188 801 477 801 c 0
 531 801 576 794 614 780 c 1
 989 780 l 1
 968 650 l 1
 653 650 l 1
 620 445 l 1
 895 445 l 1
 876 325 l 1
 601 325 l 1
 571 130 l 1
 901 130 l 1
 880 0 l 1
 490 0 l 1
 448 -14 401 -21 347 -21 c 0
 106 -21 37 132 37 284 c 0
 37 314 39 344 44 373 c 2
487 674 m 1
 478 675 468 676 457 676 c 0
 336 676 251 583 223 407 c 2
 218 373 l 2
 213 343 211 315 211 290 c 0
 211 168 266 104 366 104 c 0
 377 104 388 105 397 106 c 1
 487 674 l 1
EndSplineSet
EndChar

StartChar: oe
Encoding: 339 339 274
Width: 960
GlyphClass: 2
Flags: W
AnchorPoint: "LatinBelow.mark" 420 0 basechar 0
AnchorPoint: "LatinAbove.mark" 420 0 basechar 0
LayerCount: 2
Fore
SplineSet
25 287 m 2
 30 313 l 2
 50 437 120 621 338 621 c 0
 426 621 478 591 508 547 c 1
 555 591 618 621 701 621 c 0
 856 621 921 516 921 404 c 0
 921 388 919 373 917 357 c 0
 912 326 903 295 892 265 c 1
 528 265 l 1
 526 246 524 228 524 212 c 0
 524 130 556 91 617 91 c 0
 676 91 710 131 722 167 c 1
 874 153 l 1
 852 87 758 -21 600 -21 c 0
 515 -21 461 8 428 52 c 1
 384 9 324 -21 237 -21 c 0
 62 -21 18 98 18 209 c 0
 18 236 21 263 25 287 c 2
320 507 m 0
 267 507 212 453 190 313 c 1
 185 287 l 2
 181 260 179 236 179 215 c 0
 179 128 212 93 255 93 c 0
 308 93 363 147 385 287 c 1
 390 313 l 2
 394 340 396 364 396 385 c 0
 396 472 363 507 320 507 c 0
547 365 m 1
 768 365 l 1
 770 381 771 394 771 407 c 0
 771 482 735 509 684 509 c 0
 626 509 574 462 547 365 c 1
EndSplineSet
EndChar

StartChar: Racute
Encoding: 340 340 275
Width: 730
GlyphClass: 2
Flags: W
AnchorPoint: "LatinBelow.mark" 300 0 basechar 0
LayerCount: 2
Fore
SplineSet
616 955 m 1
 353 840 l 1
 323 900 l 1
 568 1060 l 1
 616 955 l 1
268 302 m 1
 256 302 243 303 231 303 c 1
 183 0 l 1
 15 0 l 1
 64 310 l 1
 139 780 l 1
 139 780 277 789 415 789 c 0
 598 789 714 710 714 582 c 0
 714 570 713 558 711 545 c 0
 692 425 593 341 451 312 c 1
 656 8 l 1
 655 0 l 1
 463 0 l 1
 268 302 l 1
250 424 m 1
 274 423 305 421 337 421 c 0
 439 421 527 446 543 545 c 0
 544 553 545 562 545 569 c 0
 545 648 469 669 376 669 c 0
 344 669 312 667 288 666 c 1
 250 424 l 1
EndSplineSet
EndChar

StartChar: racute
Encoding: 341 341 276
Width: 435
GlyphClass: 2
Flags: W
AnchorPoint: "LatinBelow.mark" 110 0 basechar 0
LayerCount: 2
Fore
SplineSet
472 805 m 1
 209 690 l 1
 179 750 l 1
 424 910 l 1
 472 805 l 1
88 588 m 1
 225 603 l 1
 238 483 l 1
 275 555 332 616 417 616 c 0
 445 616 467 609 485 599 c 1
 404 469 l 1
 394 476 383 480 367 480 c 0
 318 480 269 407 240 314 c 1
 190 0 l 1
 30 0 l 1
 101 450 l 1
 88 588 l 1
EndSplineSet
EndChar

StartChar: uni0156
Encoding: 342 342 277
Width: 730
GlyphClass: 2
Flags: W
AnchorPoint: "LatinAbove.mark" 324 150 basechar 0
LayerCount: 2
Fore
SplineSet
252 -219 m 1
 245 -219 l 2
 206 -219 180 -198 180 -163 c 0
 180 -159 180 -154 181 -150 c 0
 189 -102 226 -65 282 -65 c 0
 340 -65 361 -104 361 -142 c 0
 361 -148 361 -153 360 -159 c 0
 343 -268 260 -326 193 -350 c 1
 162 -300 l 1
 194 -289 230 -263 252 -219 c 1
268 302 m 1
 256 302 243 303 231 303 c 1
 183 0 l 1
 15 0 l 1
 64 310 l 1
 139 780 l 1
 139 780 277 789 415 789 c 0
 598 789 714 710 714 582 c 0
 714 570 713 558 711 545 c 0
 692 425 593 341 451 312 c 1
 656 8 l 1
 655 0 l 1
 463 0 l 1
 268 302 l 1
250 424 m 1
 274 423 305 421 337 421 c 0
 439 421 527 446 543 545 c 0
 544 553 545 562 545 569 c 0
 545 648 469 669 376 669 c 0
 344 669 312 667 288 666 c 1
 250 424 l 1
EndSplineSet
EndChar

StartChar: uni0157
Encoding: 343 343 278
Width: 435
GlyphClass: 2
Flags: W
AnchorPoint: "LatinAbove.mark" 180 0 basechar 0
LayerCount: 2
Fore
SplineSet
62 -219 m 1
 55 -219 l 2
 16 -219 -10 -198 -10 -163 c 0
 -10 -159 -10 -154 -9 -150 c 0
 -1 -102 36 -65 92 -65 c 0
 150 -65 171 -104 171 -142 c 0
 171 -148 171 -153 170 -159 c 0
 153 -268 70 -326 3 -350 c 1
 -28 -300 l 1
 4 -289 40 -263 62 -219 c 1
88 588 m 1
 225 603 l 1
 238 483 l 1
 275 555 332 616 417 616 c 0
 445 616 467 609 485 599 c 1
 404 469 l 1
 394 476 383 480 367 480 c 0
 318 480 269 407 240 314 c 1
 190 0 l 1
 30 0 l 1
 101 450 l 1
 88 588 l 1
EndSplineSet
EndChar

StartChar: Rcaron
Encoding: 344 344 279
Width: 730
GlyphClass: 2
Flags: W
AnchorPoint: "LatinBelow.mark" 300 0 basechar 0
LayerCount: 2
Fore
SplineSet
665 980 m 1
 452 835 l 1
 412 835 l 1
 245 980 l 1
 298 1030 l 1
 451 950 l 1
 628 1030 l 1
 665 980 l 1
268 302 m 1
 256 302 243 303 231 303 c 1
 183 0 l 1
 15 0 l 1
 64 310 l 1
 139 780 l 1
 139 780 277 789 415 789 c 0
 598 789 714 710 714 582 c 0
 714 570 713 558 711 545 c 0
 692 425 593 341 451 312 c 1
 656 8 l 1
 655 0 l 1
 463 0 l 1
 268 302 l 1
250 424 m 1
 274 423 305 421 337 421 c 0
 439 421 527 446 543 545 c 0
 544 553 545 562 545 569 c 0
 545 648 469 669 376 669 c 0
 344 669 312 667 288 666 c 1
 250 424 l 1
EndSplineSet
EndChar

StartChar: rcaron
Encoding: 345 345 280
Width: 435
GlyphClass: 2
Flags: W
AnchorPoint: "LatinBelow.mark" 110 0 basechar 0
LayerCount: 2
Fore
SplineSet
521 830 m 1
 308 685 l 1
 268 685 l 1
 101 830 l 1
 154 880 l 1
 307 800 l 1
 484 880 l 1
 521 830 l 1
88 588 m 1
 225 603 l 1
 238 483 l 1
 275 555 332 616 417 616 c 0
 445 616 467 609 485 599 c 1
 404 469 l 1
 394 476 383 480 367 480 c 0
 318 480 269 407 240 314 c 1
 190 0 l 1
 30 0 l 1
 101 450 l 1
 88 588 l 1
EndSplineSet
EndChar

StartChar: Sacute
Encoding: 346 346 281
Width: 710
GlyphClass: 2
Flags: W
AnchorPoint: "LatinBelow.mark" 295 0 basechar 0
LayerCount: 2
Fore
SplineSet
611 955 m 1
 348 840 l 1
 318 900 l 1
 563 1060 l 1
 611 955 l 1
9 184 m 1
 181 208 l 1
 182 156 222 101 311 101 c 0
 410 101 467 139 478 207 c 0
 479 213 479 220 479 225 c 0
 479 274 442 289 415 297 c 0
 361 312 281 340 227 360 c 0
 164 385 84 437 84 537 c 0
 84 547 85 558 87 569 c 0
 108 701 245 801 422 801 c 0
 611 801 682 678 685 600 c 1
 513 576 l 1
 512 628 474 679 403 679 c 0
 322 679 263 639 253 577 c 0
 252 573 252 568 252 564 c 0
 252 524 287 511 323 496 c 0
 372 478 450 452 497 437 c 0
 571 413 647 360 647 254 c 0
 647 242 646 229 644 215 c 0
 623 82 487 -21 292 -21 c 0
 87 -21 11 104 9 184 c 1
EndSplineSet
EndChar

StartChar: sacute
Encoding: 347 347 282
Width: 570
GlyphClass: 2
Flags: W
AnchorPoint: "LatinBelow.mark" 225 0 basechar 0
LayerCount: 2
Fore
SplineSet
517 805 m 1
 254 690 l 1
 224 750 l 1
 469 910 l 1
 517 805 l 1
-7 143 m 1
 151 163 l 1
 151 124 182 91 245 91 c 0
 306 91 347 118 354 162 c 0
 355 166 355 170 355 173 c 0
 355 207 326 220 309 225 c 0
 267 238 208 254 168 270 c 0
 116 290 52 324 52 407 c 0
 52 416 52 425 54 435 c 0
 70 539 178 621 323 621 c 0
 481 621 536 524 538 460 c 1
 380 440 l 1
 380 479 359 509 306 509 c 0
 254 509 214 483 207 441 c 0
 207 439 206 436 206 434 c 0
 206 406 234 392 256 385 c 0
 295 372 356 354 387 344 c 0
 448 324 510 290 510 203 c 0
 510 192 509 180 507 168 c 0
 490 62 379 -21 222 -21 c 0
 53 -21 -5 77 -7 143 c 1
EndSplineSet
EndChar

StartChar: Scircumflex
Encoding: 348 348 283
Width: 710
GlyphClass: 2
Flags: W
AnchorPoint: "LatinBelow.mark" 295 0 basechar 0
LayerCount: 2
Fore
SplineSet
224 875 m 1
 437 1020 l 1
 477 1020 l 1
 644 875 l 1
 591 825 l 1
 439 905 l 1
 261 825 l 1
 224 875 l 1
9 184 m 1
 181 208 l 1
 182 156 222 101 311 101 c 0
 410 101 467 139 478 207 c 0
 479 213 479 220 479 225 c 0
 479 274 442 289 415 297 c 0
 361 312 281 340 227 360 c 0
 164 385 84 437 84 537 c 0
 84 547 85 558 87 569 c 0
 108 701 245 801 422 801 c 0
 611 801 682 678 685 600 c 1
 513 576 l 1
 512 628 474 679 403 679 c 0
 322 679 263 639 253 577 c 0
 252 573 252 568 252 564 c 0
 252 524 287 511 323 496 c 0
 372 478 450 452 497 437 c 0
 571 413 647 360 647 254 c 0
 647 242 646 229 644 215 c 0
 623 82 487 -21 292 -21 c 0
 87 -21 11 104 9 184 c 1
EndSplineSet
EndChar

StartChar: scircumflex
Encoding: 349 349 284
Width: 570
GlyphClass: 2
Flags: W
AnchorPoint: "LatinBelow.mark" 225 0 basechar 0
LayerCount: 2
Fore
SplineSet
130 725 m 1
 343 870 l 1
 383 870 l 1
 550 725 l 1
 497 675 l 1
 345 755 l 1
 167 675 l 1
 130 725 l 1
-7 143 m 1
 151 163 l 1
 151 124 182 91 245 91 c 0
 306 91 347 118 354 162 c 0
 355 166 355 170 355 173 c 0
 355 207 326 220 309 225 c 0
 267 238 208 254 168 270 c 0
 116 290 52 324 52 407 c 0
 52 416 52 425 54 435 c 0
 70 539 178 621 323 621 c 0
 481 621 536 524 538 460 c 1
 380 440 l 1
 380 479 359 509 306 509 c 0
 254 509 214 483 207 441 c 0
 207 439 206 436 206 434 c 0
 206 406 234 392 256 385 c 0
 295 372 356 354 387 344 c 0
 448 324 510 290 510 203 c 0
 510 192 509 180 507 168 c 0
 490 62 379 -21 222 -21 c 0
 53 -21 -5 77 -7 143 c 1
EndSplineSet
EndChar

StartChar: Scedilla
Encoding: 350 350 285
Width: 710
GlyphClass: 2
Flags: W
AnchorPoint: "LatinAbove.mark" 319 150 basechar 0
LayerCount: 2
Fore
SplineSet
173 -265 m 1
 245 -250 327 -220 327 -171 c 0
 327 -159 317 -150 276 -150 c 0
 264 -150 247 -153 235 -155 c 1
 198 -110 l 1
 262 -20 l 1
 80 -8 11 108 9 184 c 1
 181 208 l 1
 182 156 222 101 311 101 c 0
 410 101 467 139 478 207 c 0
 479 213 479 220 479 225 c 0
 479 274 442 289 415 297 c 0
 361 312 281 340 227 360 c 0
 164 385 84 437 84 537 c 0
 84 547 85 558 87 569 c 0
 108 701 245 801 422 801 c 0
 611 801 682 678 685 600 c 1
 513 576 l 1
 512 628 474 679 403 679 c 0
 322 679 263 639 253 577 c 0
 252 573 252 568 252 564 c 0
 252 524 287 511 323 496 c 0
 372 478 450 452 497 437 c 0
 571 413 647 360 647 254 c 0
 647 242 646 229 644 215 c 0
 625 95 513 0 348 -18 c 1
 304 -80 l 1
 380 -80 428 -104 428 -159 c 0
 428 -164 428 -169 427 -175 c 0
 409 -291 242 -323 187 -335 c 1
 173 -265 l 1
EndSplineSet
Substitution2: "Latin.st.cedilla subtable" uni0218
EndChar

StartChar: scedilla
Encoding: 351 351 286
Width: 570
GlyphClass: 2
Flags: W
AnchorPoint: "LatinAbove.mark" 225 0 basechar 0
LayerCount: 2
Fore
SplineSet
103 -265 m 1
 175 -250 257 -220 257 -171 c 0
 257 -159 247 -150 206 -150 c 0
 194 -150 177 -153 165 -155 c 1
 128 -110 l 1
 192 -20 l 1
 46 -9 -6 81 -7 143 c 1
 151 163 l 1
 151 124 182 91 245 91 c 0
 306 91 347 118 354 162 c 0
 355 166 355 170 355 173 c 0
 355 207 326 220 309 225 c 0
 267 238 208 254 168 270 c 0
 116 290 52 324 52 407 c 0
 52 416 52 425 54 435 c 0
 70 539 178 621 323 621 c 0
 481 621 536 524 538 460 c 1
 380 440 l 1
 380 479 359 509 306 509 c 0
 254 509 214 483 207 441 c 0
 207 439 206 436 206 434 c 0
 206 406 234 392 256 385 c 0
 295 372 356 354 387 344 c 0
 448 324 510 290 510 203 c 0
 510 192 509 180 507 168 c 0
 492 75 406 1 279 -17 c 1
 234 -80 l 1
 310 -80 358 -104 358 -159 c 0
 358 -164 358 -169 357 -175 c 0
 339 -291 172 -323 117 -335 c 1
 103 -265 l 1
EndSplineSet
Substitution2: "Latin.st.cedilla subtable" uni0219
EndChar

StartChar: Scaron
Encoding: 352 352 287
Width: 710
GlyphClass: 2
Flags: W
AnchorPoint: "LatinBelow.mark" 295 0 basechar 0
LayerCount: 2
Fore
SplineSet
660 980 m 1
 447 835 l 1
 407 835 l 1
 240 980 l 1
 293 1030 l 1
 446 950 l 1
 623 1030 l 1
 660 980 l 1
9 184 m 1
 181 208 l 1
 182 156 222 101 311 101 c 0
 410 101 467 139 478 207 c 0
 479 213 479 220 479 225 c 0
 479 274 442 289 415 297 c 0
 361 312 281 340 227 360 c 0
 164 385 84 437 84 537 c 0
 84 547 85 558 87 569 c 0
 108 701 245 801 422 801 c 0
 611 801 682 678 685 600 c 1
 513 576 l 1
 512 628 474 679 403 679 c 0
 322 679 263 639 253 577 c 0
 252 573 252 568 252 564 c 0
 252 524 287 511 323 496 c 0
 372 478 450 452 497 437 c 0
 571 413 647 360 647 254 c 0
 647 242 646 229 644 215 c 0
 623 82 487 -21 292 -21 c 0
 87 -21 11 104 9 184 c 1
EndSplineSet
EndChar

StartChar: scaron
Encoding: 353 353 288
Width: 570
GlyphClass: 2
Flags: W
AnchorPoint: "LatinBelow.mark" 225 0 basechar 0
LayerCount: 2
Fore
SplineSet
566 830 m 1
 353 685 l 1
 313 685 l 1
 146 830 l 1
 199 880 l 1
 352 800 l 1
 529 880 l 1
 566 830 l 1
-7 143 m 1
 151 163 l 1
 151 124 182 91 245 91 c 0
 306 91 347 118 354 162 c 0
 355 166 355 170 355 173 c 0
 355 207 326 220 309 225 c 0
 267 238 208 254 168 270 c 0
 116 290 52 324 52 407 c 0
 52 416 52 425 54 435 c 0
 70 539 178 621 323 621 c 0
 481 621 536 524 538 460 c 1
 380 440 l 1
 380 479 359 509 306 509 c 0
 254 509 214 483 207 441 c 0
 207 439 206 436 206 434 c 0
 206 406 234 392 256 385 c 0
 295 372 356 354 387 344 c 0
 448 324 510 290 510 203 c 0
 510 192 509 180 507 168 c 0
 490 62 379 -21 222 -21 c 0
 53 -21 -5 77 -7 143 c 1
EndSplineSet
EndChar

StartChar: uni0162
Encoding: 354 354 289
Width: 620
GlyphClass: 2
Flags: W
AnchorPoint: "LatinAbove.mark" 274 150 basechar 0
LayerCount: 2
Fore
SplineSet
113 -265 m 1
 185 -250 267 -220 267 -171 c 0
 267 -159 257 -150 216 -150 c 0
 204 -150 187 -153 175 -155 c 1
 138 -110 l 1
 216 0 l 1
 165 0 l 1
 269 655 l 1
 59 655 l 1
 79 780 l 1
 669 780 l 1
 649 655 l 1
 439 655 l 1
 335 0 l 1
 301 0 l 1
 244 -80 l 1
 320 -80 368 -104 368 -159 c 0
 368 -164 368 -169 367 -175 c 0
 349 -291 182 -323 127 -335 c 1
 113 -265 l 1
EndSplineSet
Substitution2: "Latin.st.cedilla subtable" uni021A
EndChar

StartChar: uni0163
Encoding: 355 355 290
Width: 415
GlyphClass: 2
Flags: W
AnchorPoint: "LatinAbove.mark" 139 120 basechar 0
LayerCount: 2
Fore
SplineSet
63 -265 m 1
 135 -250 217 -220 217 -171 c 0
 217 -159 207 -150 166 -150 c 0
 154 -150 137 -153 125 -155 c 1
 88 -110 l 1
 158 -11 l 1
 97 1 59 37 59 105 c 0
 59 116 60 128 62 140 c 2
 119 500 l 1
 39 500 l 1
 55 600 l 1
 141 600 l 1
 161 723 l 1
 313 735 l 1
 292 600 l 1
 425 600 l 1
 409 500 l 1
 279 500 l 1
 226 164 l 2
 224 151 223 141 223 132 c 0
 223 105 233 98 255 98 c 0
 290 98 328 111 342 119 c 1
 362 15 l 1
 332 1 292 -12 241 -15 c 1
 194 -80 l 1
 270 -80 318 -104 318 -159 c 0
 318 -164 318 -169 317 -175 c 0
 299 -291 132 -323 77 -335 c 1
 63 -265 l 1
EndSplineSet
Substitution2: "Latin.st.cedilla subtable" uni021B
EndChar

StartChar: Tcaron
Encoding: 356 356 291
Width: 620
GlyphClass: 2
Flags: W
AnchorPoint: "LatinBelow.mark" 250 0 basechar 0
LayerCount: 2
Fore
SplineSet
615 980 m 1
 402 835 l 1
 362 835 l 1
 195 980 l 1
 248 1030 l 1
 401 950 l 1
 578 1030 l 1
 615 980 l 1
59 655 m 1
 79 780 l 1
 669 780 l 1
 649 655 l 1
 439 655 l 1
 335 0 l 1
 165 0 l 1
 269 655 l 1
 59 655 l 1
EndSplineSet
EndChar

StartChar: tcaron
Encoding: 357 357 292
Width: 625
GlyphClass: 2
Flags: W
LayerCount: 2
Fore
SplineSet
39 500 m 1
 55 600 l 1
 141 600 l 1
 161 723 l 1
 313 735 l 1
 292 600 l 1
 425 600 l 1
 409 500 l 1
 279 500 l 1
 226 164 l 2
 224 151 223 141 223 132 c 0
 223 105 233 98 255 98 c 0
 290 98 328 111 342 119 c 1
 362 15 l 1
 327 -1 279 -16 215 -16 c 0
 122 -16 59 18 59 105 c 0
 59 116 60 128 62 140 c 2
 119 500 l 1
 39 500 l 1
565 681 m 1
 558 681 l 2
 519 681 493 702 493 737 c 0
 493 741 493 746 494 750 c 0
 502 798 538 835 594 835 c 0
 652 835 673 796 673 758 c 0
 673 752 673 747 672 741 c 0
 655 632 572 574 505 550 c 1
 475 600 l 1
 507 611 543 637 565 681 c 1
EndSplineSet
EndChar

StartChar: Utilde
Encoding: 360 360 293
Width: 770
GlyphClass: 2
Flags: W
AnchorPoint: "LatinBelow.mark" 325 0 basechar 0
AnchorPoint: "LatinAbove.mark" 377 330 basechar 0
LayerCount: 2
Fore
SplineSet
256 890 m 1
 293 956 336 1015 411 1015 c 0
 471 1015 500 985 518 967 c 0
 534 951 543 940 553 940 c 0
 578 940 603 990 615 1010 c 1
 690 980 l 1
 653 914 611 855 536 855 c 0
 476 855 446 885 428 903 c 0
 412 919 404 930 394 930 c 0
 369 930 343 880 331 860 c 1
 256 890 l 1
44 246 m 2
 129 780 l 1
 301 780 l 1
 216 246 l 2
 214 234 213 224 213 214 c 0
 213 135 267 103 341 103 c 0
 424 103 496 143 512 246 c 2
 597 780 l 1
 769 780 l 1
 684 246 l 2
 661 99 519 -21 322 -21 c 0
 143 -21 41 78 41 206 c 0
 41 219 42 233 44 246 c 2
EndSplineSet
EndChar

StartChar: utilde
Encoding: 361 361 294
Width: 620
GlyphClass: 2
Flags: W
AnchorPoint: "LatinBelow.mark" 250 0 basechar 0
AnchorPoint: "LatinAbove.mark" 279 180 basechar 0
LayerCount: 2
Fore
SplineSet
157 740 m 1
 194 806 237 865 312 865 c 0
 372 865 401 835 419 817 c 0
 435 801 444 790 454 790 c 0
 479 790 504 840 516 860 c 1
 591 830 l 1
 554 764 512 705 437 705 c 0
 377 705 347 735 329 753 c 0
 313 769 305 780 295 780 c 0
 270 780 244 730 232 710 c 1
 157 740 l 1
21 194 m 2
 85 600 l 1
 245 600 l 1
 181 194 l 2
 180 185 179 177 179 169 c 0
 179 112 217 93 265 93 c 0
 319 93 369 118 381 194 c 2
 445 600 l 1
 605 600 l 1
 541 194 l 2
 523 78 409 -21 247 -21 c 0
 100 -21 19 61 19 163 c 0
 19 173 19 183 21 194 c 2
EndSplineSet
EndChar

StartChar: Umacron
Encoding: 362 362 295
Width: 770
GlyphClass: 2
Flags: W
AnchorPoint: "LatinBelow.mark" 325 0 basechar 0
AnchorPoint: "LatinAbove.mark" 377 330 basechar 0
LayerCount: 2
Fore
SplineSet
255 880 m 1
 270 980 l 1
 690 980 l 1
 675 880 l 1
 255 880 l 1
44 246 m 2
 129 780 l 1
 301 780 l 1
 216 246 l 2
 214 234 213 224 213 214 c 0
 213 135 267 103 341 103 c 0
 424 103 496 143 512 246 c 2
 597 780 l 1
 769 780 l 1
 684 246 l 2
 661 99 519 -21 322 -21 c 0
 143 -21 41 78 41 206 c 0
 41 219 42 233 44 246 c 2
EndSplineSet
EndChar

StartChar: umacron
Encoding: 363 363 296
Width: 620
GlyphClass: 2
Flags: W
AnchorPoint: "LatinBelow.mark" 250 0 basechar 0
AnchorPoint: "LatinAbove.mark" 279 180 basechar 0
LayerCount: 2
Fore
SplineSet
156 730 m 1
 171 830 l 1
 591 830 l 1
 576 730 l 1
 156 730 l 1
21 194 m 2
 85 600 l 1
 245 600 l 1
 181 194 l 2
 180 185 179 177 179 169 c 0
 179 112 217 93 265 93 c 0
 319 93 369 118 381 194 c 2
 445 600 l 1
 605 600 l 1
 541 194 l 2
 523 78 409 -21 247 -21 c 0
 100 -21 19 61 19 163 c 0
 19 173 19 183 21 194 c 2
EndSplineSet
EndChar

StartChar: Ubreve
Encoding: 364 364 297
Width: 770
GlyphClass: 2
Flags: W
AnchorPoint: "LatinBelow.mark" 325 0 basechar 0
AnchorPoint: "LatinAbove.mark" 377 330 basechar 0
LayerCount: 2
Fore
SplineSet
271 984 m 1
 372 1015 l 1
 378 981 395 935 473 935 c 0
 551 935 584 981 600 1015 c 1
 691 984 l 1
 659 916 588 840 458 840 c 0
 328 840 281 916 271 984 c 1
44 246 m 2
 129 780 l 1
 301 780 l 1
 216 246 l 2
 214 234 213 224 213 214 c 0
 213 135 267 103 341 103 c 0
 424 103 496 143 512 246 c 2
 597 780 l 1
 769 780 l 1
 684 246 l 2
 661 99 519 -21 322 -21 c 0
 143 -21 41 78 41 206 c 0
 41 219 42 233 44 246 c 2
EndSplineSet
EndChar

StartChar: ubreve
Encoding: 365 365 298
Width: 620
GlyphClass: 2
Flags: W
AnchorPoint: "LatinBelow.mark" 250 0 basechar 0
AnchorPoint: "LatinAbove.mark" 279 180 basechar 0
LayerCount: 2
Fore
SplineSet
172 834 m 1
 273 865 l 1
 279 831 296 785 374 785 c 0
 452 785 485 831 501 865 c 1
 592 834 l 1
 560 766 489 690 359 690 c 0
 229 690 182 766 172 834 c 1
21 194 m 2
 85 600 l 1
 245 600 l 1
 181 194 l 2
 180 185 179 177 179 169 c 0
 179 112 217 93 265 93 c 0
 319 93 369 118 381 194 c 2
 445 600 l 1
 605 600 l 1
 541 194 l 2
 523 78 409 -21 247 -21 c 0
 100 -21 19 61 19 163 c 0
 19 173 19 183 21 194 c 2
EndSplineSet
EndChar

StartChar: Uring
Encoding: 366 366 299
Width: 770
GlyphClass: 2
Flags: W
AnchorPoint: "LatinBelow.mark" 325 0 basechar 0
AnchorPoint: "LatinAbove.mark" 377 330 basechar 0
LayerCount: 2
Fore
SplineSet
451 795 m 0
 385 795 338 832 338 893 c 0
 338 900 339 907 340 915 c 0
 352 989 415 1035 489 1035 c 0
 555 1035 602 998 602 937 c 0
 602 930 601 923 600 915 c 0
 588 841 525 795 451 795 c 0
462 865 m 0
 494 865 515 886 520 915 c 0
 521 919 521 923 521 926 c 0
 521 949 506 965 478 965 c 0
 446 965 425 944 420 915 c 0
 419 911 419 907 419 904 c 0
 419 881 434 865 462 865 c 0
44 246 m 2
 129 780 l 1
 301 780 l 1
 216 246 l 2
 214 234 213 224 213 214 c 0
 213 135 267 103 341 103 c 0
 424 103 496 143 512 246 c 2
 597 780 l 1
 769 780 l 1
 684 246 l 2
 661 99 519 -21 322 -21 c 0
 143 -21 41 78 41 206 c 0
 41 219 42 233 44 246 c 2
EndSplineSet
EndChar

StartChar: uring
Encoding: 367 367 300
Width: 620
GlyphClass: 2
Flags: W
AnchorPoint: "LatinBelow.mark" 250 0 basechar 0
AnchorPoint: "LatinAbove.mark" 279 180 basechar 0
LayerCount: 2
Fore
SplineSet
352 645 m 0
 286 645 239 682 239 743 c 0
 239 750 240 757 241 765 c 0
 253 839 316 885 390 885 c 0
 456 885 503 848 503 787 c 0
 503 780 502 773 501 765 c 0
 489 691 426 645 352 645 c 0
363 715 m 0
 395 715 416 736 421 765 c 0
 422 769 422 773 422 776 c 0
 422 799 407 815 379 815 c 0
 347 815 326 794 321 765 c 0
 320 761 320 757 320 754 c 0
 320 731 335 715 363 715 c 0
21 194 m 2
 85 600 l 1
 245 600 l 1
 181 194 l 2
 180 185 179 177 179 169 c 0
 179 112 217 93 265 93 c 0
 319 93 369 118 381 194 c 2
 445 600 l 1
 605 600 l 1
 541 194 l 2
 523 78 409 -21 247 -21 c 0
 100 -21 19 61 19 163 c 0
 19 173 19 183 21 194 c 2
EndSplineSet
EndChar

StartChar: Uhungarumlaut
Encoding: 368 368 301
Width: 770
GlyphClass: 2
Flags: W
AnchorPoint: "LatinBelow.mark" 325 0 basechar 0
AnchorPoint: "LatinAbove.mark" 377 330 basechar 0
LayerCount: 2
Fore
SplineSet
285 880 m 1
 420 1070 l 1
 499 1005 l 1
 333 840 l 1
 285 880 l 1
510 880 m 1
 645 1070 l 1
 724 1005 l 1
 558 840 l 1
 510 880 l 1
44 246 m 2
 129 780 l 1
 301 780 l 1
 216 246 l 2
 214 234 213 224 213 214 c 0
 213 135 267 103 341 103 c 0
 424 103 496 143 512 246 c 2
 597 780 l 1
 769 780 l 1
 684 246 l 2
 661 99 519 -21 322 -21 c 0
 143 -21 41 78 41 206 c 0
 41 219 42 233 44 246 c 2
EndSplineSet
EndChar

StartChar: uhungarumlaut
Encoding: 369 369 302
Width: 620
GlyphClass: 2
Flags: W
AnchorPoint: "LatinBelow.mark" 250 0 basechar 0
AnchorPoint: "LatinAbove.mark" 279 180 basechar 0
LayerCount: 2
Fore
SplineSet
186 730 m 1
 321 920 l 1
 400 855 l 1
 234 690 l 1
 186 730 l 1
411 730 m 1
 546 920 l 1
 625 855 l 1
 459 690 l 1
 411 730 l 1
21 194 m 2
 85 600 l 1
 245 600 l 1
 181 194 l 2
 180 185 179 177 179 169 c 0
 179 112 217 93 265 93 c 0
 319 93 369 118 381 194 c 2
 445 600 l 1
 605 600 l 1
 541 194 l 2
 523 78 409 -21 247 -21 c 0
 100 -21 19 61 19 163 c 0
 19 173 19 183 21 194 c 2
EndSplineSet
EndChar

StartChar: Uogonek
Encoding: 370 370 303
Width: 770
GlyphClass: 2
Flags: W
AnchorPoint: "LatinAbove.mark" 349 150 basechar 0
LayerCount: 2
Fore
SplineSet
44 246 m 2
 129 780 l 1
 301 780 l 1
 216 246 l 2
 214 234 213 224 213 214 c 0
 213 135 267 103 341 103 c 0
 424 103 496 143 512 246 c 2
 597 780 l 1
 769 780 l 1
 684 246 l 2
 668 143 593 52 481 8 c 1
 452 -20 420 -63 410 -125 c 0
 409 -131 409 -137 409 -142 c 0
 409 -173 426 -180 446 -180 c 0
 472 -180 502 -169 509 -165 c 1
 522 -238 l 1
 493 -252 455 -260 414 -260 c 0
 342 -260 306 -221 306 -164 c 0
 306 -156 307 -148 308 -140 c 0
 315 -93 339 -52 367 -19 c 1
 352 -20 337 -21 322 -21 c 0
 143 -21 41 78 41 206 c 0
 41 219 42 233 44 246 c 2
EndSplineSet
EndChar

StartChar: uogonek
Encoding: 371 371 304
Width: 620
GlyphClass: 2
Flags: W
AnchorPoint: "LatinAbove.mark" 250 0 basechar 0
LayerCount: 2
Fore
SplineSet
21 194 m 2
 85 600 l 1
 245 600 l 1
 181 194 l 2
 180 185 179 177 179 169 c 0
 179 112 217 93 265 93 c 0
 319 93 369 118 381 194 c 2
 445 600 l 1
 605 600 l 1
 541 194 l 2
 528 112 467 38 374 2 c 1
 347 -26 319 -68 310 -125 c 0
 309 -131 309 -137 309 -142 c 0
 309 -173 326 -180 346 -180 c 0
 372 -180 402 -169 409 -165 c 1
 422 -238 l 1
 393 -252 355 -260 314 -260 c 0
 242 -260 206 -221 206 -164 c 0
 206 -156 207 -148 208 -140 c 0
 215 -94 239 -54 266 -21 c 1
 247 -21 l 2
 100 -21 19 61 19 163 c 0
 19 173 19 183 21 194 c 2
EndSplineSet
EndChar

StartChar: Wcircumflex
Encoding: 372 372 305
Width: 1060
GlyphClass: 2
Flags: W
AnchorPoint: "LatinBelow.mark" 470 0 basechar 0
LayerCount: 2
Fore
SplineSet
399 875 m 1
 612 1020 l 1
 652 1020 l 1
 819 875 l 1
 766 825 l 1
 614 905 l 1
 436 825 l 1
 399 875 l 1
69 754 m 1
 71 764 l 1
 259 780 l 1
 300 247 l 1
 520 760 l 1
 660 760 l 1
 718 247 l 1
 929 780 l 1
 1111 764 l 1
 1109 754 l 1
 765 0 l 1
 620 0 l 1
 552 518 l 1
 320 0 l 1
 175 0 l 1
 69 754 l 1
EndSplineSet
EndChar

StartChar: wcircumflex
Encoding: 373 373 306
Width: 830
GlyphClass: 2
Flags: W
AnchorPoint: "LatinBelow.mark" 355 0 basechar 0
LayerCount: 2
Fore
SplineSet
260 725 m 1
 473 870 l 1
 513 870 l 1
 680 725 l 1
 627 675 l 1
 475 755 l 1
 297 675 l 1
 260 725 l 1
857 580 m 1
 592 0 l 1
 457 0 l 1
 412 362 l 1
 253 0 l 1
 118 0 l 1
 37 580 l 1
 38 588 l 1
 210 600 l 1
 236 236 l 1
 385 585 l 1
 511 585 l 1
 548 236 l 1
 690 600 l 1
 858 588 l 1
 857 580 l 1
EndSplineSet
EndChar

StartChar: Ycircumflex
Encoding: 374 374 307
Width: 670
GlyphClass: 2
Flags: W
AnchorPoint: "LatinBelow.mark" 275 0 basechar 0
AnchorPoint: "LatinAbove.mark" 337 330 basechar 0
LayerCount: 2
Fore
SplineSet
204 875 m 1
 417 1020 l 1
 457 1020 l 1
 624 875 l 1
 571 825 l 1
 419 905 l 1
 241 825 l 1
 204 875 l 1
54 754 m 1
 56 765 l 1
 249 780 l 1
 346 450 l 1
 549 780 l 1
 736 765 l 1
 734 754 l 1
 406 290 l 1
 360 0 l 1
 190 0 l 1
 236 290 l 1
 54 754 l 1
EndSplineSet
EndChar

StartChar: ycircumflex
Encoding: 375 375 308
Width: 600
GlyphClass: 2
Flags: W
AnchorPoint: "LatinBelow.mark" 211 -180 basechar 0
AnchorPoint: "LatinAbove.mark" 269 180 basechar 0
LayerCount: 2
Fore
SplineSet
145 725 m 1
 358 870 l 1
 398 870 l 1
 565 725 l 1
 512 675 l 1
 360 755 l 1
 182 675 l 1
 145 725 l 1
32 580 m 1
 33 588 l 1
 210 600 l 1
 274 200 l 1
 460 600 l 1
 633 588 l 1
 632 580 l 1
 303 -15 l 1
 236 -124 181 -231 41 -231 c 0
 -17 -231 -56 -209 -80 -189 c 1
 10 -95 l 1
 23 -108 37 -121 54 -121 c 0
 93 -121 120 -81 173 8 c 1
 32 580 l 1
EndSplineSet
EndChar

StartChar: Ydieresis
Encoding: 376 376 309
Width: 670
GlyphClass: 2
Flags: W
AnchorPoint: "LatinBelow.mark" 275 0 basechar 0
AnchorPoint: "LatinAbove.mark" 337 330 basechar 0
LayerCount: 2
Fore
SplineSet
310 1009 m 0
 354 1009 384 985 384 945 c 0
 384 940 384 935 383 930 c 0
 375 881 334 851 285 851 c 0
 241 851 212 875 212 915 c 0
 212 920 212 925 213 930 c 0
 221 979 261 1009 310 1009 c 0
560 1009 m 0
 604 1009 634 985 634 945 c 0
 634 940 634 935 633 930 c 0
 625 881 584 851 535 851 c 0
 491 851 462 875 462 915 c 0
 462 920 462 925 463 930 c 0
 471 979 511 1009 560 1009 c 0
54 754 m 1
 56 765 l 1
 249 780 l 1
 346 450 l 1
 549 780 l 1
 736 765 l 1
 734 754 l 1
 406 290 l 1
 360 0 l 1
 190 0 l 1
 236 290 l 1
 54 754 l 1
EndSplineSet
EndChar

StartChar: Zacute
Encoding: 377 377 310
Width: 670
GlyphClass: 2
Flags: W
AnchorPoint: "LatinBelow.mark" 275 0 basechar 0
LayerCount: 2
Fore
SplineSet
591 955 m 1
 328 840 l 1
 298 900 l 1
 543 1060 l 1
 591 955 l 1
-25 96 m 1
 456 650 l 1
 93 650 l 1
 114 780 l 1
 691 780 l 1
 687 684 l 1
 209 130 l 1
 611 130 l 1
 590 0 l 1
 -28 0 l 1
 -25 96 l 1
EndSplineSet
EndChar

StartChar: zacute
Encoding: 378 378 311
Width: 530
GlyphClass: 2
Flags: W
AnchorPoint: "LatinBelow.mark" 205 0 basechar 0
LayerCount: 2
Fore
SplineSet
497 805 m 1
 234 690 l 1
 204 750 l 1
 449 910 l 1
 497 805 l 1
-32 79 m 1
 318 490 l 1
 58 490 l 1
 75 600 l 1
 535 600 l 1
 532 521 l 1
 181 110 l 1
 472 110 l 1
 455 0 l 1
 -36 0 l 1
 -32 79 l 1
EndSplineSet
EndChar

StartChar: Zdotaccent
Encoding: 379 379 312
Width: 670
GlyphClass: 2
Flags: W
AnchorPoint: "LatinBelow.mark" 275 0 basechar 0
LayerCount: 2
Fore
SplineSet
328 930 m 0
 337 984 382 1018 436 1018 c 0
 485 1018 519 991 519 946 c 0
 519 941 519 935 518 930 c 0
 509 876 463 842 409 842 c 0
 361 842 327 869 327 914 c 0
 327 919 327 924 328 930 c 0
-25 96 m 1
 456 650 l 1
 93 650 l 1
 114 780 l 1
 691 780 l 1
 687 684 l 1
 209 130 l 1
 611 130 l 1
 590 0 l 1
 -28 0 l 1
 -25 96 l 1
EndSplineSet
EndChar

StartChar: zdotaccent
Encoding: 380 380 313
Width: 530
GlyphClass: 2
Flags: W
AnchorPoint: "LatinBelow.mark" 205 0 basechar 0
LayerCount: 2
Fore
SplineSet
234 780 m 0
 243 834 288 868 342 868 c 0
 391 868 425 841 425 796 c 0
 425 791 425 785 424 780 c 0
 415 726 369 692 315 692 c 0
 267 692 233 719 233 764 c 0
 233 769 233 774 234 780 c 0
-32 79 m 1
 318 490 l 1
 58 490 l 1
 75 600 l 1
 535 600 l 1
 532 521 l 1
 181 110 l 1
 472 110 l 1
 455 0 l 1
 -36 0 l 1
 -32 79 l 1
EndSplineSet
EndChar

StartChar: Zcaron
Encoding: 381 381 314
Width: 670
GlyphClass: 2
Flags: W
AnchorPoint: "LatinBelow.mark" 275 0 basechar 0
LayerCount: 2
Fore
SplineSet
640 980 m 1
 427 835 l 1
 387 835 l 1
 220 980 l 1
 273 1030 l 1
 426 950 l 1
 603 1030 l 1
 640 980 l 1
-25 96 m 1
 456 650 l 1
 93 650 l 1
 114 780 l 1
 691 780 l 1
 687 684 l 1
 209 130 l 1
 611 130 l 1
 590 0 l 1
 -28 0 l 1
 -25 96 l 1
EndSplineSet
EndChar

StartChar: zcaron
Encoding: 382 382 315
Width: 530
GlyphClass: 2
Flags: W
AnchorPoint: "LatinBelow.mark" 205 0 basechar 0
LayerCount: 2
Fore
SplineSet
546 830 m 1
 333 685 l 1
 293 685 l 1
 126 830 l 1
 179 880 l 1
 332 800 l 1
 509 880 l 1
 546 830 l 1
-32 79 m 1
 318 490 l 1
 58 490 l 1
 75 600 l 1
 535 600 l 1
 532 521 l 1
 181 110 l 1
 472 110 l 1
 455 0 l 1
 -36 0 l 1
 -32 79 l 1
EndSplineSet
EndChar

StartChar: uni018F
Encoding: 399 399 316
Width: 780
GlyphClass: 2
Flags: W
AnchorPoint: "LatinBelow.mark" 315 0 basechar 0
AnchorPoint: "LatinAbove.mark" 339 150 basechar 0
LayerCount: 2
Fore
SplineSet
739 407 m 2
 734 373 l 2
 707 201 598 -21 313 -21 c 0
 107 -21 20 106 20 251 c 0
 20 271 22 292 25 313 c 0
 31 350 43 391 58 430 c 1
 578 430 l 1
 581 451 582 471 582 489 c 0
 582 612 525 679 424 679 c 0
 336 679 273 619 256 567 c 1
 90 583 l 1
 118 665 234 801 443 801 c 0
 680 801 746 648 746 497 c 0
 746 467 744 436 739 407 c 2
559 320 m 1
 191 320 l 2
 191 318 190 315 190 313 c 0
 187 292 185 273 185 255 c 0
 185 147 245 99 332 99 c 0
 440 99 522 177 559 320 c 1
EndSplineSet
EndChar

StartChar: florin
Encoding: 402 402 317
Width: 400
GlyphClass: 2
Flags: W
AnchorPoint: "LatinBelow.mark" 120 0 basechar 0
AnchorPoint: "LatinAbove.mark" 239 180 basechar 0
LayerCount: 2
Fore
SplineSet
39 500 m 1
 55 600 l 1
 135 600 l 1
 146 667 l 2
 155 725 209 831 355 831 c 0
 439 831 487 791 499 780 c 1
 419 695 l 1
 408 703 382 721 349 721 c 0
 325 721 306 701 301 667 c 2
 290 600 l 1
 425 600 l 1
 409 500 l 1
 279 500 l 1
 198 -15 l 2
 179 -136 66 -204 -41 -226 c 1
 -75 -125 l 1
 -7 -109 27 -82 39 -5 c 2
 119 500 l 1
 39 500 l 1
EndSplineSet
EndChar

StartChar: Ohorn
Encoding: 416 416 318
Width: 820
GlyphClass: 3
Flags: W
AnchorPoint: "LatinBelow.mark" 350 0 basechar 0
AnchorPoint: "LatinAbove.mark" 374 150 basechar 0
LayerCount: 2
Fore
SplineSet
366 104 m 0
 487 104 572 197 600 373 c 2
 605 407 l 2
 610 437 612 465 612 490 c 0
 612 612 557 676 457 676 c 0
 336 676 251 583 223 407 c 2
 218 373 l 2
 213 343 211 315 211 290 c 0
 211 168 266 104 366 104 c 0
44 373 m 2
 49 407 l 2
 77 581 188 801 477 801 c 0
 575 801 645 776 693 735 c 1
 710 747 727 767 732 800 c 0
 733 804 733 808 733 812 c 0
 733 835 722 851 716 860 c 1
 820 915 l 1
 835 898 845 872 845 837 c 0
 845 827 844 816 842 805 c 0
 832 745 788 705 739 682 c 1
 773 628 786 562 786 496 c 0
 786 466 784 436 779 407 c 2
 774 373 l 2
 746 199 636 -21 347 -21 c 0
 106 -21 37 132 37 284 c 0
 37 314 39 344 44 373 c 2
EndSplineSet
Ligature2: "Latin.horn subtable" O uni031B
Ligature2: "Latin.horn subtable" O uni200D uni031B
EndChar

StartChar: ohorn
Encoding: 417 417 319
Width: 660
GlyphClass: 3
Flags: W
AnchorPoint: "LatinBelow.mark" 270 0 basechar 0
AnchorPoint: "LatinAbove.mark" 270 0 basechar 0
LayerCount: 2
Fore
SplineSet
285 93 m 0
 360 93 424 153 445 287 c 1
 450 313 l 2
 453 335 455 355 455 373 c 0
 455 465 413 507 350 507 c 0
 275 507 211 447 190 313 c 1
 185 287 l 2
 182 265 180 245 180 227 c 0
 180 135 222 93 285 93 c 0
25 287 m 2
 30 313 l 2
 51 443 133 621 368 621 c 0
 453 621 511 598 549 562 c 1
 562 574 574 593 578 620 c 0
 579 624 579 629 579 633 c 0
 579 655 569 672 563 680 c 1
 666 735 l 1
 681 718 692 691 692 656 c 0
 692 646 691 636 689 625 c 0
 680 567 638 527 591 504 c 1
 609 466 616 424 616 382 c 0
 616 358 614 335 610 313 c 2
 605 287 l 2
 584 157 502 -21 267 -21 c 0
 72 -21 19 102 19 218 c 0
 19 242 21 265 25 287 c 2
EndSplineSet
Ligature2: "Latin.horn subtable" o uni031B
Ligature2: "Latin.horn subtable" o uni200D uni031B
EndChar

StartChar: Uhorn
Encoding: 431 431 320
Width: 780
GlyphClass: 3
Flags: W
AnchorPoint: "LatinBelow.mark" 325 0 basechar 0
AnchorPoint: "LatinAbove.mark" 349 150 basechar 0
LayerCount: 2
Fore
SplineSet
44 246 m 2
 129 780 l 1
 301 780 l 1
 216 246 l 2
 214 234 213 224 213 214 c 0
 213 135 267 103 341 103 c 0
 424 103 496 143 512 246 c 2
 592 750 l 1
 622 750 l 1
 685 736 l 1
 701 748 717 768 722 800 c 0
 723 804 723 808 723 812 c 0
 723 835 712 851 706 860 c 1
 810 915 l 1
 825 898 835 872 835 837 c 0
 835 827 834 816 832 805 c 0
 824 756 793 720 755 696 c 1
 684 246 l 2
 661 99 519 -21 322 -21 c 0
 143 -21 41 78 41 206 c 0
 41 219 42 233 44 246 c 2
EndSplineSet
Ligature2: "Latin.horn subtable" U uni031B
Ligature2: "Latin.horn subtable" U uni200D uni031B
EndChar

StartChar: uhorn
Encoding: 432 432 321
Width: 635
GlyphClass: 3
Flags: W
AnchorPoint: "LatinBelow.mark" 250 0 basechar 0
AnchorPoint: "LatinAbove.mark" 250 0 basechar 0
LayerCount: 2
Fore
SplineSet
21 194 m 2
 85 600 l 1
 245 600 l 1
 181 194 l 2
 180 185 179 177 179 169 c 0
 179 112 217 93 265 93 c 0
 319 93 369 118 381 194 c 2
 440 570 l 1
 470 570 l 1
 523 557 l 1
 539 569 553 589 558 620 c 0
 559 624 559 629 559 633 c 0
 559 655 549 672 543 680 c 1
 646 735 l 1
 661 718 672 691 672 656 c 0
 672 646 671 636 669 625 c 0
 661 576 630 540 592 516 c 1
 541 194 l 2
 523 78 409 -21 247 -21 c 0
 100 -21 19 61 19 163 c 0
 19 173 19 183 21 194 c 2
EndSplineSet
Ligature2: "Latin.horn subtable" u uni031B
Ligature2: "Latin.horn subtable" u uni200D uni031B
EndChar

StartChar: uni01CD
Encoding: 461 461 322
Width: 750
GlyphClass: 2
Flags: W
AnchorPoint: "LatinBelow.mark" 315 0 basechar 0
AnchorPoint: "LatinAbove.mark" 367 330 basechar 0
LayerCount: 2
Fore
SplineSet
680 980 m 1
 467 835 l 1
 427 835 l 1
 260 980 l 1
 313 1030 l 1
 466 950 l 1
 643 1030 l 1
 680 980 l 1
690 0 m 1
 500 0 l 1
 475 150 l 1
 203 150 l 1
 130 0 l 1
 -60 0 l 1
 -58 11 l 1
 369 780 l 1
 509 780 l 1
 692 11 l 1
 690 0 l 1
455 270 m 1
 405 566 l 1
 261 270 l 1
 455 270 l 1
EndSplineSet
EndChar

StartChar: uni01CE
Encoding: 462 462 323
Width: 625
GlyphClass: 2
Flags: W
AnchorPoint: "LatinBelow.mark" 270 0 basechar 0
AnchorPoint: "LatinAbove.mark" 279 180 basechar 0
LayerCount: 2
Fore
SplineSet
591 830 m 1
 378 685 l 1
 338 685 l 1
 171 830 l 1
 224 880 l 1
 377 800 l 1
 554 880 l 1
 591 830 l 1
8 174 m 0
 20 249 95 330 245 330 c 0
 297 330 348 327 391 323 c 1
 405 412 l 2
 406 420 407 428 407 435 c 0
 407 490 367 507 320 507 c 0
 273 507 230 481 211 415 c 1
 53 427 l 1
 81 519 175 621 338 621 c 0
 481 621 562 544 562 443 c 0
 562 433 562 422 560 412 c 2
 520 155 l 2
 518 144 517 136 517 128 c 0
 517 102 529 92 564 87 c 1
 507 -16 l 1
 472 -11 411 2 390 56 c 1
 348 15 288 -16 207 -16 c 0
 76 -16 5 45 5 140 c 0
 5 151 6 162 8 174 c 0
384 230 m 1
 344 235 291 239 240 239 c 0
 212 239 170 222 162 172 c 0
 161 165 160 158 160 152 c 0
 160 97 203 79 243 79 c 0
 320 79 359 135 380 203 c 1
 384 230 l 1
EndSplineSet
MultipleSubs2: "Latin.a.decomp subtable" uni0251 uni030C
EndChar

StartChar: uni01CF
Encoding: 463 463 324
Width: 320
GlyphClass: 2
Flags: W
AnchorPoint: "LatinBelow.mark" 100 0 basechar 0
AnchorPoint: "LatinAbove.mark" 152 330 basechar 0
LayerCount: 2
Fore
SplineSet
465 980 m 1
 252 835 l 1
 212 835 l 1
 45 980 l 1
 98 1030 l 1
 251 950 l 1
 428 1030 l 1
 465 980 l 1
15 0 m 1
 139 780 l 1
 309 780 l 1
 185 0 l 1
 15 0 l 1
EndSplineSet
EndChar

StartChar: uni01D0
Encoding: 464 464 325
Width: 300
GlyphClass: 2
Flags: W
AnchorPoint: "LatinBelow.mark" 90 0 basechar 0
AnchorPoint: "LatinAbove.mark" 119 180 basechar 0
LayerCount: 2
Fore
SplineSet
431 830 m 1
 218 685 l 1
 178 685 l 1
 11 830 l 1
 64 880 l 1
 217 800 l 1
 394 880 l 1
 431 830 l 1
10 0 m 1
 105 600 l 1
 265 600 l 1
 170 0 l 1
 10 0 l 1
EndSplineSet
EndChar

StartChar: uni01D1
Encoding: 465 465 326
Width: 820
GlyphClass: 2
Flags: W
AnchorPoint: "LatinBelow.mark" 350 0 basechar 0
AnchorPoint: "LatinAbove.mark" 402 330 basechar 0
LayerCount: 2
Fore
SplineSet
715 980 m 1
 502 835 l 1
 462 835 l 1
 295 980 l 1
 348 1030 l 1
 501 950 l 1
 678 1030 l 1
 715 980 l 1
44 373 m 2
 49 407 l 2
 77 581 188 801 477 801 c 0
 718 801 786 649 786 497 c 0
 786 467 784 436 779 407 c 2
 774 373 l 2
 746 199 636 -21 347 -21 c 0
 106 -21 37 132 37 284 c 0
 37 314 39 344 44 373 c 2
366 104 m 0
 487 104 572 197 600 373 c 2
 605 407 l 2
 610 437 612 465 612 490 c 0
 612 612 557 676 457 676 c 0
 336 676 251 583 223 407 c 2
 218 373 l 2
 213 343 211 315 211 290 c 0
 211 168 266 104 366 104 c 0
EndSplineSet
EndChar

StartChar: uni01D2
Encoding: 466 466 327
Width: 660
GlyphClass: 2
Flags: W
AnchorPoint: "LatinBelow.mark" 270 0 basechar 0
AnchorPoint: "LatinAbove.mark" 299 180 basechar 0
LayerCount: 2
Fore
SplineSet
611 830 m 1
 398 685 l 1
 358 685 l 1
 191 830 l 1
 244 880 l 1
 397 800 l 1
 574 880 l 1
 611 830 l 1
25 287 m 2
 30 313 l 2
 51 443 133 621 368 621 c 0
 563 621 616 498 616 382 c 0
 616 358 614 335 610 313 c 2
 605 287 l 2
 584 157 502 -21 267 -21 c 0
 72 -21 19 102 19 218 c 0
 19 242 21 265 25 287 c 2
285 93 m 0
 360 93 424 153 445 287 c 1
 450 313 l 2
 453 335 455 355 455 373 c 0
 455 465 413 507 350 507 c 0
 275 507 211 447 190 313 c 1
 185 287 l 2
 182 265 180 245 180 227 c 0
 180 135 222 93 285 93 c 0
EndSplineSet
EndChar

StartChar: uni01D3
Encoding: 467 467 328
Width: 770
GlyphClass: 2
Flags: W
AnchorPoint: "LatinBelow.mark" 325 0 basechar 0
AnchorPoint: "LatinAbove.mark" 377 330 basechar 0
LayerCount: 2
Fore
SplineSet
690 980 m 1
 477 835 l 1
 437 835 l 1
 270 980 l 1
 323 1030 l 1
 476 950 l 1
 653 1030 l 1
 690 980 l 1
44 246 m 2
 129 780 l 1
 301 780 l 1
 216 246 l 2
 214 234 213 224 213 214 c 0
 213 135 267 103 341 103 c 0
 424 103 496 143 512 246 c 2
 597 780 l 1
 769 780 l 1
 684 246 l 2
 661 99 519 -21 322 -21 c 0
 143 -21 41 78 41 206 c 0
 41 219 42 233 44 246 c 2
EndSplineSet
EndChar

StartChar: uni01D4
Encoding: 468 468 329
Width: 620
GlyphClass: 2
Flags: W
AnchorPoint: "LatinBelow.mark" 250 0 basechar 0
AnchorPoint: "LatinAbove.mark" 279 180 basechar 0
LayerCount: 2
Fore
SplineSet
591 830 m 1
 378 685 l 1
 338 685 l 1
 171 830 l 1
 224 880 l 1
 377 800 l 1
 554 880 l 1
 591 830 l 1
21 194 m 2
 85 600 l 1
 245 600 l 1
 181 194 l 2
 180 185 179 177 179 169 c 0
 179 112 217 93 265 93 c 0
 319 93 369 118 381 194 c 2
 445 600 l 1
 605 600 l 1
 541 194 l 2
 523 78 409 -21 247 -21 c 0
 100 -21 19 61 19 163 c 0
 19 173 19 183 21 194 c 2
EndSplineSet
EndChar

StartChar: uni01D5
Encoding: 469 469 330
Width: 770
GlyphClass: 2
Flags: W
AnchorPoint: "LatinBelow.mark" 325 0 basechar 0
LayerCount: 2
Fore
SplineSet
283 1060 m 1
 298 1160 l 1
 718 1160 l 1
 703 1060 l 1
 283 1060 l 1
360 1009 m 0
 404 1009 434 985 434 945 c 0
 434 940 434 935 433 930 c 0
 425 881 384 851 335 851 c 0
 291 851 262 875 262 915 c 0
 262 920 262 925 263 930 c 0
 271 979 311 1009 360 1009 c 0
610 1009 m 0
 654 1009 684 985 684 945 c 0
 684 940 684 935 683 930 c 0
 675 881 634 851 585 851 c 0
 541 851 512 875 512 915 c 0
 512 920 512 925 513 930 c 0
 521 979 561 1009 610 1009 c 0
44 246 m 2
 129 780 l 1
 301 780 l 1
 216 246 l 2
 214 234 213 224 213 214 c 0
 213 135 267 103 341 103 c 0
 424 103 496 143 512 246 c 2
 597 780 l 1
 769 780 l 1
 684 246 l 2
 661 99 519 -21 322 -21 c 0
 143 -21 41 78 41 206 c 0
 41 219 42 233 44 246 c 2
EndSplineSet
EndChar

